<?xml version="1.0" standalone="no"?>
<!DOCTYPE svg PUBLIC "-//W3C//DTD SVG 20010904//EN"
 "http://www.w3.org/TR/2001/REC-SVG-20010904/DTD/svg10.dtd">
<svg version="1.0" xmlns="http://www.w3.org/2000/svg"
 width="563.000000pt" height="845.000000pt" viewBox="0 0 563.000000 845.000000"
 preserveAspectRatio="xMidYMid meet">

<g transform="translate(0.000000,845.000000) scale(0.100000,-0.100000)"
fill="#000000" stroke="none">
<path d="M2661 8289 c-78 -13 -181 -71 -248 -140 -63 -65 -123 -153 -123 -180
0 -10 -4 -20 -9 -23 -12 -8 -26 -167 -22 -261 3 -84 9 -105 21 -85 4 6 10 -19
13 -57 3 -37 9 -76 13 -87 6 -15 4 -17 -14 -11 -20 6 -22 3 -22 -30 0 -45 27
-168 47 -212 10 -24 20 -33 38 -33 29 0 30 8 11 55 -8 19 -13 35 -11 35 9 0
43 -78 59 -139 17 -59 46 -123 67 -146 14 -14 11 -55 -8 -103 -15 -41 -15 -49
6 -160 60 -311 188 -716 285 -901 l23 -44 40 104 c23 57 46 122 53 144 13 42
37 98 101 230 21 44 54 139 74 210 19 72 42 146 51 166 13 30 15 54 9 125 -4
49 -7 132 -7 184 0 83 3 101 25 143 14 26 31 81 38 122 11 70 13 74 29 60 37
-34 85 -10 94 48 18 118 14 203 -13 230 -5 5 -24 10 -41 9 -26 -1 -30 3 -30
27 0 16 -3 44 -6 62 -5 27 -4 32 6 22 7 -7 16 -29 19 -49 6 -39 17 -49 38 -36
9 6 10 37 3 132 -19 241 -49 324 -160 443 -41 42 -78 77 -83 77 -5 0 -22 9
-39 21 -70 50 -198 69 -327 48z m-116 -358 c5 -9 10 -36 11 -61 2 -25 3 -53 4
-63 2 -31 -55 -75 -113 -86 l-47 -8 0 43 c0 24 9 63 19 86 10 24 24 56 30 71
18 45 73 55 96 18z m-105 -250 c0 -8 -86 -41 -106 -41 -21 0 22 26 59 36 23 6
43 12 45 13 1 0 2 -3 2 -8z m0 -38 c-1 -14 -27 -43 -39 -43 -7 0 -9 -4 -6 -10
3 -5 -3 -10 -13 -10 -21 0 -36 25 -26 42 12 20 84 38 84 21z m260 -233 c0 -5
-4 -10 -10 -10 -5 0 -10 5 -10 10 0 6 5 10 10 10 6 0 10 -4 10 -10z m-356 -52
c3 -24 8 -54 11 -68 3 -14 -3 -5 -14 20 -21 48 -27 90 -12 90 4 0 11 -19 15
-42z m92 17 c69 -18 72 -21 51 -42 -23 -23 -87 -3 -104 32 -6 14 -10 25 -8 25
2 0 30 -7 61 -15z m214 0 c-7 -9 -15 -13 -17 -11 -7 7 7 26 19 26 6 0 6 -6 -2
-15z m-10 -129 c0 -14 -36 -46 -52 -46 -13 0 -9 19 9 40 20 23 43 26 43 6z
m-306 -7 c-3 -6 0 -15 7 -20 11 -7 10 -9 -3 -9 -18 0 -24 20 -11 33 10 11 15
8 7 -4z m394 6 c-9 -10 -102 -54 -105 -51 -5 5 48 40 72 48 26 8 40 9 33 3z
m-33 -135 c-3 -5 -22 -14 -43 -20 -46 -12 -52 -12 -52 0 0 5 6 7 14 4 7 -3 16
2 19 10 4 10 19 16 37 16 18 0 29 -4 25 -10z"/>
<path d="M1557 6213 c-36 -120 -40 -251 -27 -898 7 -341 15 -677 17 -747 3
-105 0 -152 -22 -275 -63 -350 -71 -466 -95 -1233 -6 -213 -15 -356 -26 -415
-10 -61 -14 -116 -10 -170 8 -98 -7 -331 -31 -477 -15 -94 -15 -112 -3 -131
57 -90 80 -136 104 -211 26 -79 33 -90 80 -127 l51 -41 7 349 c4 191 8 492 8
668 1 326 11 451 55 695 41 222 161 620 235 777 53 112 58 159 35 371 -16 143
-17 196 -9 372 l10 205 -40 60 c-22 33 -54 77 -73 97 l-33 38 2 172 c2 148 -1
186 -19 258 -12 47 -33 171 -48 275 -30 217 -35 242 -77 344 -26 63 -32 71
-41 55 -10 -17 -12 -16 -23 11 l-12 30 -15 -52z"/>
<path d="M2195 6108 c-49 -28 -109 -62 -132 -75 -33 -18 -43 -30 -43 -48 0
-33 10 -32 67 13 26 20 85 64 131 96 45 33 82 61 82 63 0 9 -22 -2 -105 -49z"/>
<path d="M3907 6053 c-42 -106 -50 -163 -51 -388 -2 -254 -4 -262 -88 -375
-30 -41 -94 -141 -142 -222 l-87 -147 11 -158 c12 -180 27 -336 36 -373 4 -18
3 -21 -4 -11 -16 22 -19 -5 -8 -66 11 -60 23 -69 29 -20 3 30 4 29 5 -8 1 -22
11 -53 23 -70 11 -16 47 -84 80 -149 33 -66 63 -124 68 -130 22 -27 122 -239
151 -321 75 -213 114 -392 205 -930 25 -153 37 -249 50 -425 28 -379 55 -705
61 -743 6 -38 6 -38 26 -20 33 30 37 44 48 221 12 167 11 173 -13 279 -14 59
-35 182 -47 273 -28 218 -33 249 -85 560 -53 320 -59 368 -85 630 -24 239 -47
388 -96 595 -44 190 -55 306 -43 487 5 79 8 271 8 428 -1 157 4 339 10 405 22
243 6 568 -32 681 l-13 37 -17 -40z m-310 -1715 c-3 -8 -6 -5 -6 6 -1 11 2 17
5 13 3 -3 4 -12 1 -19z"/>
<path d="M3240 5993 c1 -14 173 -134 239 -166 19 -10 37 -14 40 -11 3 4 0 9
-8 12 -8 3 -25 16 -37 29 -14 15 -28 22 -35 17 -7 -4 -9 -3 -6 3 4 6 -10 22
-31 36 -54 35 -162 89 -162 80z"/>
<path d="M3512 5606 c-47 -42 -182 -190 -177 -194 2 -2 22 15 45 37 25 24 52
41 65 41 13 0 26 6 28 13 4 9 8 8 16 -3 5 -8 11 -12 13 -10 28 43 46 114 31
123 -4 2 -14 0 -21 -7z"/>
<path d="M3284 5369 c-19 -22 -19 -22 4 -10 12 6 22 16 22 21 0 15 -5 12 -26
-11z"/>
<path d="M2370 5364 c-2 -51 115 -296 133 -277 4 3 7 -2 7 -12 0 -10 3 -15 7
-11 9 9 33 78 33 96 -1 8 -29 45 -63 81 -34 36 -74 81 -89 100 -15 19 -27 29
-28 23z"/>
<path d="M2958 5036 c-136 -138 -313 -320 -393 -403 -137 -142 -144 -152 -106
-138 38 13 85 55 351 319 36 36 85 88 110 116 25 29 53 61 63 71 9 11 17 24
17 29 0 6 4 10 9 10 5 0 16 16 25 35 11 23 23 35 34 33 11 -2 16 3 14 15 -2
10 3 17 13 17 8 0 15 6 15 14 0 7 7 19 15 26 25 21 98 110 88 109 -4 -1 -119
-115 -255 -253z"/>
<path d="M3145 4840 c-3 -11 -11 -20 -17 -20 -5 0 -8 6 -5 13 3 8 -3 13 -15
13 -15 0 -18 -5 -13 -23 4 -17 1 -23 -11 -23 -13 0 -15 -6 -9 -27 l7 -28 -21
23 -20 24 -13 -21 c-7 -12 -17 -21 -21 -21 -5 0 -22 -11 -39 -25 -35 -29 -54
-31 -80 -8 -10 9 -18 12 -18 7 0 -14 14 -30 30 -37 10 -4 8 -6 -7 -6 -12 -1
-28 -9 -35 -19 -7 -11 -23 -24 -35 -31 -19 -10 -23 -9 -23 4 0 8 5 15 12 15 8
0 9 3 2 10 -6 6 -19 8 -28 4 -14 -5 -15 -9 -4 -16 9 -7 8 -8 -6 -4 -12 4 -30
-4 -52 -24 -33 -28 -73 -42 -59 -20 4 6 -5 5 -19 -2 -14 -6 -26 -15 -26 -19 0
-4 -9 -11 -21 -14 -11 -4 -18 -9 -15 -13 3 -3 -1 -14 -11 -24 -15 -17 -14 -18
23 -18 22 0 50 7 63 16 21 15 26 15 65 0 60 -23 122 -21 136 4 14 25 72 82
116 112 18 13 34 26 34 31 0 4 5 7 11 7 7 0 22 11 35 25 13 14 28 25 34 25 5
0 10 7 10 15 0 10 10 15 34 15 38 0 44 11 38 68 -5 36 -17 42 -27 12z m15 -50
c0 -5 -2 -10 -4 -10 -3 0 -8 5 -11 10 -3 6 -1 10 4 10 6 0 11 -4 11 -10z m-23
-16 c-3 -3 -12 -4 -19 -1 -8 3 -5 6 6 6 11 1 17 -2 13 -5z"/>
<path d="M2945 4780 c-3 -5 -1 -10 4 -10 6 0 11 5 11 10 0 6 -2 10 -4 10 -3 0
-8 -4 -11 -10z"/>
<path d="M3370 4760 c0 -5 -7 -7 -15 -4 -21 8 -19 -2 5 -26 l20 -20 0 30 c0
17 -2 30 -5 30 -3 0 -5 -4 -5 -10z"/>
<path d="M3390 4759 c0 -5 5 -7 10 -4 6 3 10 8 10 11 0 2 -4 4 -10 4 -5 0 -10
-5 -10 -11z"/>
<path d="M3421 4709 c-18 -33 -35 -58 -38 -55 -2 2 1 14 7 27 11 19 10 21 -4
16 -10 -4 -19 -1 -22 8 -4 8 -10 12 -15 9 -5 -3 -7 -9 -4 -14 3 -5 1 -11 -5
-15 -11 -7 -13 -77 -4 -112 7 -25 47 -32 61 -10 21 32 75 207 65 207 -4 0 -22
-27 -41 -61z"/>
<path d="M3500 4552 c0 -4 9 -27 20 -50 11 -22 20 -47 20 -55 0 -7 7 -22 15
-33 15 -18 16 -17 9 16 -8 44 -39 116 -53 124 -6 4 -11 3 -11 -2z"/>
<path d="M3250 4525 c-10 -12 -10 -15 3 -15 19 0 31 16 18 24 -5 3 -14 -1 -21
-9z"/>
<path d="M2918 4517 c-16 -6 -28 -14 -28 -18 0 -13 61 -59 79 -59 9 0 22 -5
28 -11 9 -9 40 -2 122 27 61 21 111 41 111 44 0 8 -142 5 -175 -4 -16 -5 -36
-15 -42 -24 -11 -13 -13 -10 -13 21 0 34 -2 37 -27 36 -16 -1 -40 -6 -55 -12z"/>
<path d="M2568 4452 c-62 -65 -183 -355 -136 -325 7 4 20 8 28 8 8 0 20 4 27
8 6 4 15 2 18 -4 12 -19 7 -103 -8 -139 -8 -19 -18 -54 -22 -77 -3 -23 -13
-47 -21 -54 -8 -6 -14 -24 -14 -40 0 -22 -4 -27 -17 -22 -10 4 -14 2 -10 -4 4
-6 4 -26 -1 -44 -6 -31 -8 -28 -13 31 -8 75 0 -516 10 -725 10 -233 -28 -917
-53 -943 -11 -11 -11 -25 0 -75 7 -34 13 -83 14 -109 0 -29 5 -48 11 -48 8 0
8 -4 0 -14 -8 -9 -9 -16 -2 -21 10 -6 31 -47 46 -90 4 -11 9 -53 11 -93 2 -40
11 -103 20 -140 40 -164 61 -290 63 -365 1 -44 4 -84 7 -89 9 -14 10 -148 2
-148 -13 0 -9 -46 6 -87 8 -21 17 -58 20 -83 13 -108 18 -136 23 -150 3 -8 7
-30 7 -48 1 -28 -3 -34 -29 -41 l-30 -9 28 -1 c19 -1 30 -8 36 -25 10 -24 30
-36 62 -36 24 0 24 12 4 156 -9 60 -20 156 -26 214 -5 58 -19 173 -30 255 -19
140 -28 213 -64 505 -27 221 -48 520 -37 533 6 8 7 32 1 67 -8 50 -14 238 -9
285 3 26 18 -34 25 -95 3 -25 11 -85 19 -135 l15 -90 -6 90 c-4 50 -6 137 -6
195 0 67 -2 94 -7 75 -7 -27 -8 -26 -7 12 2 32 5 39 15 31 6 -6 12 -18 13 -27
0 -9 5 -3 10 14 5 18 5 33 -1 39 -12 12 -13 39 -2 32 4 -2 8 3 9 12 2 45 3 99
3 117 -1 11 4 21 9 23 5 2 8 9 5 16 -3 8 2 30 10 50 15 37 10 46 -13 24 -10
-11 -11 -9 -5 7 4 11 12 26 18 34 6 8 9 25 8 38 -3 18 2 26 17 30 25 6 28 40
4 46 -17 4 -16 5 0 6 14 1 18 7 14 29 -2 15 -2 21 0 15 3 -7 9 -13 14 -13 6 0
8 9 4 19 -4 15 0 20 17 23 13 2 22 9 20 17 -2 8 0 21 4 30 5 13 8 12 15 -7 4
-12 6 -29 3 -37 -4 -8 -2 -15 4 -15 5 0 12 -9 15 -20 6 -22 27 -28 27 -7 0 7
-6 19 -12 26 -10 11 -10 14 0 18 14 5 17 33 3 33 -5 0 -12 -6 -14 -12 -3 -7
-6 1 -7 17 -1 17 -3 47 -5 68 -3 27 -1 37 8 34 7 -2 13 -16 15 -30 2 -19 9
-27 23 -27 15 0 19 7 19 35 0 25 -4 33 -14 29 -9 -4 -13 3 -13 20 0 17 4 23
14 19 10 -4 13 0 9 18 -5 23 -26 272 -26 311 0 11 -5 15 -15 12 -8 -4 -12 -11
-8 -18 14 -20 11 -99 -3 -114 -12 -11 -14 -10 -14 12 0 14 -5 26 -11 26 -7 0
-9 -8 -4 -22 4 -13 9 -35 12 -50 3 -15 14 -30 24 -33 10 -4 19 -11 19 -16 0
-14 -26 -39 -40 -39 -8 0 -10 -9 -6 -24 11 -46 -17 -32 -46 22 -29 55 -36 106
-18 117 6 4 8 15 5 24 -7 24 4 51 21 51 26 0 17 58 -12 76 -22 15 -23 19 -10
26 19 10 25 11 28 1 1 -5 8 -14 16 -22 21 -21 33 5 17 36 -10 18 -10 33 -2 59
6 19 14 34 19 34 4 0 8 7 8 15 0 8 -4 15 -10 15 -5 0 -10 -4 -10 -9 0 -15 -32
-23 -44 -11 -8 8 -6 14 7 21 15 9 16 12 2 25 -8 9 -13 19 -10 24 3 5 -3 11
-12 14 -10 3 -24 18 -30 33 -11 22 -10 29 3 44 14 16 14 20 -1 43 -9 14 -15
29 -12 33 2 4 -1 42 -7 83 -13 80 -6 125 23 147 31 23 49 -14 65 -127 l15
-105 -5 116 c-5 97 -3 117 10 128 9 7 24 11 35 8 10 -2 25 -1 32 4 9 4 28 1
47 -8 27 -13 37 -14 56 -3 19 10 29 9 56 -5 31 -16 57 -16 106 0 18 6 22 1 31
-37 l11 -43 1 46 c1 39 5 48 26 57 14 7 37 12 50 12 23 0 23 -2 18 -55 -5 -47
-3 -55 11 -55 12 0 16 8 14 28 -2 31 8 52 24 52 7 0 21 9 32 19 15 13 40 21
84 24 l63 4 17 -36 c9 -19 25 -37 35 -39 23 -5 22 19 -4 52 -25 32 -22 33 51
17 22 -5 40 -5 40 -1 0 9 -99 30 -149 31 l-36 1 40 8 c22 5 59 10 83 11 24 2
45 6 48 11 8 12 -6 10 -166 -17 -269 -47 -330 -51 -330 -20 0 9 -14 11 -46 8
-26 -2 -50 -6 -55 -8 -12 -8 -89 6 -89 16 0 5 7 9 17 9 9 0 13 3 10 7 -4 3 -2
12 5 20 10 12 7 13 -18 7 -16 -4 -44 -13 -61 -20 -40 -16 -42 -6 -7 35 l26 31
-58 -34 c-73 -42 -114 -53 -114 -31 0 9 -5 13 -11 10 -12 -8 -56 37 -61 62 -1
10 1 24 6 31 15 25 -1 22 -26 -6z m92 -626 c0 -8 -6 -19 -14 -25 -18 -15 -27
6 -14 32 10 19 28 14 28 -7z m28 -113 c-4 -22 -22 -20 -26 1 -2 10 3 16 13 16
10 0 15 -7 13 -17z m72 -259 c0 -22 -2 -25 -15 -14 -12 10 -13 16 -4 26 16 20
19 18 19 -12z m-107 -104 c3 -11 1 -23 -4 -26 -5 -3 -9 6 -9 20 0 31 6 34 13
6z m77 -69 c-11 -22 -30 -28 -30 -11 0 6 4 10 9 10 5 0 12 10 16 23 3 12 9 17
11 10 3 -7 0 -21 -6 -32z m17 -23 c-3 -8 -6 -5 -6 6 -1 11 2 17 5 13 3 -3 4
-12 1 -19z m33 -64 c0 -8 -4 -14 -10 -14 -5 0 -10 9 -10 21 0 11 5 17 10 14 6
-3 10 -13 10 -21z m-103 -74 c9 -24 9 -30 -2 -30 -13 0 -25 21 -25 46 0 24 15
15 27 -16z m-140 -542 c-3 -8 -6 -5 -6 6 -1 11 2 17 5 13 3 -3 4 -12 1 -19z
m-48 -33 c0 -5 -4 -3 -9 5 -5 8 -9 22 -9 30 0 16 17 -16 18 -35z m-29 -784 c0
-6 -4 -13 -10 -16 -5 -3 -10 1 -10 9 0 9 5 16 10 16 6 0 10 -4 10 -9z"/>
<path d="M2472 4427 c-25 -27 -30 -46 -6 -27 15 13 38 50 31 50 -2 0 -13 -10
-25 -23z"/>
<path d="M2950 4340 c0 -5 9 -10 21 -10 11 0 17 5 14 10 -3 6 -13 10 -21 10
-8 0 -14 -4 -14 -10z"/>
<path d="M3008 4343 c6 -2 18 -2 25 0 6 3 1 5 -13 5 -14 0 -19 -2 -12 -5z"/>
<path d="M2135 4211 l-70 -18 58 -8 c49 -6 61 -5 77 10 20 18 26 36 13 34 -5
0 -39 -9 -78 -18z"/>
<path d="M3102 4140 c0 -14 2 -19 5 -12 2 6 2 18 0 25 -3 6 -5 1 -5 -13z"/>
<path d="M3114 4063 c16 -93 30 -147 34 -131 4 19 -27 168 -35 168 -3 0 -2
-17 1 -37z"/>
<path d="M2706 3943 c5 -5 12 -12 16 -18 4 -6 8 -2 8 8 0 9 -7 17 -17 17 -9 0
-12 -3 -7 -7z"/>
<path d="M3632 3888 c11 -29 39 -107 60 -173 22 -66 61 -181 88 -255 26 -74
60 -175 75 -225 15 -49 30 -85 32 -78 4 12 -26 120 -72 258 -12 39 -37 117
-55 175 -41 134 -65 198 -107 283 -40 80 -52 88 -21 15z"/>
<path d="M2713 3884 c4 -4 2 -13 -4 -20 -8 -10 -7 -17 4 -29 9 -8 18 -15 21
-15 12 0 6 28 -6 33 -10 4 -10 6 0 6 18 1 15 18 -5 25 -10 4 -14 4 -10 0z"/>
<path d="M3151 3874 c0 -11 3 -14 6 -6 3 7 2 16 -1 19 -3 4 -6 -2 -5 -13z"/>
<path d="M3162 3790 c0 -14 2 -19 5 -12 2 6 2 18 0 25 -3 6 -5 1 -5 -13z"/>
<path d="M2742 3690 c0 -14 2 -19 5 -12 2 6 2 18 0 25 -3 6 -5 1 -5 -13z"/>
<path d="M2685 3410 c3 -6 -1 -7 -9 -4 -21 8 -20 -6 4 -36 l19 -25 -6 24 c-5
20 -3 23 10 18 8 -3 20 0 27 7 8 10 7 15 -6 20 -24 9 -46 7 -39 -4z"/>
<path d="M2070 3277 c0 -3 -7 -31 -15 -62 -8 -30 -22 -80 -30 -111 -9 -31 -14
-59 -11 -61 5 -5 6 -2 41 130 15 54 24 101 21 105 -3 3 -6 3 -6 -1z"/>
<path d="M2776 3097 c-8 -32 -7 -39 6 -35 14 5 21 45 9 52 -5 3 -11 -4 -15
-17z"/>
<path d="M2058 3065 c-6 -30 -3 -43 8 -33 3 4 4 19 2 35 l-3 28 -7 -30z"/>
<path d="M2685 3050 c-3 -5 -1 -10 4 -10 6 0 11 5 11 10 0 6 -2 10 -4 10 -3 0
-8 -4 -11 -10z"/>
<path d="M2775 3030 c4 -6 11 -8 16 -5 14 9 11 15 -7 15 -8 0 -12 -5 -9 -10z"/>
<path d="M2690 3005 c0 -9 10 -15 26 -15 23 0 24 2 10 15 -8 8 -19 15 -25 15
-6 0 -11 -7 -11 -15z"/>
<path d="M2784 3002 c-18 -12 -24 -52 -8 -52 8 0 17 6 20 14 8 22 1 47 -12 38z"/>
<path d="M2660 2951 c0 -5 5 -13 10 -16 6 -3 10 -2 10 4 0 5 -4 13 -10 16 -5
3 -10 2 -10 -4z"/>
<path d="M2795 2900 c4 -11 2 -20 -4 -20 -6 0 -11 -4 -11 -10 0 -5 7 -10 15
-10 10 0 15 10 15 30 0 17 -5 30 -11 30 -6 0 -8 -9 -4 -20z"/>
<path d="M2741 2846 c-9 -11 -10 -20 -2 -33 9 -16 10 -14 11 10 0 16 4 26 10
22 15 -9 12 -43 -6 -70 -9 -14 -14 -31 -11 -37 2 -7 1 -22 -4 -33 -7 -19 -8
-19 -8 0 -1 30 -24 2 -28 -36 -2 -21 2 -36 13 -44 16 -11 15 -14 -4 -33 -23
-23 -29 -42 -12 -42 6 0 10 5 10 10 0 6 3 10 8 10 4 0 7 -29 8 -65 0 -36 -3
-65 -8 -65 -4 0 -8 -18 -8 -40 0 -22 4 -40 9 -40 5 0 7 -9 4 -20 -3 -11 -9
-20 -14 -20 -11 0 -1 -50 14 -68 8 -10 7 -16 -2 -21 -9 -6 -8 -11 4 -21 8 -7
15 -27 15 -44 0 -17 7 -44 15 -60 12 -22 13 -31 4 -37 -6 -4 -9 -11 -5 -17 11
-18 15 -101 5 -108 -5 -3 -6 -11 -2 -17 11 -16 11 -87 1 -87 -8 0 11 -40 23
-50 4 -3 2 -16 -3 -30 -14 -34 -18 -80 -7 -80 12 0 11 -28 -1 -32 -5 -1 -11
-20 -12 -40 -2 -26 -8 -38 -21 -42 -15 -4 -16 -2 -6 10 7 8 7 14 1 14 -5 0
-13 -7 -16 -16 -4 -11 1 -18 14 -21 24 -6 25 -10 5 -29 -13 -14 -15 -14 -15 1
0 9 -4 14 -10 10 -5 -3 -7 -12 -3 -20 3 -9 0 -22 -7 -30 -10 -12 -9 -15 4 -15
19 0 21 -16 4 -23 -10 -4 -10 -6 0 -6 6 -1 12 -8 12 -16 0 -10 -7 -15 -17 -13
-14 2 -18 -4 -19 -27 -1 -50 -3 -55 -22 -55 -15 0 -18 7 -17 30 2 27 -10 49
-20 38 -5 -5 21 -137 29 -146 4 -4 5 11 1 32 -8 38 -7 39 18 32 16 -4 27 -1
30 7 3 8 10 5 22 -10 9 -13 23 -23 31 -23 8 0 14 -9 14 -22 0 -19 1 -20 13 -6
6 9 21 18 32 20 13 3 19 11 18 25 -2 15 5 23 24 28 21 5 24 8 12 16 -12 7 -11
9 3 9 9 0 19 -6 22 -12 8 -20 -17 516 -29 622 -10 89 -26 370 -35 618 -5 140
-10 255 -12 257 -2 1 -17 6 -34 9 -22 5 -35 2 -43 -8z m59 -26 c0 -5 -5 -10
-11 -10 -5 0 -7 5 -4 10 3 6 8 10 11 10 2 0 4 -4 4 -10z m-73 -552 c-3 -8 -6
-5 -6 6 -1 11 2 17 5 13 3 -3 4 -12 1 -19z m63 -658 c0 -5 -2 -10 -4 -10 -3 0
-8 5 -11 10 -3 6 -1 10 4 10 6 0 11 -4 11 -10z m-35 -119 c7 -12 -12 -24 -25
-16 -11 7 -4 25 10 25 5 0 11 -4 15 -9z m65 -105 c0 -3 -4 -8 -10 -11 -5 -3
-10 -1 -10 4 0 6 5 11 10 11 6 0 10 -2 10 -4z m-97 -31 c-3 -9 -8 -14 -10 -11
-3 3 -2 9 2 15 9 16 15 13 8 -4z m91 -10 c3 -8 1 -15 -4 -15 -6 0 -10 7 -10
15 0 8 2 15 4 15 2 0 6 -7 10 -15z"/>
<path d="M2001 2544 c0 -11 3 -14 6 -6 3 7 2 16 -1 19 -3 4 -6 -2 -5 -13z"/>
<path d="M1990 2460 c0 -5 5 -10 11 -10 5 0 7 5 4 10 -3 6 -8 10 -11 10 -2 0
-4 -4 -4 -10z"/>
<path d="M1995 2411 c-9 -16 17 -81 32 -81 7 0 13 -7 13 -15 0 -21 18 -19 23
3 4 15 5 15 6 1 1 -18 27 -33 42 -23 5 3 8 2 7 -3 -8 -29 53 -83 94 -83 6 0
17 -8 24 -17 7 -10 16 -14 20 -10 8 8 -193 206 -210 207 -5 0 -17 7 -27 16
-11 10 -19 12 -24 5z"/>
<path d="M3263 2363 c-8 -3 -13 -22 -12 -51 1 -42 2 -44 9 -17 4 17 8 26 9 20
2 -16 21 18 21 38 0 17 -5 19 -27 10z"/>
<path d="M3275 2230 l3 -55 -13 40 -13 40 -1 -42 c-1 -23 3 -44 8 -47 16 -10
41 5 41 25 0 10 5 19 10 19 18 0 10 22 -9 27 -11 3 -22 15 -24 27 -3 11 -4 -4
-2 -34z"/>
<path d="M2270 2166 c0 -2 8 -10 18 -17 15 -13 16 -12 3 4 -13 16 -21 21 -21
13z"/>
<path d="M2552 2090 c0 -14 2 -19 5 -12 2 6 2 18 0 25 -3 6 -5 1 -5 -13z"/>
<path d="M2402 1750 c0 -14 2 -19 5 -12 2 6 2 18 0 25 -3 6 -5 1 -5 -13z"/>
<path d="M2591 1714 c0 -11 3 -14 6 -6 3 7 2 16 -1 19 -3 4 -6 -2 -5 -13z"/>
<path d="M3273 1645 c0 -27 2 -38 4 -22 2 15 2 37 0 50 -2 12 -4 0 -4 -28z"/>
<path d="M2596 1653 c-6 -14 -5 -15 5 -6 7 7 10 15 7 18 -3 3 -9 -2 -12 -12z"/>
<path d="M2606 1557 c3 -43 10 -90 15 -105 6 -18 7 4 3 63 -3 49 -9 96 -14
105 -6 9 -7 -15 -4 -63z"/>
<path d="M3270 1534 c0 -10 -5 -14 -15 -10 -19 7 -151 -112 -147 -132 2 -8 -6
-16 -18 -19 -16 -4 -18 -8 -9 -19 6 -8 16 -11 22 -7 17 10 47 11 53 1 3 -4 -1
-8 -9 -8 -9 0 -12 -9 -9 -30 2 -16 7 -30 11 -30 10 0 31 78 25 94 -4 9 -1 16
6 16 8 0 10 8 7 21 -8 32 2 52 19 38 11 -9 15 -8 20 5 3 9 4 23 0 31 -4 11 2
15 24 15 25 0 30 4 30 25 0 14 -2 25 -5 25 -3 0 -5 -7 -5 -16z"/>
<path d="M2695 1280 c-3 -5 -1 -10 4 -10 6 0 11 5 11 10 0 6 -2 10 -4 10 -3 0
-8 -4 -11 -10z"/>
<path d="M2735 1261 c-3 -5 -1 -12 5 -16 5 -3 10 1 10 9 0 18 -6 21 -15 7z"/>
<path d="M2860 1256 c0 -9 5 -16 10 -16 6 0 10 4 10 9 0 6 -4 13 -10 16 -5 3
-10 -1 -10 -9z"/>
<path d="M1710 482 c0 -5 6 -14 13 -19 12 -9 121 -37 192 -49 22 -4 34 -9 28
-11 -21 -7 -15 -33 7 -33 23 0 26 -22 5 -40 -11 -9 -12 -17 -5 -30 14 -27 12
-40 -6 -40 -14 0 -14 -1 0 -16 9 -8 16 -20 16 -25 0 -5 9 -9 20 -9 16 0 20 -7
20 -35 0 -19 5 -35 10 -35 6 0 10 -8 9 -17 0 -11 -3 -13 -6 -5 -2 6 -9 12 -14
12 -6 0 -7 -4 -4 -10 3 -5 1 -10 -5 -10 -7 0 -9 8 -5 19 7 24 -4 73 -15 66 -5
-3 -12 0 -15 6 -4 5 -13 8 -21 5 -16 -6 -19 10 -4 17 6 3 5 4 -2 3 -14 -3 -15
-30 -4 -57 5 -10 2 -16 -9 -16 -13 0 -19 17 -18 54 0 6 -6 9 -13 6 -9 -3 -14
1 -14 12 0 9 5 13 10 10 6 -3 10 -2 10 4 0 6 -9 15 -20 21 -19 10 -20 9 -17
-25 3 -19 0 -38 -4 -41 -5 -3 -9 4 -9 15 0 11 -4 22 -9 25 -14 9 0 -42 15 -55
10 -8 14 -8 14 0 0 6 5 11 10 11 6 0 10 -9 10 -20 0 -16 -5 -19 -25 -16 -21 4
-24 2 -16 -11 4 -9 6 -25 3 -37 -6 -20 -6 -20 -13 4 -6 20 -7 17 -8 -17 -1
-41 11 -57 22 -30 3 6 6 8 6 2 0 -5 -4 -17 -9 -25 -9 -13 -12 -13 -21 3 -15
25 -24 21 -25 -12 l-1 -30 337 0 337 0 8 169 c4 93 4 192 0 220 l-7 50 -216 1
c-120 0 -237 3 -262 5 -61 5 -249 34 -266 41 -8 3 -14 1 -14 -5z m263 -99 c-7
-2 -19 -2 -25 0 -7 3 -2 5 12 5 14 0 19 -2 13 -5z m27 -53 c0 -11 -7 -20 -15
-20 -27 0 -18 30 13 39 1 1 2 -8 2 -19z m75 0 c3 -5 2 -10 -4 -10 -5 0 -13 5
-16 10 -3 6 -2 10 4 10 5 0 13 -4 16 -10z m-66 -57 c-1 -17 -3 -21 -6 -10 -2
9 -9 17 -14 17 -6 0 -7 5 -4 10 12 19 25 10 24 -17z m131 7 c0 -5 -2 -10 -4
-10 -3 0 -8 5 -11 10 -3 6 -1 10 4 10 6 0 11 -4 11 -10z m-34 -104 c18 -19 18
-33 0 -33 -8 0 -16 11 -19 24 -5 27 -1 29 19 9z m41 -33 c-3 -10 -5 -2 -5 17
0 19 2 27 5 18 2 -10 2 -26 0 -35z m36 -14 c-7 -7 -12 -3 -15 16 -5 25 -4 25
10 11 12 -11 13 -19 5 -27z"/>
<path d="M3915 454 c-134 -35 -271 -62 -455 -88 -150 -21 -334 -56 -341 -64
-4 -4 -9 -73 -13 -154 l-6 -148 443 0 443 0 22 73 c30 101 65 418 45 416 -4 0
-66 -16 -138 -35z"/>
<path d="M1866 285 c4 -8 7 -15 9 -15 2 0 5 7 9 15 3 9 0 15 -9 15 -9 0 -12
-6 -9 -15z"/>
<path d="M1911 254 c0 -11 3 -14 6 -6 3 7 2 16 -1 19 -3 4 -6 -2 -5 -13z"/>
<path d="M1667 154 c-4 -4 -7 -14 -7 -23 0 -11 3 -12 11 -4 6 6 10 16 7 23 -2
6 -7 8 -11 4z"/>
<path d="M1638 82 c-10 -2 -18 -8 -18 -13 0 -13 27 -11 35 2 9 13 4 16 -17 11z"/>
<path d="M1616 15 c-3 -8 -1 -15 4 -15 6 0 10 7 10 15 0 19 -6 19 -14 0z"/>
</g>
</svg>
