<?xml version="1.0" standalone="no"?>
<!DOCTYPE svg PUBLIC "-//W3C//DTD SVG 20010904//EN"
 "http://www.w3.org/TR/2001/REC-SVG-20010904/DTD/svg10.dtd">
<svg version="1.0" xmlns="http://www.w3.org/2000/svg"
 width="563.000000pt" height="845.000000pt" viewBox="0 0 563.000000 845.000000"
 preserveAspectRatio="xMidYMid meet">

<g transform="translate(0.000000,845.000000) scale(0.100000,-0.100000)"
fill="#000000" stroke="none">
<path d="M2616 8428 c-4 -17 -8 -20 -14 -10 -11 17 -26 -1 -36 -43 -4 -16 -19
-40 -34 -53 -25 -22 -25 -24 -14 -70 6 -26 14 -67 17 -92 4 -35 0 -28 -18 34
-18 64 -25 76 -35 64 -9 -12 -8 -30 7 -89 10 -41 18 -75 16 -77 -1 -2 -10 15
-18 37 -20 50 -40 64 -26 19 6 -18 14 -55 18 -82 8 -44 7 -48 -5 -31 -8 10
-14 15 -14 9 -1 -5 -8 2 -16 16 l-15 25 5 -30 c3 -16 8 -43 12 -60 6 -29 6
-29 -10 -10 -18 24 -18 24 -16 -87 2 -81 0 -88 -18 -88 -29 0 -45 -25 -37 -57
l6 -27 12 25 c7 13 22 25 34 27 12 2 23 10 25 18 2 9 14 -5 28 -32 14 -26 30
-49 37 -51 17 -6 42 36 45 75 2 29 7 34 42 43 52 14 62 26 64 80 3 45 -5 67
-42 122 -10 15 -16 30 -13 34 4 3 2 13 -3 22 -6 13 -3 20 12 30 11 7 17 8 14
3 -3 -6 0 -12 8 -15 17 -7 8 39 -22 103 -12 27 -22 76 -26 120 -2 41 -3 64 0
50 23 -124 63 -245 64 -196 0 12 5 16 16 12 13 -5 14 1 9 38 -4 26 -3 52 4 63
9 15 10 12 5 -13 -4 -19 -1 -34 5 -38 6 -4 11 -2 11 4 0 21 20 -1 21 -23 1
-18 2 -19 6 -4 4 14 8 16 19 6 11 -9 14 -7 14 14 0 14 -6 28 -12 30 -10 4 -10
6 0 6 8 1 22 -9 32 -21 10 -13 21 -20 25 -17 9 10 -25 89 -39 89 -15 0 -18 72
-4 81 17 11 1 39 -22 39 -16 0 -20 -6 -20 -36 0 -24 4 -33 12 -28 8 5 9 2 5
-10 -4 -10 -8 -27 -8 -39 -1 -12 -7 7 -13 43 l-11 65 -41 3 c-36 3 -42 0 -48
-20z m29 -196 c-7 -7 -25 47 -24 71 1 14 6 5 15 -22 8 -25 12 -47 9 -49z"/>
<path d="M2814 8433 c3 -10 8 -36 11 -58 15 -101 29 -156 43 -167 17 -14 17
-15 -4 36 -4 12 -4 17 2 13 11 -6 12 178 1 189 -4 4 -7 -5 -7 -20 0 -16 -4
-25 -10 -21 -5 3 -10 15 -10 26 0 11 -7 19 -16 19 -10 0 -14 -6 -10 -17z"/>
<path d="M2920 8434 c0 -16 51 -126 56 -121 2 2 -1 18 -6 37 -13 47 -5 50 10
3 7 -21 21 -52 31 -69 20 -33 20 -101 0 -96 -16 3 -14 -14 4 -32 8 -8 15 -18
15 -22 0 -5 -5 -3 -12 4 -13 13 -52 17 -45 5 3 -5 1 -17 -3 -28 -5 -13 -2 -24
9 -32 14 -11 14 -12 -2 -13 -16 0 -17 -2 -3 -21 8 -12 12 -28 9 -35 -3 -8 4
-18 18 -23 20 -8 21 -10 5 -10 -28 -1 -14 -11 46 -34 48 -17 81 -24 131 -26
14 -1 17 -11 17 -56 0 -46 -3 -55 -17 -55 -20 0 -73 -61 -73 -84 0 -8 -5 -18
-11 -22 -7 -4 -9 -21 -6 -40 3 -19 1 -36 -4 -40 -6 -3 -8 -17 -5 -30 4 -14 2
-24 -4 -24 -5 0 -10 -6 -10 -13 0 -18 -37 -47 -60 -47 -11 0 -53 9 -92 20 -71
20 -118 25 -118 15 0 -3 11 -16 25 -29 17 -15 25 -34 25 -55 0 -27 -5 -34 -36
-47 -40 -17 -55 -10 -77 34 -6 14 -18 28 -26 30 -22 7 -7 -70 26 -134 24 -46
26 -57 15 -74 -11 -18 -9 -24 12 -45 16 -16 31 -22 45 -18 24 6 28 -9 8 -29
-8 -7 -12 -19 -9 -26 2 -6 -1 -12 -7 -12 -6 0 -11 -9 -11 -20 0 -23 12 -25 42
-9 18 9 24 8 35 -7 11 -16 13 -12 13 33 0 36 -4 53 -15 57 -12 4 -13 10 -4 30
14 30 194 140 216 132 11 -5 14 -19 11 -56 -2 -38 0 -50 11 -50 11 0 12 -12 6
-62 -4 -35 -7 -80 -6 -101 2 -46 -11 -72 -19 -39 -5 23 -6 23 -48 -14 -40 -34
-44 -35 -61 -20 -16 15 -18 13 -34 -19 -16 -34 -18 -35 -76 -35 -33 0 -63 5
-66 10 -10 17 -75 12 -75 -5 0 -16 9 -18 48 -15 31 2 29 -28 -3 -40 -14 -5
-25 -12 -25 -14 0 -3 29 -18 65 -35 52 -25 63 -34 58 -48 -12 -31 -30 -43 -64
-43 -49 0 -140 100 -247 275 -14 22 -33 52 -44 67 -10 15 -18 37 -18 50 0 13
-5 30 -10 38 -8 11 -9 7 -5 -15 l7 -30 -21 25 c-22 27 -36 58 -45 103 -9 39
-27 33 -23 -8 2 -19 0 -32 -4 -29 -5 3 -9 0 -9 -5 0 -6 4 -11 9 -11 5 0 4 -13
-2 -29 -6 -16 -16 -27 -23 -24 -7 3 -10 -4 -7 -20 3 -14 -1 -28 -8 -32 -9 -6
-11 8 -6 66 3 41 8 82 12 92 5 12 3 16 -6 12 -16 -7 -62 -99 -84 -171 -12 -37
-15 -76 -12 -138 3 -51 1 -89 -5 -92 -7 -4 -7 -9 0 -13 5 -3 13 -31 16 -61 3
-30 11 -91 17 -135 6 -44 12 -102 13 -130 1 -27 7 -59 14 -71 6 -11 12 -42 14
-67 2 -26 7 -47 12 -47 4 0 5 -7 2 -16 -3 -9 -3 -21 1 -27 4 -7 9 -27 10 -46
1 -19 7 -37 13 -41 6 -4 10 -13 9 -21 -5 -22 11 -89 21 -89 5 0 8 -12 7 -27
-1 -18 3 -27 10 -26 7 2 12 -7 12 -20 0 -12 7 -51 15 -86 9 -35 14 -66 11 -69
-3 -3 -5 1 -5 8 0 7 -3 11 -6 8 -3 -4 1 -17 10 -30 16 -25 41 -212 30 -229 -3
-5 -1 -9 5 -9 5 0 11 6 14 13 2 6 3 -12 2 -41 -1 -29 2 -78 7 -110 16 -114 20
-148 23 -207 12 -206 17 -250 26 -253 6 -3 6 -9 -2 -18 -8 -10 -8 -14 0 -14
11 0 11 -27 -2 -47 -4 -6 -3 -14 2 -18 6 -3 8 -12 5 -20 -3 -8 0 -31 6 -51 9
-27 15 -33 21 -23 7 11 9 10 9 -5 0 -10 -8 -25 -17 -32 -11 -8 -13 -13 -5 -14
14 0 16 -36 2 -45 -5 -3 -10 -14 -10 -23 0 -15 2 -15 10 -2 8 12 10 10 9 -10
l0 -25 -24 30 c-14 17 -25 34 -25 39 0 4 -15 29 -33 55 -18 25 -39 59 -47 74
-8 16 -16 24 -18 17 -2 -6 7 -28 20 -48 40 -62 101 -195 102 -224 1 -14 5 -24
10 -20 5 3 7 -5 4 -16 -4 -12 -3 -22 2 -22 13 0 20 -44 8 -51 -8 -5 -9 -11 -1
-21 6 -7 14 -28 18 -47 4 -18 18 -56 31 -85 20 -44 25 -77 33 -231 6 -99 11
-223 12 -275 0 -52 4 -158 9 -235 11 -180 23 -443 22 -475 -3 -76 -3 -102 3
-119 3 -11 1 -22 -5 -26 -6 -3 -8 -10 -6 -14 3 -4 7 -36 10 -71 3 -34 8 -65
10 -68 3 -2 1 -13 -5 -23 -6 -13 -6 -19 1 -19 5 0 10 -11 10 -25 0 -14 -6 -25
-12 -25 -9 0 -10 -3 -2 -8 7 -4 10 -45 9 -119 -2 -79 1 -113 9 -113 8 0 8 -3
0 -8 -13 -9 -13 -163 0 -154 5 3 5 -1 0 -9 -12 -21 -16 -240 -4 -255 11 -13 3
-64 -10 -64 -4 0 -8 -44 -8 -98 -2 -228 -14 -517 -22 -520 -4 -2 -5 -17 -1
-35 7 -33 6 -71 -3 -119 -3 -16 -1 -28 4 -28 6 0 10 -5 10 -11 0 -5 -5 -7 -11
-3 -8 5 -10 -1 -5 -19 3 -14 2 -29 -4 -32 -5 -3 -10 -11 -10 -16 0 -6 4 -7 10
-4 6 4 10 -7 10 -27 0 -26 -3 -30 -11 -18 -8 12 -9 9 -5 -11 3 -14 3 -29 -1
-32 -3 -4 -7 -71 -9 -149 -2 -79 -6 -172 -10 -208 -4 -36 -7 -93 -8 -127 0
-35 -4 -63 -8 -63 -4 0 -5 -35 -3 -78 3 -42 5 -123 5 -179 1 -59 5 -103 10
-103 6 0 10 -5 10 -11 0 -5 -3 -8 -7 -6 -5 3 -9 -31 -11 -74 l-4 -79 175 0
174 0 12 37 c67 213 112 427 187 908 29 182 38 239 54 360 10 77 21 172 24
210 3 39 13 147 20 240 28 326 38 1007 16 1080 -5 17 -32 149 -60 295 -66 344
-99 503 -116 564 -8 28 -10 54 -5 59 13 13 41 -21 34 -41 -6 -16 -5 -16 13 -1
12 11 43 18 84 21 47 3 84 13 132 36 75 36 96 39 105 15 4 -11 -3 -24 -23 -40
-16 -12 -33 -23 -38 -23 -5 0 -22 -13 -38 -30 -16 -18 -38 -30 -53 -30 -14 0
-25 -4 -25 -10 0 -5 -25 -10 -55 -10 -30 0 -55 -4 -55 -10 0 -5 14 -10 31 -10
23 0 30 -4 26 -14 -3 -8 0 -17 7 -19 15 -6 23 -58 32 -212 7 -130 16 -155 13
-37 -1 45 1 85 5 89 3 3 6 -9 6 -28 2 -75 37 -466 44 -477 4 -7 2 -12 -5 -12
-10 0 -10 -3 -2 -11 7 -7 9 -25 6 -40 -4 -21 -2 -29 9 -29 16 0 40 -64 31 -86
-3 -8 0 -20 6 -28 6 -7 8 -16 5 -19 -4 -3 1 -22 10 -41 18 -39 50 -229 43
-263 -2 -13 -1 -23 3 -23 12 0 27 -108 34 -235 2 -27 7 -88 11 -135 4 -47 9
-105 10 -130 8 -139 15 -212 21 -222 5 -7 2 -8 -6 -3 -9 6 -11 -2 -8 -34 2
-22 0 -42 -3 -43 -7 -3 -14 -68 -25 -238 -3 -52 -8 -102 -11 -110 -2 -8 -7
-49 -9 -90 -3 -41 -9 -89 -15 -106 -5 -18 -9 -36 -7 -40 1 -5 -3 -18 -9 -30
-7 -11 -17 -61 -23 -110 -7 -49 -18 -103 -26 -121 -8 -17 -14 -45 -14 -62 0
-17 -4 -31 -10 -31 -5 0 -10 -13 -10 -28 0 -15 -5 -33 -12 -40 -7 -7 -11 -29
-10 -51 2 -24 -3 -45 -12 -54 -11 -10 -13 -26 -9 -51 5 -30 3 -36 -12 -36 -14
0 -16 -6 -13 -30 4 -24 1 -30 -14 -30 -19 0 -24 15 -8 25 14 9 12 37 -2 32 -7
-2 -20 8 -29 23 -13 21 -15 37 -8 71 12 62 11 69 -6 69 -9 0 -16 -10 -16 -27
-2 -25 -2 -25 -6 -5 -5 27 14 55 34 48 7 -3 13 1 13 8 0 8 -7 16 -15 20 -19 7
-19 30 0 46 8 7 15 23 15 37 0 13 6 26 13 29 8 3 12 21 11 47 0 23 4 48 9 54
5 7 6 20 3 29 -3 8 1 48 9 87 19 92 19 107 -2 107 -14 0 -13 3 5 22 13 14 23
43 28 76 3 29 11 55 15 58 16 9 10 42 -8 47 -17 4 -17 5 0 6 16 1 21 11 18 38
-1 6 3 14 9 18 5 3 10 14 9 23 0 11 -2 12 -6 4 -2 -6 -9 -10 -14 -6 -5 3 0 19
12 35 13 18 18 36 14 47 -6 15 -8 15 -14 -3 -7 -17 -9 -16 -15 9 -4 17 -3 33
3 39 8 8 11 7 11 -1 0 -7 5 -12 10 -12 17 0 12 77 -6 84 -13 5 -15 14 -9 44 4
20 12 40 18 44 9 6 8 10 -2 17 -10 7 -14 33 -13 102 0 113 3 129 11 69 4 -25
6 60 4 189 -2 246 -19 345 -22 130 -1 -67 -3 -125 -6 -128 -2 -4 -5 -37 -6
-74 -1 -37 -7 -67 -12 -67 -5 0 -7 14 -3 33 9 45 20 443 11 436 -7 -8 -12 -71
-20 -274 -3 -82 -12 -217 -20 -300 -8 -82 -17 -195 -21 -250 -4 -55 -8 -103
-10 -106 -4 -7 -10 -48 -18 -114 -10 -86 -71 -469 -82 -518 -4 -16 -2 -27 4
-27 6 0 13 18 16 40 3 22 9 58 12 80 3 22 9 40 13 40 5 0 2 -37 -5 -82 -7 -45
-11 -84 -9 -86 2 -2 -1 -16 -6 -30 -7 -18 -6 -28 3 -34 10 -6 10 -8 1 -8 -7 0
-13 -8 -13 -17 0 -31 -24 -123 -32 -123 -5 0 -8 8 -8 18 0 14 -2 15 -10 2 -15
-23 -12 -43 5 -37 16 7 29 -6 17 -17 -4 -4 -8 -19 -9 -34 -1 -15 -8 -53 -16
-85 -15 -58 -15 -58 9 -67 38 -15 28 -22 -21 -14 -40 5 -45 4 -45 -12 0 -11
-3 -30 -6 -44 -5 -18 -4 -22 5 -15 6 6 12 23 13 38 2 27 18 39 18 14 0 -27
-31 -117 -41 -117 -5 0 -8 10 -6 23 2 12 2 16 0 9 -3 -7 -8 -10 -13 -7 -4 3
-7 -3 -5 -12 2 -10 4 -22 4 -26 1 -5 5 -6 10 -3 4 3 3 -15 -2 -39 -6 -26 -16
-45 -24 -45 -7 0 -13 5 -13 11 0 5 5 7 10 4 6 -3 10 0 10 8 0 7 -7 14 -15 14
-8 0 -15 -4 -15 -8 0 -4 -3 -14 -6 -23 -5 -13 3 -16 51 -16 31 0 54 4 51 9
-13 21 7 41 40 41 31 0 34 -2 25 -19 -6 -10 -7 -21 -4 -25 3 -3 102 -6 220 -6
l213 0 0 48 c0 47 1 47 63 88 34 22 97 58 139 78 102 48 123 78 122 166 -4
184 -2 552 2 600 3 30 6 71 8 90 1 19 6 64 9 100 12 121 19 205 23 280 2 41 7
120 12 175 5 55 10 194 11 309 1 115 4 212 5 215 8 14 21 226 21 346 0 140
-13 384 -22 398 -3 5 -7 26 -9 48 -3 30 0 39 12 39 10 0 14 6 10 18 -2 9 -7
58 -10 107 l-5 90 14 -95 c17 -122 19 -201 4 -180 -9 12 -10 12 -5 -3 3 -10 6
-26 6 -35 1 -9 7 1 15 23 15 41 12 96 -25 375 -15 112 -61 290 -73 283 -19
-11 -1 20 76 134 41 62 78 126 82 142 3 17 11 29 17 28 5 -1 33 41 61 94 29
53 73 128 100 167 26 40 47 74 47 76 0 3 10 16 23 30 23 24 57 124 57 165 0
12 -9 23 -22 27 -13 4 -26 12 -30 18 -12 17 -10 -13 3 -49 9 -23 9 -43 1 -71
-8 -34 -10 -35 -11 -11 -1 28 -21 39 -21 12 0 -9 -8 -19 -17 -22 -10 -4 -29
-17 -43 -30 -14 -13 -34 -24 -45 -24 -47 -3 -111 4 -148 17 -22 8 -51 14 -66
14 -15 0 -36 7 -48 15 -12 8 -24 12 -26 8 -5 -9 -2 -49 7 -107 l7 -39 -41 7
c-27 4 -40 3 -40 -5 0 -6 -7 -9 -15 -5 -8 3 -28 0 -43 -6 l-27 -11 30 -7 c30
-8 30 -8 -7 -9 -21 0 -38 -5 -38 -9 0 -4 -9 -8 -20 -8 -13 0 -19 5 -16 13 3 7
0 13 -8 13 -7 0 -44 33 -83 73 -56 59 -67 75 -57 85 7 7 20 12 28 12 10 0 13
6 9 17 -4 11 -3 14 5 9 14 -9 66 40 57 54 -3 6 5 10 19 10 14 0 27 4 30 9 4 5
-4 7 -16 5 -13 -2 -17 -2 -10 2 18 8 15 27 -4 20 -14 -5 -15 3 -9 71 4 43 9
80 11 82 2 2 11 -2 20 -9 12 -11 15 -28 12 -79 l-3 -64 54 -14 c30 -8 65 -12
78 -9 19 5 21 11 17 35 -6 27 -4 28 38 35 76 12 83 12 96 -6 7 -9 29 -18 50
-20 26 -2 38 -8 40 -20 2 -11 -3 -18 -13 -18 -13 0 -14 -4 -5 -20 6 -11 14
-19 18 -18 4 1 16 -3 27 -8 36 -20 75 -26 76 -12 0 7 2 24 5 37 2 13 -1 30 -7
37 -6 8 -8 14 -4 14 5 0 -5 11 -21 25 -27 24 -28 27 -11 39 9 7 17 17 17 21 0
4 -7 2 -15 -5 -17 -14 -50 -6 -40 10 3 5 16 10 28 11 21 0 21 1 2 8 -12 5 -23
4 -28 -3 -5 -8 -12 -5 -21 7 -8 10 -31 23 -51 28 -34 10 -37 13 -31 39 3 19 1
32 -8 37 -16 10 -28 43 -15 43 22 0 98 -46 174 -104 170 -132 234 -162 236
-113 2 43 -3 72 -18 98 -17 28 -88 74 -173 110 -30 13 -63 32 -73 42 -17 17
-17 22 -6 43 12 24 49 34 49 13 0 -5 5 -7 11 -3 22 13 57 -18 69 -63 7 -24 21
-48 31 -54 30 -16 44 24 44 126 0 89 0 91 -58 208 -31 64 -61 117 -66 117 -16
0 -53 70 -47 87 4 8 2 21 -2 27 -10 12 -40 118 -47 163 -3 16 -14 75 -25 133
-11 58 -24 126 -29 152 -4 26 -13 53 -19 61 -7 8 -13 78 -15 188 -3 145 -7
186 -26 248 -48 157 -161 311 -238 327 -34 6 -42 18 -20 28 6 3 0 4 -15 1 -21
-4 -28 -1 -28 10 0 8 -9 24 -19 34 -11 11 -17 22 -14 25 3 3 -3 9 -13 13 -10
3 -28 17 -39 30 -11 13 -28 23 -37 23 -28 0 -48 11 -48 27 0 11 -7 14 -25 11
-13 -3 -22 -1 -19 3 5 9 -12 17 -65 34 -22 7 -23 5 -17 -16 3 -13 9 -35 12
-49 l6 -25 -14 25 c-8 14 -31 57 -52 97 -45 85 -73 106 -46 35 9 -26 20 -60
24 -77 7 -28 6 -29 -7 -11 -14 19 -15 19 -22 -3 -4 -12 -4 -25 -1 -28 3 -4 6
0 6 8 0 8 6 2 14 -13 12 -23 12 -33 0 -70 l-14 -43 5 43 c3 25 1 42 -5 42 -5
0 -10 -8 -10 -18 0 -10 -3 -22 -7 -25 -9 -10 -35 45 -30 65 3 10 1 18 -4 18
-5 0 -9 6 -9 14 0 21 -62 180 -72 184 -4 2 -8 10 -8 17 0 7 -5 15 -12 17 -14
5 13 44 105 153 37 44 72 85 77 92 6 7 10 21 10 33 0 11 4 20 8 20 12 0 29 40
38 87 6 35 6 37 -9 24 -14 -11 -17 -11 -17 0 0 7 25 36 55 64 30 29 55 55 55
58 0 4 -10 7 -23 7 -15 0 -23 6 -24 20 -1 11 2 22 8 25 5 4 9 15 9 26 0 10 5
19 11 19 5 0 8 4 5 8 -4 7 19 38 83 107 41 46 64 89 66 128 2 23 11 88 20 144
16 95 16 104 1 135 -12 22 -15 45 -11 69 4 22 2 40 -4 44 -6 3 -11 22 -11 41
0 43 -29 134 -42 134 -6 0 -8 -6 -5 -12 2 -7 1 -22 -3 -33 -7 -19 -12 16 -13
98 0 26 -2 27 -53 27 -50 0 -53 -1 -57 -27 l-4 -28 -2 28 -1 27 -105 0 c-123
0 -119 5 -85 -121 11 -41 20 -94 20 -118 0 -37 -2 -42 -15 -31 -8 7 -15 20
-15 29 0 9 -5 23 -11 31 -8 11 -9 4 -6 -27 3 -24 1 -43 -3 -43 -12 0 -18 84
-7 91 5 4 7 12 3 18 -4 7 -1 9 8 5 15 -6 15 -8 0 109 l-7 57 -45 0 c-44 0 -44
0 -38 -30 3 -18 2 -29 -3 -25 -5 3 -11 -1 -14 -7 -2 -7 -7 4 -11 25 -4 24 -12
37 -23 37 -11 0 -13 -5 -7 -17 5 -10 9 -41 9 -70 0 -28 3 -46 8 -40 14 22 39
-38 54 -128 6 -37 5 -38 -10 -24 -9 9 -25 32 -35 50 -11 19 -25 33 -32 31 -6
-1 -14 7 -17 18 -3 11 -9 20 -13 20 -10 0 -42 102 -35 109 10 9 19 -10 24 -49
1 -3 9 -6 19 -7 25 -2 29 75 4 93 -25 20 -112 18 -112 -2z m185 -74 c3 -5 1
-10 -4 -10 -6 0 -11 5 -11 10 0 6 2 10 4 10 3 0 8 -4 11 -10z m164 -52 c10
-30 9 -31 -4 -14 -8 11 -15 26 -15 33 0 22 8 14 19 -19z m306 -439 c10 -42 2
-45 -11 -3 -6 19 -8 34 -3 34 4 0 10 -14 14 -31z m-140 -1298 c-6 -5 -25 47
-25 67 1 9 7 -1 15 -23 8 -21 12 -41 10 -44z m-695 -21 c0 -5 -4 -10 -10 -10
-5 0 -10 5 -10 10 0 6 5 10 10 10 6 0 10 -4 10 -10z m57 4 c-3 -3 -12 -4 -19
-1 -8 3 -5 6 6 6 11 1 17 -2 13 -5z m353 -5 c-3 -3 10 -19 28 -34 19 -15 31
-34 28 -41 -3 -8 1 -14 9 -14 9 0 15 10 16 23 l0 22 16 -22 c19 -28 37 -30 28
-3 -3 11 -2 20 3 20 6 0 15 14 21 30 9 27 12 29 34 19 20 -9 23 -18 25 -71 1
-34 5 -70 8 -82 7 -20 7 -20 15 2 6 14 5 31 -1 43 -8 13 -7 19 1 19 6 0 13 -9
16 -20 3 -11 8 -18 12 -15 4 2 15 -9 25 -26 15 -26 7 -44 -9 -19 -3 6 -10 10
-16 10 -5 0 -9 -4 -9 -10 0 -5 7 -10 15 -10 8 0 15 -5 15 -11 0 -5 4 -8 10 -4
11 7 43 -52 35 -65 -3 -6 0 -10 8 -10 25 0 27 28 5 77 -11 26 -21 60 -20 76 0
15 -6 43 -14 62 -8 19 -14 42 -14 52 1 10 11 -12 25 -49 13 -37 40 -102 59
-144 36 -77 39 -114 10 -114 -9 0 -21 -6 -28 -12 -7 -7 -25 -22 -40 -33 -16
-11 -35 -26 -42 -33 -8 -8 -21 -11 -29 -8 -18 7 -20 -15 -2 -33 10 -11 8 -13
-10 -9 -19 5 -20 3 -11 -23 17 -50 85 -106 206 -170 23 -12 39 -25 35 -28 -5
-3 -9 -33 -10 -66 l-2 -60 19 70 19 70 -24 18 c-14 10 -23 23 -19 28 3 5 2 9
-3 10 -50 4 -72 12 -91 35 -13 14 -26 24 -29 20 -7 -7 -73 61 -73 75 0 16 10
11 99 -48 47 -31 106 -67 132 -79 72 -37 75 -43 56 -127 -10 -40 -19 -83 -23
-96 -3 -14 -13 -56 -24 -95 -10 -39 -26 -111 -35 -161 -9 -49 -25 -126 -35
-170 -10 -44 -37 -168 -60 -275 -22 -107 -45 -208 -49 -225 -14 -48 -50 -146
-73 -200 -11 -27 -24 -59 -29 -70 -4 -11 -21 -50 -38 -87 -17 -36 -33 -78 -37
-92 -3 -15 -10 -29 -15 -32 -5 -3 -9 -12 -9 -20 0 -9 -11 -30 -25 -48 -14 -18
-22 -36 -18 -40 4 -4 3 -10 -2 -14 -22 -16 -92 -178 -82 -189 2 -1 27 4 57 12
68 18 189 77 231 112 35 29 111 46 130 29 8 -8 13 -8 16 1 5 14 33 6 33 -10 0
-6 7 -19 17 -29 23 -25 4 -68 -31 -68 -14 0 -27 -4 -31 -10 -3 -5 -12 -7 -19
-4 -7 3 -20 -2 -28 -10 -8 -8 -42 -17 -75 -20 -33 -3 -80 -15 -104 -26 -24
-11 -52 -20 -63 -20 -10 0 -35 -17 -55 -39 -34 -36 -45 -41 -131 -55 -56 -9
-55 -12 -53 421 1 219 6 486 12 593 21 372 41 946 41 1194 0 137 4 276 10 310
5 33 12 83 16 109 5 42 8 48 27 45 12 -2 20 -6 17 -9z m-380 -23 c0 -3 -4 -8
-10 -11 -5 -3 -10 -1 -10 4 0 6 5 11 10 11 6 0 10 -2 10 -4z m1047 -353 c-3
-10 -5 -4 -5 12 0 17 2 24 5 18 2 -7 2 -21 0 -30z m-20 -225 c-3 -8 -6 -5 -6
6 -1 11 2 17 5 13 3 -3 4 -12 1 -19z m160 -1244 c-3 -3 -12 -4 -19 -1 -8 3 -5
6 6 6 11 1 17 -2 13 -5z m213 -318 c0 -3 -4 -8 -10 -11 -5 -3 -10 -1 -10 4 0
6 5 11 10 11 6 0 10 -2 10 -4z m-556 -402 c7 -19 -36 -71 -69 -83 -17 -6 -44
-11 -59 -11 -31 0 -164 -42 -216 -69 -19 -9 -34 -22 -33 -29 2 -6 -16 -17 -38
-23 -32 -10 -50 -10 -87 0 -56 15 -72 27 -72 55 0 29 19 47 39 37 29 -15 185
16 293 58 57 23 115 41 129 41 13 0 29 8 36 19 13 20 70 24 77 5z m-134 -373
c0 -12 -20 -25 -27 -18 -7 7 6 27 18 27 5 0 9 -4 9 -9z m487 -353 c-3 -7 -5
-2 -5 12 0 14 2 19 5 13 2 -7 2 -19 0 -25z m-45 -13 c3 -13 1 -22 -3 -19 -9 5
-13 44 -5 44 2 0 6 -11 8 -25z m15 -107 c-3 -7 -5 -2 -5 12 0 14 2 19 5 13 2
-7 2 -19 0 -25z m36 -141 c-7 -11 -23 12 -23 33 1 12 4 11 15 -4 8 -10 12 -23
8 -29z m-646 -1224 c-3 -10 -5 -4 -5 12 0 17 2 24 5 18 2 -7 2 -21 0 -30z m-6
-111 c-4 -67 -11 -66 -11 3 0 32 3 55 7 51 4 -4 6 -28 4 -54z m-14 -104 c-3
-8 -6 -5 -6 6 -1 11 2 17 5 13 3 -3 4 -12 1 -19z m-24 -268 c-13 -129 -29
-239 -34 -244 -5 -6 -8 8 -7 35 2 24 6 46 9 49 4 3 14 88 24 190 9 102 19 191
21 199 13 41 10 -17 -13 -229z m54 198 c-3 -8 -6 -5 -6 6 -1 11 2 17 5 13 3
-3 4 -12 1 -19z m-605 -188 c-2 -7 3 -17 10 -21 17 -10 3 -23 -17 -16 -8 4
-15 18 -15 33 0 16 5 24 13 21 6 -2 11 -10 9 -17z m35 -42 c-3 -7 -5 -2 -5 12
0 14 2 19 5 13 2 -7 2 -19 0 -25z m16 -291 l6 -263 -40 -115 c-23 -63 -50
-143 -61 -179 -11 -36 -24 -69 -30 -75 -15 -15 3 400 32 740 6 61 10 120 10
133 0 19 5 22 38 22 l39 0 6 -263z m466 56 c0 -5 -4 -17 -9 -28 -8 -18 -9 -17
-9 8 -1 15 4 27 9 27 6 0 10 -3 9 -7z m-24 -103 c-4 -17 -9 -29 -12 -26 -3 2
-2 19 2 36 4 17 9 29 12 26 3 -2 2 -19 -2 -36z m49 14 c3 -8 2 -12 -4 -9 -6 3
-10 10 -10 16 0 14 7 11 14 -7z m-78 -556 c-3 -13 -6 -34 -7 -48 -1 -25 -1
-25 -11 4 -8 21 -7 30 2 36 7 4 9 13 6 19 -4 6 -2 11 5 11 7 0 9 -9 5 -22z
m34 -57 c0 -5 -7 -14 -15 -21 -8 -7 -15 -19 -15 -26 0 -8 -4 -14 -10 -14 -5 0
-10 4 -10 9 0 6 5 13 10 16 6 3 10 15 10 26 0 10 7 19 15 19 8 0 15 -4 15 -9z
m10 -38 c0 -10 -20 -40 -20 -31 0 3 -3 13 -6 22 -4 11 -1 16 10 16 9 0 16 -3
16 -7z m-43 -59 c-3 -3 -12 -4 -19 -1 -8 3 -5 6 6 6 11 1 17 -2 13 -5z m23
-27 c0 -7 -6 -19 -12 -25 -10 -10 -10 -17 1 -33 9 -15 10 -24 2 -32 -6 -6 -11
-21 -11 -34 0 -24 -14 -31 -25 -12 -4 6 -14 8 -22 5 -10 -4 -13 0 -11 11 2 9
14 20 28 23 14 3 26 13 28 22 2 12 -2 15 -17 11 -12 -3 -21 -9 -21 -14 0 -5
-4 -9 -10 -9 -5 0 -10 9 -10 20 0 14 7 20 24 20 18 0 25 7 30 30 5 29 26 43
26 17z"/>
<path d="M3441 6324 c0 -11 3 -14 6 -6 3 7 2 16 -1 19 -3 4 -6 -2 -5 -13z"/>
<path d="M3430 6245 c-7 -8 -8 -15 -2 -15 5 0 15 7 22 15 7 8 8 15 2 15 -5 0
-15 -7 -22 -15z"/>
<path d="M3382 6200 c-13 -12 -22 -16 -22 -9 0 7 -3 10 -6 6 -3 -3 -2 -12 3
-19 6 -12 14 -9 37 14 33 32 22 39 -12 8z"/>
<path d="M3386 6011 c-4 -5 -2 -12 3 -15 5 -4 12 -2 15 3 4 5 2 12 -3 15 -5 4
-12 2 -15 -3z"/>
<path d="M3448 5833 c7 -3 16 -2 19 1 4 3 -2 6 -13 5 -11 0 -14 -3 -6 -6z"/>
<path d="M3572 5650 c0 -14 2 -19 5 -12 2 6 2 18 0 25 -3 6 -5 1 -5 -13z"/>
<path d="M3561 5584 c0 -11 3 -14 6 -6 3 7 2 16 -1 19 -3 4 -6 -2 -5 -13z"/>
<path d="M3547 5534 c-4 -4 -7 -17 -7 -28 1 -19 1 -20 11 -3 11 19 8 43 -4 31z"/>
<path d="M3281 5454 c0 -11 3 -14 6 -6 3 7 2 16 -1 19 -3 4 -6 -2 -5 -13z"/>
<path d="M3530 5460 c-1 -3 -4 -16 -5 -30 -10 -107 -58 -296 -74 -292 -15 3
-14 -15 1 -20 8 -3 7 -19 -7 -59 -10 -30 -19 -61 -20 -69 -3 -18 0 -8 -59
-188 -26 -79 -45 -146 -42 -149 3 -3 8 0 11 8 54 150 81 234 105 327 17 63 32
117 34 120 10 17 67 324 63 339 -3 10 -6 16 -7 13z"/>
<path d="M3451 5264 c0 -11 3 -14 6 -6 3 7 2 16 -1 19 -3 4 -6 -2 -5 -13z"/>
<path d="M3260 5190 c0 -5 7 -10 16 -10 8 0 12 5 9 10 -3 6 -10 10 -16 10 -5
0 -9 -4 -9 -10z"/>
<path d="M3290 5160 c0 -5 5 -10 10 -10 6 0 10 5 10 10 0 6 -4 10 -10 10 -5 0
-10 -4 -10 -10z"/>
<path d="M3375 5160 c-3 -5 -1 -10 4 -10 6 0 11 5 11 10 0 6 -2 10 -4 10 -3 0
-8 -4 -11 -10z"/>
<path d="M3265 5150 c-3 -5 -1 -10 4 -10 6 0 11 5 11 10 0 6 -2 10 -4 10 -3 0
-8 -4 -11 -10z"/>
<path d="M3347 5120 c3 -11 7 -20 9 -20 2 0 4 9 4 20 0 11 -4 20 -9 20 -5 0
-7 -9 -4 -20z"/>
<path d="M3280 5120 c0 -5 7 -10 15 -10 8 0 15 5 15 10 0 6 -7 10 -15 10 -8 0
-15 -4 -15 -10z"/>
<path d="M3200 4984 c0 -8 5 -12 10 -9 6 4 8 11 5 16 -9 14 -15 11 -15 -7z"/>
<path d="M3306 4613 c-6 -14 -5 -15 5 -6 7 7 10 15 7 18 -3 3 -9 -2 -12 -12z"/>
<path d="M2880 8365 c0 -5 5 -17 10 -25 5 -8 10 -10 10 -5 0 6 -5 17 -10 25
-5 8 -10 11 -10 5z"/>
<path d="M2501 8334 c0 -11 3 -14 6 -6 3 7 2 16 -1 19 -3 4 -6 -2 -5 -13z"/>
<path d="M3040 8303 c0 -15 18 -35 23 -27 3 5 -1 15 -9 22 -8 7 -14 9 -14 5z"/>
<path d="M2805 8220 c-3 -5 -2 -10 3 -10 6 0 12 -10 15 -22 4 -13 13 -32 21
-43 14 -18 14 -15 1 30 -8 28 -15 51 -15 53 0 6 -20 1 -25 -8z"/>
<path d="M2670 8163 c0 -5 4 -15 10 -23 11 -18 25 -7 17 15 -6 15 -27 21 -27
8z"/>
<path d="M2362 7920 c0 -19 2 -27 5 -17 2 9 2 25 0 35 -3 9 -5 1 -5 -18z"/>
<path d="M2424 7456 c-3 -14 -3 -29 0 -34 3 -5 -1 -15 -9 -22 -20 -16 -20 -41
0 -34 8 4 15 1 15 -5 0 -6 5 -11 10 -11 6 0 10 28 10 65 0 65 -14 87 -26 41z"/>
<path d="M3082 7220 c0 -14 2 -19 5 -12 2 6 2 18 0 25 -3 6 -5 1 -5 -13z"/>
<path d="M1998 7039 c-9 -16 -14 -29 -9 -29 8 0 34 50 29 56 -2 1 -11 -11 -20
-27z"/>
<path d="M1907 6865 c-9 -13 -13 -26 -8 -29 4 -3 13 6 20 21 15 34 10 37 -12
8z"/>
<path d="M1850 6770 c0 -5 18 -19 40 -30 48 -24 54 -8 8 20 -37 22 -48 25 -48
10z"/>
<path d="M1860 6719 c0 -5 5 -7 10 -4 6 3 10 8 10 11 0 2 -4 4 -10 4 -5 0 -10
-5 -10 -11z"/>
<path d="M1820 6670 c0 -5 5 -10 11 -10 5 0 7 5 4 10 -3 6 -8 10 -11 10 -2 0
-4 -4 -4 -10z"/>
<path d="M1809 6600 c-13 -10 -18 -19 -11 -20 6 0 12 5 12 10 0 6 12 10 26 10
14 0 23 4 19 10 -9 15 -20 12 -46 -10z"/>
<path d="M1750 6501 c-32 -9 -36 -32 -9 -57 22 -19 22 -19 15 3 -6 18 -1 26
26 43 35 21 21 26 -32 11z"/>
<path d="M1766 6390 c3 -14 10 -29 15 -34 14 -16 10 6 -7 34 l-15 25 7 -25z"/>
<path d="M1190 6359 c-8 -30 -8 -44 1 -55 8 -10 8 -14 0 -14 -6 0 -11 -11 -11
-25 0 -33 -31 -95 -47 -95 -7 0 -13 5 -13 12 0 6 -3 9 -6 6 -3 -4 0 -16 7 -29
10 -19 15 -72 9 -89 -1 -3 -4 -18 -6 -35 -3 -16 -9 -34 -15 -39 -5 -6 -9 -20
-9 -32 0 -12 -7 -24 -15 -28 -8 -3 -15 -13 -15 -22 0 -9 -13 -40 -29 -68 -16
-28 -32 -67 -36 -86 -4 -19 -11 -39 -15 -45 -4 -5 -6 -21 -5 -35 1 -14 -1 -29
-5 -35 -4 -5 -10 -32 -14 -60 -3 -27 -10 -65 -15 -82 -6 -21 -6 -35 0 -39 12
-7 4 -142 -11 -194 -5 -19 -10 -52 -10 -72 0 -20 -5 -40 -11 -44 -6 -3 -9 -15
-6 -25 3 -11 1 -19 -4 -19 -5 0 -9 -15 -9 -33 0 -18 -5 -38 -11 -44 -20 -20
-27 -172 -8 -183 7 -5 5 -9 -5 -13 -17 -7 -22 -37 -6 -37 17 0 11 -21 -12 -40
-13 -10 -23 -24 -23 -32 -2 -52 -19 -107 -34 -111 -15 -4 -15 -5 0 -6 14 -1
16 -9 11 -48 -3 -27 -9 -49 -13 -51 -5 -2 -6 -15 -3 -29 4 -14 2 -28 -4 -32
-5 -3 -11 -24 -13 -46 -1 -22 -7 -46 -12 -52 -5 -7 -6 -24 -3 -37 3 -13 2 -26
-2 -28 -8 -3 -26 -59 -62 -190 -18 -63 -40 -123 -81 -215 -11 -24 -19 -51 -19
-60 0 -10 -7 -31 -15 -47 -8 -15 -15 -33 -15 -40 0 -6 -11 -33 -25 -61 -13
-27 -25 -61 -25 -75 0 -14 -9 -44 -20 -65 -11 -22 -21 -60 -22 -85 -1 -25 -8
-51 -15 -58 -7 -8 -11 -18 -8 -23 8 -12 -2 -11 -57 6 -27 8 -48 10 -48 6 0 -4
27 -33 61 -63 60 -55 60 -56 46 -85 -8 -17 -11 -37 -6 -53 15 -51 10 -115 -10
-132 -10 -8 -21 -22 -23 -29 -2 -7 -11 -10 -21 -6 -9 3 -14 13 -11 21 3 8 1
40 -5 73 -10 49 -9 60 4 69 16 12 19 28 17 87 -2 29 -6 37 -20 37 -20 0 -62
-73 -62 -108 0 -11 -9 -42 -21 -69 -18 -42 -20 -61 -16 -150 3 -56 9 -108 13
-115 24 -40 72 -88 88 -88 11 0 16 -3 13 -7 -4 -3 1 -15 10 -26 10 -10 16 -22
13 -26 -3 -3 5 -7 17 -9 25 -4 30 16 13 47 -8 16 -5 20 20 25 17 3 43 3 59 0
20 -4 30 -1 34 10 9 22 -39 56 -78 56 -18 0 -38 7 -45 15 -7 8 -30 25 -51 37
-39 21 -57 48 -20 28 27 -14 28 -13 27 12 -1 32 30 36 36 4 4 -17 0 -26 -11
-29 -36 -9 45 -27 108 -25 60 3 66 5 69 25 4 24 -11 30 -81 35 -20 2 -37 8
-37 13 0 6 6 10 13 10 6 0 18 4 25 9 11 6 9 13 -6 30 -18 18 -19 28 -11 76 4
30 15 77 23 105 8 27 19 68 23 90 l9 40 86 0 c56 0 91 4 100 13 15 15 89 209
166 437 42 124 64 180 117 288 49 102 98 240 138 387 9 30 20 129 27 220 6 91
17 251 25 355 8 105 16 268 18 363 5 163 4 172 -14 172 -19 0 -26 14 -11 23 4
2 1 2 -6 1 -7 -2 -22 6 -33 17 -17 17 -18 23 -8 36 20 24 23 63 4 63 -8 0 -15
9 -15 21 0 11 4 18 9 15 4 -3 6 6 3 19 -2 14 -8 22 -13 19 -5 -3 -9 -1 -9 4 0
5 9 12 20 15 11 3 20 10 20 17 0 6 -5 8 -12 4 -6 -4 -3 4 8 18 17 23 19 24 22
8 2 -12 9 -17 18 -13 8 3 14 -1 14 -11 0 -9 5 -16 10 -16 6 0 10 -16 10 -37 0
-58 8 -34 20 59 15 125 16 306 0 352 -10 32 -10 40 1 47 10 6 8 9 -10 9 -18 0
-21 3 -13 13 17 20 10 59 -11 65 -14 3 -17 11 -13 28 7 25 -8 34 -17 12 -4
-10 -6 -10 -6 -1 -1 6 4 15 9 18 13 8 13 45 0 45 -5 0 -14 -18 -20 -41z m13
-464 c4 -8 2 -17 -3 -20 -6 -4 -10 3 -10 14 0 25 6 27 13 6z m14 -467 c-2 -13
-4 -3 -4 22 0 25 2 35 4 23 2 -13 2 -33 0 -45z m-710 -2634 c-3 -3 -12 -4 -19
-1 -8 3 -5 6 6 6 11 1 17 -2 13 -5z"/>
<path d="M1806 6303 c8 -21 23 -55 31 -76 9 -21 17 -36 19 -35 8 9 -50 148
-61 148 -3 0 2 -17 11 -37z"/>
<path d="M1884 6115 c4 -16 12 -34 17 -40 7 -7 8 0 3 20 -3 17 -11 35 -17 40
-6 7 -7 0 -3 -20z"/>
<path d="M1917 6039 c4 -13 8 -18 11 -10 2 7 -1 18 -6 23 -8 8 -9 4 -5 -13z"/>
<path d="M1950 5960 c0 -8 5 -22 10 -30 9 -13 10 -13 10 0 0 8 -5 22 -10 30
-9 13 -10 13 -10 0z"/>
<path d="M1981 5875 c0 -5 6 -19 14 -29 8 -11 15 -15 15 -10 0 6 -7 19 -15 30
-8 10 -14 15 -14 9z"/>
<path d="M2010 5806 c0 -9 5 -16 10 -16 6 0 10 4 10 9 0 6 -4 13 -10 16 -5 3
-10 -1 -10 -9z"/>
<path d="M2080 5655 c0 -5 5 -17 10 -25 5 -8 10 -10 10 -5 0 6 -5 17 -10 25
-5 8 -10 11 -10 5z"/>
<path d="M2230 5325 c0 -5 5 -17 10 -25 5 -8 10 -10 10 -5 0 6 -5 17 -10 25
-5 8 -10 11 -10 5z"/>
<path d="M2160 5261 c0 -5 7 -17 16 -25 14 -15 11 -20 -9 -17 -4 1 -7 -4 -6
-11 3 -29 -2 -49 -11 -43 -5 3 -10 1 -10 -4 0 -6 12 -12 28 -12 16 -1 20 -3
10 -6 -10 -2 -18 -13 -18 -24 0 -10 -6 -19 -12 -19 -9 0 -10 -3 -2 -8 6 -4 14
-24 18 -44 5 -29 12 -38 26 -38 11 0 20 -5 20 -11 0 -6 -9 -9 -20 -6 -15 4
-20 0 -20 -15 0 -14 -5 -18 -15 -14 -8 3 -15 1 -15 -4 0 -6 4 -10 9 -10 5 0
17 -3 27 -7 13 -5 16 -3 11 10 -8 20 4 29 23 16 10 -6 11 -12 5 -16 -11 -9
-12 -35 -1 -77 5 -22 3 -26 -14 -26 -24 0 -26 -15 -5 -28 13 -6 14 -14 6 -35
-7 -17 -7 -28 -1 -32 6 -4 13 8 16 25 8 36 27 53 23 19 -2 -13 0 -30 4 -36 5
-8 3 -13 -5 -13 -7 0 -19 -4 -26 -9 -12 -7 -12 -12 -1 -30 17 -25 31 -28 22
-3 -3 9 -3 14 1 11 4 -4 9 -19 12 -35 3 -22 2 -25 -6 -14 -7 11 -8 3 -4 -29 5
-32 4 -42 -4 -37 -17 10 -14 -15 3 -38 8 -11 15 -25 15 -30 0 -6 -5 -4 -10 4
-8 12 -10 9 -10 -12 0 -42 18 -81 35 -74 8 3 15 1 15 -4 0 -6 -9 -10 -21 -10
-15 0 -19 -5 -15 -16 3 -8 2 -12 -4 -9 -6 3 -10 1 -10 -4 0 -6 5 -11 11 -11 6
0 8 -9 4 -22 -6 -19 -5 -21 6 -10 7 6 15 12 18 12 11 0 5 -55 -9 -82 -10 -21
-10 -31 -1 -42 7 -8 9 -25 5 -41 -5 -21 -3 -27 15 -32 22 -6 27 -18 11 -28
-15 -9 -12 -25 4 -25 8 0 18 -9 21 -21 8 -23 31 -20 29 5 -1 9 1 16 5 16 4 0
6 20 5 45 -2 38 0 45 14 43 11 -2 17 3 16 15 -1 9 3 17 8 17 6 0 8 7 4 15 -3
8 -1 15 5 15 5 0 7 10 5 23 -3 12 -7 40 -11 62 -5 38 -5 39 10 20 10 -13 18
-16 23 -9 4 6 14 14 22 17 9 3 4 6 -12 6 -15 1 -29 5 -32 9 -10 17 -14 62 -6
67 5 3 7 12 3 20 -3 8 0 15 6 15 7 0 9 9 5 25 -5 19 -2 25 10 25 10 0 13 6 10
15 -4 9 0 15 7 15 10 1 9 4 -3 14 -14 10 -15 15 -5 25 9 10 9 12 -3 9 -12 -2
-15 8 -15 45 0 31 -4 47 -12 47 -7 0 -13 5 -13 10 0 6 9 10 19 10 18 0 19 3
10 30 -6 16 -15 27 -20 24 -5 -3 -6 1 -3 9 5 15 -69 171 -87 182 -5 4 -7 10
-5 13 2 4 -4 19 -15 32 -15 20 -19 22 -19 8 0 -10 -5 -18 -11 -18 -6 0 -9 7
-6 14 4 9 -2 17 -15 21 -14 5 -17 10 -9 18 7 7 15 6 26 -3 23 -19 19 -8 -30
95 -40 83 -65 116 -65 86z m90 -256 c0 -8 -2 -15 -4 -15 -2 0 -6 7 -10 15 -3
8 -1 15 4 15 6 0 10 -7 10 -15z m157 -397 c-3 -8 -6 -5 -6 6 -1 11 2 17 5 13
3 -3 4 -12 1 -19z m-117 -57 c0 -6 -4 -13 -10 -16 -5 -3 -10 1 -10 9 0 9 5 16
10 16 6 0 10 -4 10 -9z m-30 -51 c0 -5 -4 -10 -10 -10 -5 0 -10 5 -10 10 0 6
5 10 10 10 6 0 10 -4 10 -10z m132 -185 c3 -14 1 -25 -3 -25 -5 0 -9 11 -9 25
0 14 2 25 4 25 2 0 6 -11 8 -25z m-52 -119 c0 -3 -4 -8 -10 -11 -5 -3 -10 -1
-10 4 0 6 5 11 10 11 6 0 10 -2 10 -4z"/>
<path d="M2141 5234 c0 -11 3 -14 6 -6 3 7 2 16 -1 19 -3 4 -6 -2 -5 -13z"/>
<path d="M2320 5121 c0 -6 4 -13 10 -16 6 -3 7 1 4 9 -7 18 -14 21 -14 7z"/>
<path d="M2340 5081 c0 -5 5 -13 10 -16 6 -3 10 -2 10 4 0 5 -4 13 -10 16 -5
3 -10 2 -10 -4z"/>
<path d="M2383 5005 c12 -24 23 -41 25 -36 4 12 -24 67 -37 76 -6 3 0 -15 12
-40z"/>
<path d="M2159 4912 c4 -10 6 -23 4 -29 -3 -8 4 -13 18 -13 17 0 20 3 12 11
-6 6 -9 17 -7 24 3 7 -4 15 -15 18 -17 4 -19 2 -12 -11z"/>
<path d="M1655 4870 c3 -5 8 -10 11 -10 2 0 4 5 4 10 0 6 -5 10 -11 10 -5 0
-7 -4 -4 -10z"/>
<path d="M1680 4840 c0 -5 9 -10 21 -10 11 0 17 5 14 10 -3 6 -13 10 -21 10
-8 0 -14 -4 -14 -10z"/>
<path d="M1665 4812 c19 -9 19 -9 -4 -21 -21 -12 -22 -14 -6 -31 15 -16 15
-19 0 -34 -12 -12 -15 -30 -13 -71 3 -43 1 -54 -9 -51 -7 3 -13 -1 -13 -9 0
-9 6 -12 15 -9 9 4 15 0 15 -10 0 -9 -4 -16 -8 -16 -4 0 -7 -42 -7 -92 1 -51
-2 -101 -7 -110 -5 -11 -5 -25 0 -35 13 -25 3 -83 -14 -83 -17 0 -19 -20 -1
-20 6 0 4 -5 -6 -11 -12 -7 -16 -17 -12 -30 4 -11 2 -19 -4 -19 -20 0 -11 -27
12 -39 21 -10 21 -11 1 -6 -18 5 -22 0 -26 -25 -3 -21 0 -30 9 -30 10 0 12 -6
7 -22 -4 -13 -7 -31 -6 -40 0 -9 -7 -19 -16 -21 -15 -4 -15 -5 1 -6 21 -1 21
-4 2 -41 -8 -16 -12 -37 -8 -46 4 -12 3 -15 -6 -10 -9 6 -12 -2 -11 -30 2 -22
0 -46 -3 -54 -9 -20 -4 -53 8 -62 6 -4 2 -8 -7 -8 -19 0 -24 -15 -9 -24 10 -7
3 -45 -12 -64 -8 -10 -7 -16 3 -22 11 -7 11 -13 -3 -34 -23 -34 -24 -128 -2
-120 8 4 15 1 15 -5 0 -6 -7 -11 -15 -11 -8 0 -15 -4 -15 -10 0 -5 8 -7 18 -4
15 5 15 4 -2 -10 -24 -20 -29 -141 -6 -156 10 -7 11 -10 2 -10 -17 0 -4 -81
17 -96 12 -9 13 -15 3 -26 -6 -8 -9 -18 -5 -22 4 -4 1 -11 -7 -17 -13 -7 -13
-10 -1 -18 10 -6 10 -10 1 -16 -6 -4 -9 -13 -6 -21 3 -7 -3 -18 -12 -24 -15
-10 -14 -10 4 -5 18 5 21 2 17 -20 -3 -13 -9 -22 -14 -20 -11 8 2 -69 14 -76
5 -4 3 -9 -4 -12 -11 -4 -11 -7 3 -18 15 -13 15 -19 1 -69 -8 -30 -12 -70 -9
-88 3 -19 1 -30 -5 -27 -5 4 -9 -10 -9 -29 0 -19 5 -38 10 -41 6 -3 10 -12 9
-18 0 -9 -2 -9 -6 1 -2 6 -9 12 -14 12 -14 0 -5 -35 15 -55 12 -13 14 -21 7
-28 -6 -6 -11 -19 -11 -28 0 -9 -9 -19 -19 -22 -24 -6 -18 -44 8 -50 13 -4 13
-5 -2 -6 -10 0 -17 -7 -14 -13 2 -7 17 -12 33 -11 25 1 23 0 -11 -12 -28 -9
-33 -14 -17 -14 12 -1 22 -7 22 -16 0 -9 -6 -12 -15 -9 -18 7 -20 -7 -3 -24 9
-9 10 -15 2 -20 -6 -4 -14 -20 -18 -36 -6 -23 -4 -27 8 -23 19 7 46 -1 46 -14
0 -5 -7 -9 -15 -9 -11 0 -15 -9 -13 -28 1 -15 -1 -33 -6 -40 -5 -8 2 -12 23
-12 17 0 31 5 31 11 0 5 5 7 10 4 18 -11 10 -25 -15 -25 -14 0 -25 -6 -25 -12
0 -9 -4 -8 -10 2 -9 13 -10 13 -10 0 1 -18 29 -54 50 -64 9 -3 5 -4 -7 -2 -13
2 -23 1 -23 -2 -1 -4 -5 -27 -9 -51 -11 -54 -5 -71 21 -71 30 0 16 -24 -18
-31 -16 -4 -23 -8 -16 -9 6 -1 17 -4 22 -5 6 -1 24 -3 40 -4 17 0 30 -5 30 -9
0 -4 -16 -6 -35 -4 -21 3 -35 0 -35 -7 0 -6 5 -11 12 -11 6 0 3 -7 -8 -15 -21
-16 -12 -20 15 -6 10 6 23 6 32 0 11 -7 11 -9 -3 -9 -10 0 -18 -5 -18 -11 0
-5 -4 -7 -10 -4 -18 11 -28 -5 -21 -33 7 -24 12 -27 44 -24 45 3 48 -5 6 -20
-22 -8 -28 -13 -19 -22 8 -8 4 -15 -12 -28 -19 -15 -20 -18 -5 -18 9 0 17 -5
17 -10 0 -6 11 -15 25 -20 20 -8 23 -13 16 -32 -4 -13 -18 -27 -29 -33 -14 -6
-22 -19 -22 -36 0 -30 34 -74 49 -64 16 9 1 -28 -17 -42 -13 -11 -13 -19 -4
-50 14 -47 22 -123 14 -120 -4 1 -7 -3 -7 -8 0 -6 8 -9 18 -8 9 2 17 -4 17
-12 0 -8 -4 -15 -10 -15 -5 0 -10 -7 -10 -15 0 -8 -4 -15 -9 -15 -5 0 -8 -18
-8 -40 2 -48 16 -54 19 -7 0 17 4 3 7 -33 4 -36 3 -67 -2 -69 -13 -5 26 -30
49 -31 25 0 44 18 37 36 -3 9 2 14 16 14 18 0 20 -4 15 -25 -4 -15 -2 -25 5
-25 22 0 11 -20 -11 -21 -13 0 -17 -3 -10 -6 19 -8 14 -23 -8 -23 -11 0 -19
-6 -17 -12 1 -7 -8 -14 -20 -16 -27 -4 -28 -10 -6 -34 15 -17 15 -18 -10 -18
-27 0 -38 -22 -17 -35 5 -3 10 1 10 9 0 9 8 16 19 16 11 0 22 6 24 13 4 9 6 9
6 0 1 -7 11 -13 24 -14 l22 0 -23 -10 c-24 -9 -22 -29 4 -29 19 0 18 -16 -1
-24 -13 -4 -14 -10 -5 -26 7 -14 8 -26 0 -39 -12 -24 -13 -42 -1 -22 16 24 29
3 21 -33 -9 -43 1 -60 31 -52 l24 6 -22 -11 c-19 -10 -20 -14 -9 -23 19 -14
25 -52 9 -49 -15 3 -17 -26 -3 -47 5 -8 10 -12 10 -8 0 4 9 0 20 -9 20 -17 20
-18 -2 -27 l-23 -9 24 -5 c13 -2 28 2 33 10 8 10 11 10 15 0 2 -6 9 -10 14 -6
5 3 9 -10 8 -28 -1 -29 -2 -30 -8 -9 -8 29 -31 40 -31 16 0 -12 -6 -15 -20
-10 -16 5 -20 2 -20 -15 0 -17 3 -19 19 -10 15 8 22 7 29 -5 7 -13 14 -14 35
-6 21 8 27 8 27 -3 0 -16 26 -40 32 -29 3 4 3 2 1 -6 -2 -7 2 -20 8 -27 9 -11
7 -14 -10 -14 -12 0 -21 6 -21 16 0 9 -6 14 -12 11 -7 -2 -12 -12 -11 -21 0
-11 -4 -15 -13 -12 -7 3 -16 1 -19 -4 -4 -6 -15 -10 -26 -10 -10 0 -18 -6 -16
-12 1 -8 -7 -12 -23 -10 -17 1 -21 -1 -11 -7 9 -6 10 -11 2 -15 -6 -4 -9 -12
-5 -17 9 -15 -5 -59 -17 -56 -7 1 -14 -4 -16 -10 -3 -8 4 -13 17 -13 14 0 19
-4 14 -12 -4 -6 -8 -25 -9 -42 l-2 -31 11 28 c10 28 21 34 30 18 3 -5 14 -7
24 -4 13 3 22 -4 30 -22 11 -24 10 -27 -9 -32 -16 -4 -17 -8 -7 -14 9 -6 3 -9
-18 -9 -21 0 -34 6 -39 18 -6 16 -7 16 -19 -1 -13 -16 -66 -25 -66 -9 0 4 -16
7 -36 8 -20 0 -40 7 -45 15 -6 9 -9 10 -9 2 0 -9 -7 -10 -26 -3 -34 13 -34 13
-34 -15 l0 -25 445 0 445 0 0 48 0 49 83 17 c45 10 87 22 93 27 9 7 10 40 5
112 -8 133 -7 520 2 622 4 44 11 127 17 185 13 144 13 145 -4 131 -10 -9 -15
-8 -19 2 -7 18 8 41 22 33 15 -9 19 19 26 164 3 69 7 168 10 220 8 178 16 614
10 609 -7 -7 -15 -137 -15 -252 0 -76 -3 -88 -16 -83 -8 3 -12 2 -9 -3 3 -5
-5 -12 -17 -14 -16 -3 -15 -4 5 -2 23 1 27 -2 26 -24 0 -24 -1 -24 -9 -6 -10
24 -11 23 -15 -38 -2 -36 0 -47 10 -43 7 2 15 -4 18 -15 3 -12 0 -19 -10 -19
-9 0 -13 -6 -9 -15 3 -8 9 -22 12 -30 8 -20 -10 -19 -31 1 -12 13 -19 14 -28
5 -9 -9 -8 -14 3 -21 14 -9 7 -14 -12 -11 -10 1 -10 -7 3 -53 13 -48 -3 -73
-27 -41 -13 17 -16 18 -24 5 -18 -28 -11 12 10 58 16 34 16 42 5 42 -9 0 -15
10 -15 24 0 30 19 44 31 25 6 -9 9 1 7 32 -1 25 2 51 6 57 12 20 28 14 21 -8
-4 -11 -2 -20 4 -20 6 0 11 11 11 25 0 28 -21 33 -44 10 -9 -9 -17 -11 -21 -5
-3 5 -2 10 3 10 5 0 9 14 9 30 0 29 -2 30 -31 24 -25 -5 -29 -4 -19 7 7 7 22
13 34 14 18 1 22 9 24 41 1 21 0 31 -2 21 -8 -30 -28 -12 -25 22 1 21 -2 31
-12 31 -20 0 -31 -21 -16 -30 14 -8 10 -42 -5 -47 -6 -2 -16 6 -23 18 -10 16
-10 19 -1 13 9 -5 10 -2 5 12 -4 10 -9 33 -11 49 -2 17 -1 22 1 12 3 -9 10
-15 15 -12 12 8 12 55 -1 55 -5 0 -10 5 -10 11 0 6 7 8 16 5 13 -5 15 -1 10
19 -7 29 1 32 20 8 7 -10 16 -14 21 -10 4 5 0 14 -10 21 -10 8 -17 26 -17 45
0 21 -5 31 -15 31 -8 0 -15 4 -15 10 0 5 8 7 18 4 14 -5 15 -4 2 5 -10 8 -12
13 -4 19 6 4 14 18 18 32 3 14 3 19 0 13 -10 -22 -31 -14 -38 12 -5 20 -13 25
-37 25 -24 0 -30 -4 -25 -15 7 -20 -4 -19 -20 3 -18 23 -17 42 3 64 10 12 12
18 4 18 -7 0 -10 7 -7 18 5 14 0 17 -27 17 -24 0 -32 4 -31 18 1 9 -4 17 -12
17 -8 0 -14 5 -14 11 0 7 14 8 40 4 26 -4 40 -3 40 4 0 7 -22 11 -54 11 -30 0
-58 4 -61 10 -4 6 5 7 24 4 16 -3 37 -1 48 5 15 9 13 10 -17 11 -22 0 -30 3
-22 8 7 5 10 16 6 25 -5 13 0 17 22 17 33 0 22 15 -12 15 -17 1 -24 -5 -24
-17 0 -10 -4 -18 -10 -18 -5 0 -10 10 -10 23 0 12 -2 31 -4 42 -2 11 -1 14 1
8 7 -21 20 -15 27 11 3 13 15 26 27 29 12 3 18 10 15 15 -3 6 -2 22 3 35 7 19
6 27 -4 30 -17 7 -25 -1 -25 -28 0 -47 -78 -76 -99 -37 -11 20 8 52 30 52 10
-1 9 -4 -3 -11 -10 -5 -18 -19 -18 -30 0 -17 4 -19 23 -13 24 7 37 22 37 42 0
6 4 12 10 12 5 0 7 6 4 14 -4 10 3 16 23 19 23 3 21 4 -10 6 -23 0 -36 -3 -32
-9 3 -5 1 -10 -4 -10 -6 0 -11 5 -11 10 0 6 -9 10 -20 10 -13 0 -20 7 -20 20
0 11 -6 20 -12 20 -10 0 -10 2 0 8 10 7 11 22 2 62 0 3 -7 -3 -14 -13 -9 -12
-16 -14 -21 -8 -10 17 5 32 28 30 48 -3 65 2 70 21 5 20 -7 28 -17 11 -10 -15
-95 -9 -101 7 -4 10 0 12 12 8 9 -4 20 -1 24 6 7 10 11 10 21 0 14 -14 38 -16
38 -2 0 6 -9 10 -20 10 -13 0 -20 7 -20 19 0 11 -5 23 -11 27 -8 5 -6 10 5 16
18 10 22 53 5 64 -6 3 -8 17 -5 30 5 20 3 24 -15 24 -17 0 -20 5 -16 21 5 17
3 18 -9 8 -20 -16 -28 -5 -15 20 9 16 8 27 -3 50 -17 33 -13 41 23 41 14 0 33
5 41 10 13 8 12 10 -2 10 -10 0 -18 4 -18 9 0 5 8 12 18 14 10 3 6 5 -10 6
-16 0 -28 -3 -28 -8 0 -5 -9 -7 -21 -4 -12 3 -18 11 -15 19 3 8 0 13 -6 11 -7
-1 -17 8 -23 21 -6 14 -17 21 -29 20 -11 -2 -21 3 -23 10 -3 6 2 12 10 12 15
0 29 30 31 65 1 11 11 22 26 26 22 6 22 7 4 8 -12 1 -35 -4 -53 -10 -26 -9
-35 -8 -50 5 -10 9 -22 16 -28 16 -15 0 -24 28 -13 35 6 4 15 3 20 0 6 -3 10
3 10 14 0 12 -7 21 -16 21 -8 0 -12 5 -8 11 3 6 17 8 29 5 13 -3 27 -1 30 4 4
6 11 8 16 5 5 -4 9 -2 9 3 0 17 -13 22 -27 10 -11 -9 -19 -6 -38 14 -16 17
-20 29 -13 36 12 12 -9 49 -32 56 -13 3 -13 4 0 5 12 1 15 10 12 39 -2 28 -1
33 7 22 6 -9 11 -10 11 -3 0 25 -14 45 -39 55 -21 9 -23 12 -8 15 23 6 22 30
-3 38 -27 9 -25 25 3 26 15 1 17 3 5 6 -21 5 -27 31 -15 60 8 17 6 27 -6 41
-15 16 -15 20 -1 34 15 15 11 68 -6 68 -5 0 -6 8 -3 19 3 10 0 22 -6 25 -6 4
-11 21 -11 37 0 18 4 28 10 24 6 -3 10 -1 10 4 0 10 -14 15 -32 12 -13 -2 -9
27 5 32 8 4 7 6 -4 6 -9 1 -22 12 -29 26 -11 20 -11 27 0 40 10 12 10 15 -4
15 -9 0 -16 8 -16 20 0 12 -7 35 -16 52 -9 17 -14 41 -11 54 2 13 1 21 -3 19
-5 -3 -10 2 -14 10 -3 8 -1 15 5 15 6 0 5 9 -2 23 -7 12 -12 23 -11 25 5 6
-11 52 -18 52 -4 0 -13 21 -20 48 -8 26 -18 50 -24 55 -7 5 -6 10 4 17 13 8
12 10 -2 10 -11 0 -18 8 -18 20 0 12 -7 20 -17 20 -10 0 -29 3 -43 5 -21 5
-22 4 -5 -3z m331 -1139 c-10 -10 -19 5 -10 18 6 11 8 11 12 0 2 -7 1 -15 -2
-18z m1 -55 c-3 -8 -6 -5 -6 6 -1 11 2 17 5 13 3 -3 4 -12 1 -19z m-457 -78
c0 -5 -4 -10 -10 -10 -5 0 -10 5 -10 10 0 6 5 10 10 10 6 0 10 -4 10 -10z m0
-60 c0 -5 -4 -10 -10 -10 -5 0 -10 5 -10 10 0 6 5 10 10 10 6 0 10 -4 10 -10z
m560 -10 c0 -5 -4 -10 -10 -10 -5 0 -10 5 -10 10 0 6 5 10 10 10 6 0 10 -4 10
-10z m-30 -10 c0 -5 -7 -10 -15 -10 -8 0 -15 5 -15 10 0 6 7 10 15 10 8 0 15
-4 15 -10z m46 -124 c8 -8 14 -19 14 -25 0 -5 8 -15 18 -20 15 -9 15 -10 -5
-11 -15 0 -23 6 -23 16 0 11 -5 14 -16 10 -12 -4 -15 -2 -10 9 3 8 1 15 -4 15
-6 0 -10 5 -10 10 0 15 19 12 36 -4z m-9 -92 c-3 -3 -12 -4 -19 -1 -8 3 -5 6
6 6 11 1 17 -2 13 -5z m33 -64 c0 -5 -7 -10 -15 -10 -8 0 -15 5 -15 10 0 6 7
10 15 10 8 0 15 -4 15 -10z m14 -94 c-6 -16 -24 -23 -24 -8 0 10 22 33 27 28
2 -2 1 -11 -3 -20z m-34 -56 c0 -5 -4 -10 -10 -10 -5 0 -10 5 -10 10 0 6 5 10
10 10 6 0 10 -4 10 -10z m71 -27 c-7 -13 -5 -21 7 -30 15 -11 14 -12 -10 -13
-16 0 -28 5 -28 11 0 17 20 49 31 49 6 0 7 -6 0 -17z m-76 -23 c3 -5 1 -10 -4
-10 -6 0 -11 5 -11 10 0 6 2 10 4 10 3 0 8 -4 11 -10z m32 -22 c-3 -8 -6 -5
-6 6 -1 11 2 17 5 13 3 -3 4 -12 1 -19z m34 -153 c0 -13 -41 -19 -41 -7 0 11
20 22 33 18 5 -1 8 -6 8 -11z m86 -199 c-4 -9 -11 -16 -18 -16 -6 0 -8 7 -5
16 3 9 6 21 6 27 0 8 3 8 11 0 7 -7 9 -19 6 -27z m-717 -117 c0 -5 -4 -9 -10
-9 -5 0 -10 7 -10 16 0 8 5 12 10 9 6 -3 10 -10 10 -16z m715 -19 c3 -5 1 -10
-4 -10 -6 0 -11 5 -11 10 0 6 2 10 4 10 3 0 8 -4 11 -10z m61 -64 c9 -9 10
-17 4 -21 -5 -3 -10 -1 -10 4 0 6 -7 11 -16 11 -8 0 -12 5 -9 10 8 13 14 13
31 -4z m62 -25 c3 -8 -1 -12 -9 -9 -7 2 -15 10 -17 17 -3 8 1 12 9 9 7 -2 15
-10 17 -17z m-840 -66 c-1 -19 -4 -33 -7 -29 -9 9 -9 64 0 64 5 0 8 -16 7 -35z
m922 -35 c-15 -9 -13 -11 12 -14 13 -1 24 -26 11 -26 -5 0 -19 7 -31 16 -13 9
-30 13 -38 10 -22 -8 -7 -26 21 -26 26 0 46 -21 27 -28 -19 -6 -14 -22 7 -22
12 0 20 -9 23 -25 6 -31 -1 -31 -38 0 -28 24 -29 24 -32 5 -2 -11 -8 -20 -14
-20 -5 0 -8 6 -5 14 3 7 0 19 -6 25 -9 9 -6 13 11 18 18 4 20 8 11 19 -6 8
-18 14 -25 14 -8 0 -14 10 -14 23 0 19 6 22 48 24 33 2 43 -1 32 -7z m-943
-22 c-3 -8 -6 -5 -6 6 -1 11 2 17 5 13 3 -3 4 -12 1 -19z m840 -40 c-3 -8 -6
-5 -6 6 -1 11 2 17 5 13 3 -3 4 -12 1 -19z m-826 -71 c-8 -8 -11 -7 -11 4 0 9
3 19 7 23 4 4 9 2 11 -4 3 -7 -1 -17 -7 -23z m889 -21 c0 -2 -9 -6 -20 -9 -15
-4 -20 0 -20 14 0 17 3 18 20 9 11 -6 20 -12 20 -14z m39 -20 c-12 -10 -59
-15 -59 -6 0 5 14 10 32 10 17 0 29 -2 27 -4z m-39 -45 c-15 -28 -13 -33 11
-26 18 6 19 4 11 -12 -6 -10 -17 -27 -25 -37 -13 -18 -15 -17 -21 17 -4 23 -2
43 6 57 16 26 32 27 18 1z m-163 -17 c-3 -3 -12 -4 -19 -1 -8 3 -5 6 6 6 11 1
17 -2 13 -5z m120 -26 c-3 -8 -6 -5 -6 6 -1 11 2 17 5 13 3 -3 4 -12 1 -19z
m-217 -28 c0 -5 -8 -10 -18 -10 -10 0 -24 -6 -31 -12 -10 -11 -11 -10 -6 4 6
15 20 23 48 27 4 0 7 -3 7 -9z m-600 -40 c0 -5 -11 -10 -25 -10 -14 0 -25 5
-25 10 0 6 11 10 25 10 14 0 25 -4 25 -10z m883 3 c-7 -2 -21 -2 -30 0 -10 3
-4 5 12 5 17 0 24 -2 18 -5z m-366 -35 c-3 -7 -5 -2 -5 12 0 14 2 19 5 13 2
-7 2 -19 0 -25z m113 22 c0 -5 -2 -10 -4 -10 -3 0 -8 5 -11 10 -3 6 -1 10 4
10 6 0 11 -4 11 -10z m-70 -104 c0 -8 -4 -18 -10 -21 -5 -3 -10 3 -10 14 0 12
5 21 10 21 6 0 10 -6 10 -14z m517 -58 c-3 -8 -6 -5 -6 6 -1 11 2 17 5 13 3
-3 4 -12 1 -19z m-90 -40 c-3 -8 -6 -5 -6 6 -1 11 2 17 5 13 3 -3 4 -12 1 -19z
m-27 -98 c0 -5 -2 -10 -4 -10 -3 0 -8 5 -11 10 -3 6 -1 10 4 10 6 0 11 -4 11
-10z m115 0 c-3 -5 -10 -10 -16 -10 -5 0 -9 5 -9 10 0 6 7 10 16 10 8 0 12 -4
9 -10z m-135 -37 c0 -20 -3 -24 -11 -16 -7 7 -9 19 -6 27 10 24 17 19 17 -11z
m30 -108 c0 -8 -7 -15 -15 -15 -13 0 -14 3 -3 15 16 18 18 18 18 0z m100 5 c0
-5 -5 -10 -11 -10 -5 0 -7 5 -4 10 3 6 8 10 11 10 2 0 4 -4 4 -10z m-49 -57
c-9 -16 -10 -16 -11 -1 0 9 3 25 7 35 7 16 8 17 11 1 2 -10 -1 -25 -7 -35z
m-191 7 c0 -5 -2 -10 -4 -10 -3 0 -8 5 -11 10 -3 6 -1 10 4 10 6 0 11 -4 11
-10z m227 -12 c-3 -8 -6 -5 -6 6 -1 11 2 17 5 13 3 -3 4 -12 1 -19z m-42 -68
c3 -5 -1 -10 -10 -10 -9 0 -13 5 -10 10 3 6 8 10 10 10 2 0 7 -4 10 -10z
m-978 -32 c-3 -8 -6 -5 -6 6 -1 11 2 17 5 13 3 -3 4 -12 1 -19z m933 -22 c0
-3 -4 -8 -10 -11 -5 -3 -10 -1 -10 4 0 6 5 11 10 11 6 0 10 -2 10 -4z m70 -6
c0 -5 -4 -10 -10 -10 -5 0 -10 5 -10 10 0 6 5 10 10 10 6 0 10 -4 10 -10z
m-67 -68 c-18 -5 -27 3 -18 17 4 7 10 7 20 -2 11 -10 11 -13 -2 -15z m-883
-23 c0 -5 -4 -9 -10 -9 -5 0 -10 7 -10 16 0 8 5 12 10 9 6 -3 10 -10 10 -16z
m870 -30 c0 -6 -4 -7 -10 -4 -5 3 -10 11 -10 16 0 6 5 7 10 4 6 -3 10 -11 10
-16z m60 -1 c0 -19 -2 -20 -10 -8 -13 19 -13 30 0 30 6 0 10 -10 10 -22z m-3
-60 c-3 -7 -5 -2 -5 12 0 14 2 19 5 13 2 -7 2 -19 0 -25z m-881 -37 c-4 -6
-13 -11 -19 -11 -8 0 -8 3 2 9 9 6 10 11 2 15 -6 4 -11 12 -11 19 0 7 7 5 16
-5 9 -9 13 -21 10 -27z m804 29 c0 -5 -5 -10 -11 -10 -5 0 -7 5 -4 10 3 6 8
10 11 10 2 0 4 -4 4 -10z m-853 -12 c-1 -38 4 -48 26 -49 l22 0 -24 -10 c-15
-6 -21 -15 -17 -24 3 -8 1 -15 -3 -15 -14 0 -31 60 -25 86 6 25 22 33 21 12z
m948 -36 c-2 -2 -13 -1 -25 3 -17 5 -19 9 -9 21 10 12 13 12 24 -3 8 -10 12
-20 10 -21z m-111 3 c-4 -8 -10 -12 -15 -9 -11 6 -2 24 11 24 5 0 7 -7 4 -15z
m-754 -5 c0 -5 -5 -10 -11 -10 -5 0 -7 5 -4 10 3 6 8 10 11 10 2 0 4 -4 4 -10z
m800 -34 c-17 -22 -32 -9 -19 16 8 14 14 17 22 9 7 -7 6 -15 -3 -25z m60 14
c0 -5 -5 -10 -11 -10 -5 0 -7 5 -4 10 3 6 8 10 11 10 2 0 4 -4 4 -10z m-174
-117 c-10 -10 -19 5 -10 18 6 11 8 11 12 0 2 -7 1 -15 -2 -18z m-46 -33 c0 -5
-5 -10 -11 -10 -5 0 -7 5 -4 10 3 6 8 10 11 10 2 0 4 -4 4 -10z m-640 -140 c0
-5 -4 -10 -10 -10 -5 0 -10 5 -10 10 0 6 5 10 10 10 6 0 10 -4 10 -10z m405
-140 c3 -5 1 -10 -4 -10 -6 0 -11 5 -11 10 0 6 2 10 4 10 3 0 8 -4 11 -10z
m265 -76 c0 -13 7 -15 38 -10 20 4 44 2 52 -4 13 -8 12 -10 -5 -11 -11 -1 -30
0 -42 1 -12 1 -32 -4 -44 -11 -19 -10 -21 -9 -16 5 3 8 2 18 -4 21 -11 7 -3
25 12 25 5 0 9 -7 9 -16z m-248 -61 c-5 -24 -6 -25 -12 -8 -8 21 -4 35 9 35 5
0 6 -12 3 -27z m227 -31 c9 -17 21 -32 27 -32 7 0 14 -12 17 -26 4 -20 -1 -27
-21 -35 -17 -7 -29 -6 -36 1 -14 14 -26 13 -26 -4 0 -8 -7 -17 -16 -20 -13 -5
-15 -2 -11 14 3 11 2 18 -2 16 -4 -3 -13 -1 -21 5 -11 6 -3 9 26 9 47 0 74 21
55 43 -6 8 -9 16 -6 19 3 3 -1 11 -10 18 -18 15 -20 33 -3 28 6 -2 19 -19 27
-36z m-374 8 c-3 -5 -11 -10 -16 -10 -6 0 -7 5 -4 10 3 6 11 10 16 10 6 0 7
-4 4 -10z m55 0 c0 -5 -4 -10 -10 -10 -5 0 -10 5 -10 10 0 6 5 10 10 10 6 0
10 -4 10 -10z m-178 -35 c-2 -14 -8 -25 -13 -25 -10 0 -11 12 -3 34 10 25 22
19 16 -9z m153 15 c3 -5 1 -10 -4 -10 -6 0 -11 5 -11 10 0 6 2 10 4 10 3 0 8
-4 11 -10z m310 -10 c3 -11 3 -24 0 -30 -10 -16 -27 0 -22 21 3 10 0 20 -7 23
-6 2 -3 5 6 5 9 1 19 -8 23 -19z m115 16 c0 -9 -30 -14 -35 -6 -4 6 3 10 14
10 12 0 21 -2 21 -4z m-328 -28 c-7 -7 -12 -8 -12 -2 0 14 12 26 19 19 2 -3
-1 -11 -7 -17z m38 2 c0 -5 -4 -10 -10 -10 -5 0 -10 5 -10 10 0 6 5 10 10 10
6 0 10 -4 10 -10z m35 0 c3 -5 1 -10 -4 -10 -6 0 -11 5 -11 10 0 6 2 10 4 10
3 0 8 -4 11 -10z m-275 -4 c0 -2 -7 -6 -15 -10 -8 -3 -15 -1 -15 4 0 6 7 10
15 10 8 0 15 -2 15 -4z m110 -36 c0 -5 -5 -10 -11 -10 -5 0 -7 5 -4 10 3 6 8
10 11 10 2 0 4 -4 4 -10z m430 0 c0 -5 -5 -10 -11 -10 -5 0 -7 5 -4 10 3 6 8
10 11 10 2 0 4 -4 4 -10z m-560 -10 c0 -5 -2 -10 -4 -10 -3 0 -8 5 -11 10 -3
6 -1 10 4 10 6 0 11 -4 11 -10z m260 -16 c0 -2 -7 -4 -15 -4 -8 0 -15 4 -15
10 0 5 7 7 15 4 8 -4 15 -8 15 -10z m94 1 c-6 -16 -34 -21 -34 -7 0 13 11 22
26 22 8 0 11 -6 8 -15z m186 -5 c0 -5 -4 -10 -10 -10 -5 0 -10 5 -10 10 0 6 5
10 10 10 6 0 10 -4 10 -10z m-485 -20 c3 -5 1 -10 -4 -10 -6 0 -11 5 -11 10 0
6 2 10 4 10 3 0 8 -4 11 -10z m335 0 c0 -5 -5 -10 -11 -10 -5 0 -7 5 -4 10 3
6 8 10 11 10 2 0 4 -4 4 -10z m120 -6 c0 -8 -4 -12 -10 -9 -5 3 -10 10 -10 16
0 5 5 9 10 9 6 0 10 -7 10 -16z m152 -28 c6 4 3 -5 -8 -19 -23 -32 -26 -32
-42 -7 -7 12 -8 20 -2 20 5 0 10 -4 10 -10 0 -5 5 -10 10 -10 6 0 10 6 9 13
-1 6 0 21 1 32 2 18 3 18 7 -3 3 -13 9 -19 15 -16z m18 -86 c0 -15 -5 -16 -35
-6 -30 9 -32 12 -15 18 11 4 20 15 20 25 1 17 2 16 15 -1 8 -11 15 -27 15 -36z
m-86 -5 c-4 -9 0 -15 10 -15 12 0 16 -9 15 -32 0 -29 -1 -30 -9 -12 -4 12 -15
24 -23 27 -8 3 -17 15 -20 26 -4 16 0 21 14 21 12 0 16 -5 13 -15z m-709 -35
c-2 -22 1 -42 6 -45 11 -7 12 -25 1 -25 -12 0 -27 52 -24 83 2 15 7 27 12 27
5 0 8 -18 5 -40z m670 20 c3 -5 1 -10 -4 -10 -6 0 -11 5 -11 10 0 6 2 10 4 10
3 0 8 -4 11 -10z m114 -34 c-1 -16 -2 -17 -6 -3 -2 9 -9 17 -14 17 -5 0 -9 4
-9 10 0 5 7 7 15 4 8 -4 14 -16 14 -28z m-454 4 c3 -5 1 -10 -4 -10 -6 0 -11
5 -11 10 0 6 2 10 4 10 3 0 8 -4 11 -10z m-25 -10 c0 -5 -2 -10 -4 -10 -3 0
-8 5 -11 10 -3 6 -1 10 4 10 6 0 11 -4 11 -10z m345 -28 c-3 -3 -11 0 -18 7
-9 10 -8 11 6 5 10 -3 15 -9 12 -12z m-595 4 c0 -3 -4 -8 -10 -11 -5 -3 -10
-1 -10 4 0 6 5 11 10 11 6 0 10 -2 10 -4z"/>
<path d="M2053 4618 c-4 -7 -7 -22 -8 -33 0 -13 -6 -19 -17 -19 -10 1 -18 -3
-18 -10 0 -6 -5 -18 -10 -26 -9 -13 -13 -11 -30 10 -14 18 -22 22 -30 14 -31
-31 71 -144 125 -139 79 7 101 64 58 150 -20 40 -59 70 -70 53z"/>
<path d="M1992 4596 c1 -14 6 -22 10 -20 12 7 10 44 -2 44 -5 0 -9 -11 -8 -24z"/>
<path d="M2532 4504 c2 -11 11 -20 22 -22 13 -3 17 1 14 14 -2 11 -11 20 -22
22 -13 3 -17 -1 -14 -14z"/>
<path d="M2415 4450 c-3 -5 -2 -10 4 -10 5 0 13 5 16 10 3 6 2 10 -4 10 -5 0
-13 -4 -16 -10z"/>
<path d="M2423 4423 c9 -2 25 -2 35 0 9 3 1 5 -18 5 -19 0 -27 -2 -17 -5z"/>
<path d="M4322 4370 c0 -14 2 -19 5 -12 2 6 2 18 0 25 -3 6 -5 1 -5 -13z"/>
<path d="M2410 4350 c0 -5 5 -10 10 -10 6 0 10 5 10 10 0 6 -4 10 -10 10 -5 0
-10 -4 -10 -10z"/>
<path d="M2236 4341 c-4 -7 -5 -15 -2 -18 9 -9 19 4 14 18 -4 11 -6 11 -12 0z"/>
<path d="M2367 4184 c-8 -8 1 -24 13 -24 4 0 10 7 14 15 5 15 -14 21 -27 9z"/>
<path d="M2270 4070 c-13 -8 -12 -10 3 -10 9 0 17 5 17 10 0 12 -1 12 -20 0z"/>
<path d="M2340 4060 c0 -5 7 -10 15 -10 8 0 15 5 15 10 0 6 -7 10 -15 10 -8 0
-15 -4 -15 -10z"/>
<path d="M2320 3949 c0 -5 5 -7 10 -4 6 3 10 8 10 11 0 2 -4 4 -10 4 -5 0 -10
-5 -10 -11z"/>
<path d="M2000 3920 c0 -5 5 -10 10 -10 6 0 10 5 10 10 0 6 -4 10 -10 10 -5 0
-10 -4 -10 -10z"/>
<path d="M2018 3760 c-7 -24 -3 -38 8 -28 3 4 4 17 2 30 l-3 23 -7 -25z"/>
<path d="M2091 3714 c0 -11 3 -14 6 -6 3 7 2 16 -1 19 -3 4 -6 -2 -5 -13z"/>
<path d="M2120 3699 c0 -19 -7 -28 -22 -33 -19 -5 -21 -8 -8 -16 11 -7 18 -5
27 6 8 12 16 13 30 5 18 -9 19 -7 15 22 -3 18 -7 26 -10 19 -3 -10 -8 -8 -18
5 -12 17 -13 16 -14 -8z"/>
<path d="M2100 3601 c0 -46 10 -64 26 -50 19 15 18 30 -1 23 -8 -4 -15 -1 -15
5 0 6 5 11 10 11 6 0 10 9 10 20 0 11 -7 20 -15 20 -10 0 -15 -10 -15 -29z"/>
<path d="M2072 3541 c4 -13 18 -16 19 -4 0 4 -5 9 -11 12 -7 2 -11 -2 -8 -8z"/>
<path d="M2166 3443 c-4 -9 -2 -21 4 -27 7 -7 10 -2 10 17 0 31 -5 34 -14 10z"/>
<path d="M2130 3413 c0 -19 18 -43 32 -43 4 0 8 5 8 11 0 5 -5 7 -11 3 -7 -4
-9 2 -7 16 2 13 -3 25 -9 27 -8 3 -13 -3 -13 -14z"/>
<path d="M2185 3360 c-3 -5 1 -10 10 -10 9 0 13 5 10 10 -3 6 -8 10 -10 10 -2
0 -7 -4 -10 -10z"/>
<path d="M2220 3239 c0 -5 5 -7 10 -4 6 3 10 8 10 11 0 2 -4 4 -10 4 -5 0 -10
-5 -10 -11z"/>
<path d="M2190 3224 c0 -8 5 -12 10 -9 6 4 8 11 5 16 -9 14 -15 11 -15 -7z"/>
<path d="M2240 3000 c0 -5 5 -10 10 -10 6 0 10 5 10 10 0 6 -4 10 -10 10 -5 0
-10 -4 -10 -10z"/>
<path d="M1510 2824 c0 -8 5 -12 10 -9 6 3 10 10 10 16 0 5 -4 9 -10 9 -5 0
-10 -7 -10 -16z"/>
<path d="M2266 2824 c-8 -21 -1 -28 19 -20 9 3 15 11 13 18 -7 19 -25 20 -32
2z"/>
<path d="M255 2820 c3 -5 16 -15 28 -21 22 -12 22 -12 3 10 -19 21 -43 30 -31
11z"/>
<path d="M330 2755 c20 -22 67 -41 76 -32 3 2 -18 16 -46 29 -51 25 -51 25
-30 3z"/>
<path d="M1470 2681 c0 -6 5 -13 10 -16 6 -3 10 1 10 9 0 9 -4 16 -10 16 -5 0
-10 -4 -10 -9z"/>
<path d="M2665 2670 c-3 -5 -1 -10 4 -10 6 0 11 5 11 10 0 6 -2 10 -4 10 -3 0
-8 -4 -11 -10z"/>
<path d="M2564 2620 c0 -13 4 -16 10 -10 7 7 7 13 0 20 -6 6 -10 3 -10 -10z"/>
<path d="M3331 2614 c0 -11 3 -14 6 -6 3 7 2 16 -1 19 -3 4 -6 -2 -5 -13z"/>
<path d="M2330 2610 c0 -5 5 -10 10 -10 6 0 10 5 10 10 0 6 -4 10 -10 10 -5 0
-10 -4 -10 -10z"/>
<path d="M2673 2535 c0 -44 2 -61 4 -37 2 23 2 59 0 80 -2 20 -4 1 -4 -43z"/>
<path d="M3330 2580 c0 -5 5 -10 11 -10 5 0 7 5 4 10 -3 6 -8 10 -11 10 -2 0
-4 -4 -4 -10z"/>
<path d="M2505 2550 c-3 -5 -1 -10 4 -10 6 0 11 5 11 10 0 6 -2 10 -4 10 -3 0
-8 -4 -11 -10z"/>
<path d="M3330 2490 c0 -22 3 -40 8 -40 4 0 6 18 4 40 -2 22 -6 40 -8 40 -2 0
-4 -18 -4 -40z"/>
<path d="M2520 2461 c0 -6 5 -13 10 -16 6 -3 10 1 10 9 0 9 -4 16 -10 16 -5 0
-10 -4 -10 -9z"/>
<path d="M2430 2450 c-13 -8 -12 -10 3 -10 9 0 17 5 17 10 0 12 -1 12 -20 0z"/>
<path d="M3330 2429 c0 -5 5 -7 10 -4 6 3 10 8 10 11 0 2 -4 4 -10 4 -5 0 -10
-5 -10 -11z"/>
<path d="M2669 2398 c-3 -22 -1 -34 4 -29 5 5 7 21 5 37 -3 27 -4 26 -9 -8z"/>
<path d="M3330 2390 c0 -11 4 -20 8 -20 4 0 8 9 8 20 0 11 -4 20 -8 20 -4 0
-8 -9 -8 -20z"/>
<path d="M2510 2380 c-8 -15 -9 -25 -1 -33 7 -7 12 -2 17 17 8 35 -1 44 -16
16z"/>
<path d="M3331 2332 c-1 -18 3 -31 8 -27 5 3 13 -4 16 -16 4 -11 9 -19 11 -16
2 2 -4 24 -15 48 l-20 44 0 -33z"/>
<path d="M2682 2315 c0 -16 2 -22 5 -12 2 9 2 23 0 30 -3 6 -5 -1 -5 -18z"/>
<path d="M3361 2234 c0 -11 3 -14 6 -6 3 7 2 16 -1 19 -3 4 -6 -2 -5 -13z"/>
<path d="M2530 2065 c0 -8 2 -15 4 -15 2 0 6 7 10 15 3 8 1 15 -4 15 -6 0 -10
-7 -10 -15z"/>
<path d="M2600 2050 c0 -5 9 -10 20 -10 11 0 20 5 20 10 0 6 -9 10 -20 10 -11
0 -20 -4 -20 -10z"/>
<path d="M2599 2023 c-1 -4 -1 -12 0 -16 1 -5 -8 -11 -19 -14 -11 -3 -20 -9
-20 -13 0 -10 31 -22 38 -15 3 3 2 5 -2 5 -5 0 -1 11 8 24 10 15 12 27 6 31
-6 3 -11 3 -11 -2z"/>
<path d="M2580 1930 c0 -5 5 -10 10 -10 6 0 10 5 10 10 0 6 -4 10 -10 10 -5 0
-10 -4 -10 -10z"/>
<path d="M1500 1735 c-10 -12 -10 -15 4 -15 9 0 16 7 16 15 0 8 -2 15 -4 15
-2 0 -9 -7 -16 -15z"/>
<path d="M1570 1589 c0 -5 5 -7 10 -4 6 3 10 8 10 11 0 2 -4 4 -10 4 -5 0 -10
-5 -10 -11z"/>
<path d="M3360 1530 c0 -5 5 -10 10 -10 6 0 10 5 10 10 0 6 -4 10 -10 10 -5 0
-10 -4 -10 -10z"/>
<path d="M1581 1064 c0 -11 3 -14 6 -6 3 7 2 16 -1 19 -3 4 -6 -2 -5 -13z"/>
<path d="M1551 1034 c0 -11 3 -14 6 -6 3 7 2 16 -1 19 -3 4 -6 -2 -5 -13z"/>
<path d="M2642 910 c0 -14 2 -19 5 -12 2 6 2 18 0 25 -3 6 -5 1 -5 -13z"/>
<path d="M1665 830 c-3 -5 -1 -10 4 -10 6 0 11 5 11 10 0 6 -2 10 -4 10 -3 0
-8 -4 -11 -10z"/>
<path d="M1665 710 c3 -5 8 -10 11 -10 2 0 4 5 4 10 0 6 -5 10 -11 10 -5 0 -7
-4 -4 -10z"/>
<path d="M3157 675 c-3 -11 -9 -38 -12 -60 -3 -22 -8 -50 -11 -62 -2 -13 -1
-23 4 -23 11 0 37 132 30 151 -3 10 -7 8 -11 -6z"/>
<path d="M1730 566 c0 -2 7 -6 15 -10 8 -3 15 -1 15 4 0 6 -7 10 -15 10 -8 0
-15 -2 -15 -4z"/>
<path d="M3114 425 c-3 -8 -4 -20 -2 -27 3 -7 7 -1 10 15 6 29 1 36 -8 12z"/>
<path d="M3107 373 c-4 -3 -7 -18 -6 -32 1 -26 1 -25 10 3 9 31 7 41 -4 29z"/>
<path d="M1850 351 c0 -5 5 -13 10 -16 6 -3 10 -2 10 4 0 5 -4 13 -10 16 -5 3
-10 2 -10 -4z"/>
<path d="M1826 295 c-3 -8 -1 -15 4 -15 6 0 10 7 10 15 0 8 -2 15 -4 15 -2 0
-6 -7 -10 -15z"/>
<path d="M3078 273 c7 -3 16 -2 19 1 4 3 -2 6 -13 5 -11 0 -14 -3 -6 -6z"/>
<path d="M3017 79 c-4 -13 -4 -25 -2 -28 3 -2 5 2 5 10 0 11 2 11 10 -1 9 -13
10 -13 10 0 0 8 -4 21 -9 28 -6 10 -10 8 -14 -9z"/>
</g>
</svg>
