<?xml version="1.0" standalone="no"?>
<!DOCTYPE svg PUBLIC "-//W3C//DTD SVG 20010904//EN"
 "http://www.w3.org/TR/2001/REC-SVG-20010904/DTD/svg10.dtd">
<svg version="1.0" xmlns="http://www.w3.org/2000/svg"
 width="1024.000000pt" height="1536.000000pt" viewBox="0 0 1024.000000 1536.000000"
 preserveAspectRatio="xMidYMid meet">

<g transform="translate(0.000000,1536.000000) scale(0.100000,-0.100000)"
fill="#000000" stroke="none">
<path d="M4869 14786 c-3 -3 -21 -8 -40 -11 -19 -3 -45 -7 -57 -10 -13 -2 -31
-10 -40 -17 -10 -8 -36 -14 -59 -13 -27 1 -44 -3 -47 -12 -3 -7 -14 -13 -25
-13 -11 0 -22 -6 -24 -12 -4 -10 -8 -9 -17 2 -9 12 -10 11 -6 -6 5 -18 1 -20
-34 -22 -39 -3 -90 -36 -90 -60 0 -6 -9 -17 -20 -25 -11 -8 -17 -17 -12 -22 4
-4 -1 -5 -11 -2 -11 4 -20 1 -23 -8 -4 -8 -10 -13 -14 -10 -5 3 -15 -2 -23
-10 -9 -8 -18 -15 -22 -15 -4 0 -19 -12 -34 -27 -16 -16 -47 -43 -70 -62 -43
-36 -49 -47 -28 -54 6 -2 4 -3 -5 -2 -10 2 -18 -1 -18 -6 0 -5 -9 -9 -19 -9
-11 0 -23 -4 -26 -10 -3 -5 2 -10 12 -10 20 0 43 -18 43 -34 0 -5 -8 -2 -17 6
-13 11 -25 13 -41 7 -20 -7 -21 -11 -10 -29 7 -11 17 -20 23 -21 5 0 0 -4 -13
-10 -14 -5 -20 -13 -16 -20 5 -8 3 -9 -5 -5 -7 5 -10 14 -7 22 3 8 1 14 -4 14
-5 0 -12 -11 -16 -24 -3 -14 -12 -27 -20 -30 -8 -3 -14 -11 -14 -17 0 -7 3 -9
7 -6 7 8 43 -21 43 -34 0 -5 -6 -6 -14 -3 -8 3 -29 -2 -47 -11 -24 -13 -28
-19 -18 -25 7 -5 16 -7 20 -4 4 2 10 0 13 -5 7 -11 -22 -71 -34 -71 -5 0 -7
-7 -4 -15 4 -10 0 -15 -16 -15 -12 0 -18 -4 -15 -10 4 -6 15 -8 25 -5 24 8 35
-11 14 -23 -12 -7 -17 -24 -18 -58 -1 -44 -3 -49 -26 -52 -29 -4 -50 -20 -50
-36 0 -6 6 -3 13 6 8 10 18 13 26 9 10 -6 9 -9 -2 -14 -12 -5 -13 -13 -6 -44
11 -49 11 -62 -1 -43 -8 12 -10 12 -16 -3 -3 -9 -12 -17 -19 -17 -7 0 -15 -7
-19 -15 -3 -8 -3 -15 0 -15 3 0 12 7 20 15 17 17 59 21 49 5 -4 -6 -10 -8 -15
-5 -4 3 -13 -1 -19 -9 -9 -10 -8 -15 4 -20 8 -3 15 -11 15 -18 0 -9 -3 -10 -8
-2 -4 7 -15 1 -30 -18 -13 -15 -19 -28 -12 -28 6 0 13 7 16 15 4 8 10 15 14
15 13 0 18 -38 7 -49 -8 -8 -6 -11 8 -11 17 0 17 -1 2 -18 -19 -21 -23 -37 -6
-26 7 4 7 -1 -1 -16 -11 -20 -10 -21 9 -15 12 4 21 2 21 -4 0 -6 -5 -11 -11
-11 -8 0 -8 -4 0 -14 7 -8 9 -25 6 -39 -4 -14 -2 -28 4 -31 17 -11 13 -39 -4
-32 -11 4 -15 -2 -15 -23 0 -49 -12 -121 -21 -121 -4 0 -9 12 -11 28 -2 20 -8
27 -23 25 -20 -1 -20 -1 -1 13 11 8 23 14 28 14 4 0 5 7 2 15 -4 8 -10 15 -16
15 -5 0 -6 -4 -3 -10 4 -6 -5 -10 -20 -10 -19 0 -26 -5 -23 -17 1 -10 -1 -24
-5 -31 -18 -28 4 -73 54 -109 27 -19 49 -40 49 -46 0 -6 7 -4 17 5 14 15 14
19 2 34 -11 13 -11 18 -1 21 7 3 12 24 12 56 0 36 3 47 10 37 5 -8 7 -31 5
-52 -2 -21 1 -38 6 -38 5 0 9 27 9 59 0 44 -4 60 -16 65 -34 13 7 136 46 136
5 0 10 8 10 19 0 13 9 20 30 25 17 3 30 12 30 20 0 8 4 18 10 21 15 9 60 -25
66 -51 4 -14 12 -28 20 -32 17 -9 31 -92 15 -92 -6 0 -11 -6 -11 -13 0 -8 -9
-22 -20 -32 -23 -21 -26 -35 -6 -35 9 0 12 -8 9 -24 -4 -18 0 -25 18 -29 13
-4 26 -2 30 4 3 6 9 1 12 -10 3 -12 1 -19 -4 -16 -9 6 -14 -13 -24 -87 -4 -33
-12 -51 -29 -62 -32 -20 -41 -95 -13 -105 10 -4 17 -11 16 -16 -1 -6 5 -11 14
-13 12 -2 17 3 17 17 0 12 6 21 16 21 8 0 12 5 8 11 -4 8 0 9 15 4 16 -5 20
-3 15 9 -8 22 12 20 22 -1 11 -25 12 -46 1 -60 -5 -7 -6 -20 -3 -29 5 -13 2
-15 -11 -9 -10 4 -31 10 -48 12 -27 3 -28 2 -7 -7 30 -13 28 -30 -3 -24 -18 3
-25 0 -25 -11 0 -8 3 -14 8 -14 30 5 34 -2 28 -43 -4 -30 -3 -39 4 -28 8 12
10 12 10 1 0 -8 -7 -19 -15 -25 -11 -8 -13 -18 -6 -41 5 -16 10 -22 10 -13 1
9 5 19 10 22 5 4 7 -11 4 -34 -4 -28 -2 -40 7 -40 7 0 10 -7 6 -15 -3 -9 6
-28 24 -47 27 -28 34 -41 28 -52 -2 -2 4 -12 12 -22 23 -29 40 -62 40 -79 0
-8 5 -15 10 -15 6 0 10 -8 10 -18 0 -26 52 -92 68 -87 6 2 12 1 13 -3 6 -53
-5 -138 -24 -184 -11 -26 -58 -46 -65 -28 -2 5 -9 7 -15 4 -7 -2 -20 10 -30
28 -15 26 -20 29 -29 17 -7 -11 -9 -9 -5 8 5 21 -11 28 -24 10 -6 -9 -49 75
-75 149 -17 50 -18 51 -43 38 -22 -12 -28 -12 -37 1 -7 9 -19 13 -28 9 -11 -4
-16 -1 -16 10 0 21 -4 20 -36 -9 -25 -23 -28 -24 -40 -7 -7 9 -14 15 -16 12
-2 -3 -12 -18 -24 -35 -11 -16 -23 -38 -27 -48 -4 -10 -12 -17 -19 -15 -20 7
-58 -34 -58 -61 0 -27 -12 -53 -24 -52 -20 3 -25 -3 -31 -39 -4 -22 -11 -42
-16 -46 -5 -3 -9 -22 -9 -43 0 -21 -6 -44 -14 -50 -8 -6 -19 -25 -26 -41 -7
-17 -18 -30 -25 -30 -19 0 -75 -33 -76 -45 0 -5 -4 -1 -8 9 -7 18 -9 17 -26
-12 -11 -18 -25 -32 -31 -32 -7 0 -16 -9 -19 -21 -4 -11 -12 -18 -18 -16 -12
4 -47 -34 -47 -51 0 -6 -9 -14 -20 -17 -11 -3 -20 -10 -20 -15 0 -13 -57 -70
-70 -70 -5 0 -10 -5 -10 -10 0 -6 -5 -9 -12 -8 -6 2 -18 -10 -26 -25 -11 -23
-16 -26 -28 -16 -11 9 -14 8 -14 -6 0 -11 -5 -15 -15 -11 -10 4 -15 -1 -15
-14 0 -29 -37 -62 -61 -55 -11 4 -19 2 -19 -4 0 -6 -7 -11 -15 -11 -8 0 -15
-5 -15 -11 0 -5 -3 -8 -7 -6 -5 3 -9 -13 -10 -36 -3 -42 -12 -61 -20 -39 -7
20 -22 14 -18 -8 5 -24 -25 -85 -42 -86 -27 -2 -31 -5 -36 -26 -6 -20 -7 -20
-32 -4 l-26 17 7 -36 c6 -34 5 -36 -12 -27 -11 5 -24 7 -31 5 -6 -2 -14 1 -18
6 -3 6 -13 11 -22 11 -15 0 -14 -2 0 -18 23 -25 21 -35 -3 -29 -24 6 -25 3 -3
-30 13 -20 14 -28 5 -31 -7 -2 -9 -9 -5 -14 4 -8 -2 -9 -18 -4 -13 3 -36 9
-52 13 l-27 6 30 -33 c16 -17 27 -36 24 -41 -3 -5 2 -16 10 -25 23 -23 20 -34
-15 -46 -17 -6 -27 -13 -22 -17 4 -3 15 -19 23 -34 12 -25 12 -29 0 -37 -8 -6
-24 -10 -34 -10 -16 0 -17 -3 -8 -12 23 -23 13 -38 -24 -38 -30 0 -34 -3 -29
-19 3 -11 -1 -25 -10 -34 -8 -9 -15 -18 -15 -22 0 -3 -17 -29 -38 -58 -21 -29
-51 -86 -66 -127 -15 -41 -31 -84 -36 -95 -51 -119 -95 -295 -106 -425 -3 -35
-8 -67 -12 -70 -4 -3 -8 -29 -9 -59 -1 -29 -6 -58 -11 -65 -5 -6 -15 -49 -21
-96 -6 -47 -16 -107 -21 -135 -5 -27 -12 -77 -15 -109 -3 -33 -13 -74 -21 -92
-9 -18 -14 -39 -11 -46 2 -7 -2 -33 -9 -58 -8 -25 -14 -64 -14 -87 0 -23 -4
-44 -9 -47 -7 -5 -14 -45 -26 -151 -1 -5 -5 -39 -9 -75 -4 -36 -14 -87 -21
-115 -8 -27 -17 -75 -21 -105 -4 -30 -11 -60 -16 -66 -4 -6 -6 -19 -2 -28 4
-9 1 -16 -6 -16 -7 0 -10 -8 -7 -20 3 -11 2 -20 -3 -20 -7 0 -15 -41 -26 -135
-3 -22 -9 -49 -14 -60 -16 -38 -29 -91 -70 -295 -23 -113 -57 -270 -76 -350
-19 -80 -46 -208 -60 -285 -14 -77 -31 -176 -39 -220 -8 -44 -19 -123 -25
-175 -6 -52 -21 -144 -35 -205 -45 -200 -85 -423 -109 -608 -15 -113 -44 -260
-75 -388 -28 -113 -71 -313 -96 -445 -24 -131 -63 -306 -85 -389 -65 -237
-103 -411 -135 -611 -8 -55 -25 -127 -36 -161 -14 -44 -17 -67 -11 -80 9 -17
149 -93 170 -93 21 0 58 -26 54 -38 -2 -6 1 -12 7 -12 6 0 11 5 11 10 0 6 7
10 15 10 8 0 15 -9 15 -20 0 -11 5 -20 10 -20 6 0 10 7 10 15 0 30 20 14 21
-17 l1 -33 11 28 c10 26 37 38 37 17 0 -5 -5 -10 -11 -10 -8 0 -8 -5 1 -15 7
-8 10 -24 7 -35 -3 -11 -2 -20 3 -20 4 0 10 14 14 31 7 37 30 34 34 -5 3 -24
5 -26 15 -12 7 9 17 12 24 8 10 -6 10 -29 0 -110 -8 -57 -10 -105 -7 -107 4
-3 11 28 15 68 4 39 9 79 10 87 2 21 24 58 25 42 0 -7 5 -10 10 -7 7 4 9 -2 5
-17 -8 -30 -23 -172 -19 -177 5 -6 22 72 29 133 8 66 25 60 25 -9 0 -29 -3
-36 -10 -25 -8 12 -10 9 -10 -13 0 -16 4 -26 10 -22 6 4 8 -5 5 -22 -12 -79
-15 -177 -5 -167 6 6 13 48 15 94 2 45 6 85 9 88 3 3 6 -4 6 -16 0 -11 3 -23
8 -25 4 -3 4 -71 1 -152 -8 -196 -5 -249 15 -253 9 -2 16 2 16 8 0 6 -5 8 -10
5 -12 -7 -13 70 -3 193 7 100 23 110 18 12 -2 -42 0 -70 6 -70 6 0 7 -9 3 -22
-8 -25 -7 -67 2 -111 4 -20 11 -27 30 -27 14 0 24 -6 24 -15 0 -11 -13 -14
-60 -12 -33 1 -60 5 -60 10 0 6 -5 5 -13 0 -15 -12 -85 -14 -92 -3 -3 4 -20 5
-37 1 -18 -4 -44 -6 -58 -4 -14 1 -86 4 -160 6 -135 4 -187 -3 -175 -24 4 -6
13 -8 21 -5 8 3 14 -1 14 -8 0 -8 5 -16 11 -18 12 -4 14 -67 6 -192 -3 -41 -9
-61 -20 -68 -30 -16 -39 -45 -20 -63 12 -12 14 -22 7 -34 -6 -9 -11 -55 -12
-102 -2 -67 1 -89 13 -99 9 -7 15 -8 15 -2 0 6 -4 12 -9 14 -5 1 -2 19 6 38
15 31 17 32 20 13 5 -24 29 -22 50 5 18 21 30 6 15 -18 -15 -25 -15 -30 1 -30
6 0 19 21 27 48 11 35 19 46 33 44 9 -2 17 2 17 8 0 5 -10 10 -22 10 -13 0
-30 5 -38 10 -20 13 -4 12 43 -1 27 -7 37 -15 33 -25 -3 -9 1 -14 12 -14 15 0
15 -2 2 -10 -8 -5 -10 -10 -5 -10 6 0 1 -7 -9 -15 -16 -12 -17 -15 -4 -15 10
0 16 -9 15 -25 0 -33 -15 -42 -33 -19 -14 18 -14 18 -4 -3 7 -16 7 -29 1 -42
-9 -17 -6 -76 6 -111 3 -8 6 -31 8 -50 1 -19 6 -46 10 -59 6 -17 5 -22 -3 -17
-15 9 -15 3 0 -28 8 -19 14 -23 24 -15 8 7 14 7 19 -1 10 -16 -2 -27 -30 -27
-34 -1 -42 -10 -27 -33 9 -15 9 -22 -3 -34 -8 -8 -15 -24 -15 -34 0 -11 -6
-23 -12 -25 -7 -3 -3 -6 10 -6 17 -1 22 -7 22 -28 0 -14 -3 -23 -7 -20 -3 4
-13 1 -21 -6 -13 -10 -14 -9 -8 9 9 28 -16 49 -40 36 -16 -9 -15 -12 12 -37
37 -35 65 -50 62 -34 -2 6 3 14 11 17 9 3 11 0 6 -8 -4 -7 -2 -16 6 -21 18
-11 32 -11 25 0 -3 5 8 8 25 7 16 -1 33 -6 37 -13 4 -6 28 -14 55 -18 51 -8
56 -12 68 -59 5 -24 7 -26 8 -8 1 19 7 22 39 22 27 0 48 -8 68 -25 28 -24 39
-29 57 -26 17 3 65 -40 71 -63 8 -31 -15 -178 -55 -356 -40 -174 -56 -247 -75
-340 -9 -41 -24 -112 -35 -158 -10 -45 -19 -103 -19 -127 0 -59 29 -87 196
-189 199 -123 350 -228 468 -326 60 -50 112 -90 118 -90 19 0 66 30 72 46 4 9
13 67 22 128 31 227 107 605 168 838 19 69 44 129 45 106 1 -17 31 -79 43 -88
4 -3 10 -24 13 -45 6 -48 42 -141 67 -174 10 -13 18 -34 18 -46 0 -18 4 -22
20 -18 15 4 20 0 20 -14 0 -10 7 -28 15 -39 8 -12 12 -24 9 -27 -3 -3 4 -8 16
-12 18 -6 20 -12 15 -37 -7 -28 -5 -30 16 -23 19 5 21 4 9 -4 -12 -9 -13 -13
-2 -20 15 -9 13 -52 -3 -63 -5 -4 5 -8 23 -8 17 0 32 -5 32 -11 0 -5 -3 -8 -7
-6 -5 3 -26 1 -48 -3 -34 -7 -36 -8 -11 -9 28 -1 28 -2 12 -20 -10 -11 -13
-22 -8 -25 5 -3 13 -26 17 -51 3 -26 13 -49 21 -52 17 -6 18 -34 2 -52 -10
-11 -10 -13 0 -7 9 5 12 -4 12 -33 0 -26 -5 -41 -12 -41 -10 0 -10 -2 -1 -8 7
-4 13 -24 15 -44 1 -23 6 -34 14 -31 8 3 10 -5 6 -22 -2 -15 -1 -30 4 -34 18
-13 34 -52 34 -83 0 -18 5 -51 11 -73 6 -22 12 -51 13 -65 4 -35 15 -86 33
-147 l14 -53 545 0 544 0 -5 110 c-3 60 -10 131 -15 157 -6 27 -12 62 -15 78
-19 121 -66 337 -74 345 -4 3 -7 23 -8 45 -3 45 -5 65 -22 184 -7 47 -13 98
-13 115 0 17 -5 39 -10 49 -5 10 -11 37 -13 60 -3 23 -13 92 -24 152 -42 232
-44 276 -20 457 7 48 16 85 20 82 5 -3 9 -17 9 -31 l0 -26 183 7 c100 3 227 7
282 7 l99 2 8 -29 c16 -55 131 -499 136 -524 2 -14 8 -30 13 -36 4 -5 6 -20 2
-32 -3 -12 -1 -22 4 -22 20 0 75 -237 66 -284 -3 -14 -2 -34 3 -43 11 -25 11
-29 13 -64 0 -17 5 -28 11 -24 8 5 16 -66 11 -98 -1 -4 8 -3 20 4 17 8 20 8
14 -1 -4 -7 -2 -15 4 -19 7 -5 9 -15 5 -26 -7 -16 -8 -16 -17 6 -8 20 -11 21
-14 7 -3 -10 5 -30 16 -44 22 -27 29 -60 11 -49 -12 7 -12 3 1 -55 5 -25 12
-58 15 -75 3 -16 8 -37 11 -45 9 -21 10 -28 12 -50 0 -11 8 -20 16 -20 9 0 15
-9 15 -23 0 -13 4 -27 9 -32 15 -15 25 -85 13 -85 -13 0 -4 -72 10 -81 5 -3 8
-10 7 -15 -6 -33 -1 -34 261 -34 l260 0 6 25 c3 14 10 25 15 25 5 0 7 -11 3
-25 l-6 -25 410 0 c402 0 411 0 417 20 3 11 3 29 0 40 -4 12 -2 20 5 20 8 0 8
6 -1 21 -8 15 -9 146 -3 482 5 254 8 527 8 607 0 106 2 136 9 110 5 -19 7 -54
4 -78 -3 -25 0 -42 6 -42 7 0 8 83 4 261 -4 144 -4 260 -1 257 14 -14 56 -409
74 -693 13 -213 26 -458 26 -508 1 -44 16 -62 61 -72 27 -5 32 -3 38 17 4 13
16 32 26 43 26 29 117 232 194 430 12 33 37 91 55 130 27 61 177 498 209 610
6 22 16 142 21 267 9 209 39 541 89 978 22 195 23 203 46 450 48 528 70 718
91 790 8 31 19 130 24 225 5 94 16 231 24 305 8 74 20 234 26 355 18 338 22
380 40 378 8 -1 47 -11 87 -22 93 -27 175 -36 199 -23 11 6 30 37 43 69 14 32
205 418 426 858 409 816 502 1008 537 1105 41 118 68 232 68 288 0 84 -25 218
-66 352 -20 63 -37 122 -39 130 -11 47 -98 268 -159 405 -15 33 -31 69 -36 80
-62 140 -347 701 -388 765 -9 14 -28 48 -42 75 -27 53 -110 196 -180 310 -41
66 -66 106 -215 335 -219 337 -423 704 -415 745 0 3 -9 15 -22 25 -13 11 -17
19 -10 20 17 0 7 84 -14 117 -8 12 -11 30 -8 40 4 13 3 14 -3 5 -5 -7 -17 -10
-26 -7 -19 8 -31 35 -14 35 21 1 -26 30 -47 30 -12 0 -41 18 -66 40 l-45 40
36 0 c42 0 53 8 38 27 -9 10 -8 13 0 13 26 0 -1 18 -36 25 -32 6 -35 8 -21 19
14 10 13 14 -14 29 -16 9 -27 21 -23 26 3 5 -5 12 -17 14 l-23 4 23 8 c29 10
28 25 -2 25 -14 0 -31 6 -38 13 -7 7 -21 16 -30 20 -27 10 -21 27 9 27 27 0
27 0 7 19 -12 10 -35 22 -52 26 -18 3 -32 10 -32 15 0 4 -9 10 -20 13 -13 3
-18 10 -14 21 4 11 1 16 -10 16 -24 0 -20 12 16 43 19 17 25 26 15 23 -28 -9
-147 -19 -147 -13 0 3 11 18 26 32 25 26 25 57 -1 35 -10 -8 -15 -8 -20 1 -4
6 -4 14 1 18 5 3 11 15 12 26 2 11 13 30 25 42 21 23 16 46 -5 25 -7 -7 -20
-12 -31 -12 -10 0 -16 -4 -13 -9 4 -5 -3 -7 -14 -4 -26 7 -25 11 8 41 15 13
21 21 13 17 -10 -6 -13 -4 -9 6 22 54 22 52 -1 39 -21 -11 -22 -10 -11 10 11
20 10 21 -9 15 -19 -6 -20 -4 -12 18 l10 25 -45 -25 -45 -25 7 27 7 27 -31
-16 c-30 -16 -30 -15 -42 17 -7 17 -14 45 -16 61 -2 16 -9 34 -14 41 -5 7 -7
15 -3 18 3 4 0 7 -7 7 -7 0 -18 7 -25 16 -6 9 -26 17 -43 18 -18 0 -32 6 -32
13 0 7 -7 16 -16 21 -17 9 -17 53 0 107 4 11 -2 1 -13 -21 -22 -48 -40 -62
-52 -43 -6 11 -11 11 -21 1 -16 -16 -28 -15 -28 2 0 11 -9 13 -37 9 -21 -3
-46 -10 -55 -15 -14 -7 -18 -4 -18 12 0 17 -3 19 -19 10 -27 -14 -28 -14 -41
23 -11 31 -12 31 -26 13 -13 -19 -14 -19 -14 7 0 22 -5 27 -25 27 -14 0 -25 6
-25 13 0 8 -11 19 -25 25 -19 9 -25 9 -25 0 0 -6 -9 -3 -19 6 -16 14 -18 23
-10 43 6 17 6 22 -2 18 -6 -4 -13 3 -16 14 -5 21 -7 21 -24 5 -18 -16 -19 -16
-19 0 0 9 -4 14 -10 11 -5 -3 -10 0 -10 7 0 9 -3 9 -10 -2 -7 -12 -10 -8 -10
14 0 28 -1 28 -18 13 -17 -16 -20 -15 -43 6 -13 12 -27 21 -31 19 -5 -1 -8 4
-8 12 0 17 -32 26 -52 15 -8 -4 -27 -10 -42 -13 -16 -3 -31 -7 -33 -10 -3 -2
-14 5 -26 17 -13 13 -22 17 -25 9 -2 -7 -8 -12 -14 -12 -6 0 -8 6 -5 14 4 9
-2 14 -19 14 -20 0 -26 -8 -35 -42 -6 -22 -15 -52 -20 -66 -8 -23 -9 -23 -4 5
4 28 4 28 -7 8 -12 -26 -28 -30 -28 -9 0 8 -7 16 -15 19 -14 6 -15 70 -1 84
11 11 6 23 -9 23 -18 0 -20 26 -2 34 8 3 7 9 -7 20 -14 11 -16 19 -8 28 5 7
11 29 11 48 3 75 14 145 24 152 15 9 21 196 7 246 -11 44 -13 45 -65 25 -15
-5 -19 163 -5 172 27 16 28 50 4 82 -25 33 -30 58 -15 67 5 3 7 15 4 26 -3 11
-1 20 5 20 5 0 13 11 16 25 4 14 11 25 16 25 6 0 10 8 10 18 0 26 11 34 27 21
7 -6 13 -8 13 -3 0 5 5 2 11 -6 8 -11 12 -12 16 -2 6 14 43 16 43 2 0 -5 -6
-10 -12 -10 -10 0 -9 -3 1 -9 8 -5 10 -14 6 -22 -6 -9 -4 -11 7 -6 16 6 32 -9
55 -49 7 -13 10 -44 7 -77 -4 -43 -2 -56 11 -61 11 -4 14 -13 9 -30 -3 -14 1
-36 10 -53 9 -17 15 -22 16 -12 0 9 7 22 15 29 8 7 12 16 9 21 -3 5 -1 9 3 9
5 0 10 11 11 25 1 21 -3 25 -23 25 -31 0 -33 17 -3 22 16 2 22 10 23 31 0 16
-3 31 -8 34 -4 2 -4 10 2 16 6 8 6 30 0 62 -5 28 -9 66 -8 85 1 19 -2 43 -6
54 -5 11 -3 21 5 26 10 6 8 13 -9 31 -18 20 -20 25 -7 27 13 3 11 8 -7 25 -13
13 -21 30 -19 41 2 11 -4 23 -14 30 -17 9 -16 11 11 16 17 4 36 2 43 -3 8 -7
12 -5 12 5 0 21 -11 29 -24 19 -7 -6 -21 -4 -36 4 -14 8 -19 14 -12 15 17 0
15 20 -2 20 -9 0 -12 7 -9 20 3 11 14 20 24 20 10 0 21 5 24 10 4 6 -10 10
-36 10 -36 0 -40 2 -29 15 9 11 9 19 2 28 -13 15 1 42 17 33 6 -4 11 -2 11 3
0 6 -5 11 -11 11 -11 0 -39 25 -39 35 0 3 5 3 12 -1 6 -4 8 -3 4 4 -3 5 0 13
6 16 7 3 2 3 -12 0 -23 -5 -23 -4 -8 9 16 13 16 15 -7 25 -14 6 -25 16 -25 21
0 5 -8 7 -19 4 -11 -3 -21 2 -25 13 -6 15 -4 15 11 3 15 -12 16 -12 10 4 -7
18 3 21 50 18 11 -1 24 3 28 8 4 7 -8 11 -32 11 -21 0 -47 7 -57 15 -19 14
-18 15 15 17 35 1 67 4 84 7 5 0 4 6 -3 13 -15 15 -80 12 -102 -5 -8 -6 -6 -2
4 11 l19 22 -29 -6 c-22 -4 -34 -1 -44 11 -13 16 -12 17 20 11 34 -7 34 -6 11
7 -22 13 -20 14 30 10 51 -5 53 -4 34 11 -11 8 -33 16 -48 16 -29 0 -65 26
-53 38 4 3 12 0 17 -8 8 -11 12 -12 16 -2 2 6 8 10 13 7 4 -3 10 2 14 10 4 12
-4 15 -37 16 -23 0 -36 3 -29 6 20 8 15 43 -7 43 -10 0 -24 7 -31 15 -7 8 -22
15 -34 16 -20 0 -21 1 -1 9 18 8 17 9 -7 9 -19 1 -26 5 -22 15 8 20 -14 30
-32 16 -12 -10 -14 -9 -13 6 4 44 0 56 -21 49 -18 -6 -20 -3 -16 18 4 21 1 24
-16 19 -15 -4 -19 -2 -14 7 11 17 -11 40 -33 34 -12 -3 -20 2 -24 16 -5 21
-27 30 -27 11 0 -5 -4 -10 -10 -10 -5 0 -10 7 -10 15 0 23 -26 18 -38 -7 l-11
-23 -7 23 c-7 25 -14 27 -33 10 -11 -11 -13 -8 -9 15 4 21 2 27 -8 23 -8 -3
-14 0 -14 7 0 8 -4 7 -10 -3 -7 -12 -12 -12 -22 -2 -17 17 -28 15 -28 -5 -1
-15 -4 -14 -21 6 -15 19 -32 25 -74 29 -37 3 -55 1 -55 -7 0 -17 -18 -13 -22
5 -2 9 -6 13 -9 10z m-819 -646 c0 -5 -4 -10 -10 -10 -5 0 -10 5 -10 10 0 6 5
10 10 10 6 0 10 -4 10 -10z m670 -210 c0 -5 -8 -10 -17 -10 -15 0 -16 2 -3 10
19 12 20 12 20 0z m109 -10 c30 1 32 -1 21 -14 -10 -13 -9 -17 5 -22 10 -4 26
-2 36 4 15 10 20 8 30 -11 11 -19 10 -20 -3 -10 -8 7 -18 10 -21 6 -12 -12 -7
-21 14 -26 17 -5 19 -9 10 -26 -14 -26 -14 -31 4 -31 28 0 15 -17 -17 -25 -26
-6 -28 -9 -13 -12 45 -10 51 -15 28 -24 -14 -5 -23 -17 -23 -29 0 -20 -9 -24
-44 -20 -16 1 -17 -3 -11 -27 8 -35 14 -41 24 -24 11 17 17 4 17 -35 -1 -21 3
-30 12 -27 6 3 12 0 12 -6 0 -6 5 -11 10 -11 6 0 10 6 10 14 0 8 5 18 11 21 7
5 8 -6 5 -32 l-6 -38 15 30 c8 17 14 23 15 14 0 -9 10 -19 23 -23 18 -5 20 -8
7 -16 -10 -6 -11 -10 -3 -10 9 0 11 -10 6 -30 -4 -23 -1 -34 12 -44 19 -14 13
-36 -11 -36 -8 0 -15 -10 -16 -22 -1 -13 -2 -31 -3 -40 -1 -28 -15 -34 -22
-10 -6 25 -23 30 -23 7 0 -8 5 -15 10 -15 6 0 10 -7 10 -15 0 -8 -6 -15 -14
-15 -8 0 -16 -5 -18 -11 -2 -7 -12 -7 -32 1 -24 9 -27 8 -18 -3 14 -16 6 -28
-14 -20 -8 3 -14 -1 -14 -11 0 -9 8 -16 17 -16 15 0 14 -2 -3 -16 -19 -15 -18
-15 4 -11 12 3 20 1 16 -4 -3 -5 -11 -9 -18 -9 -8 0 -19 -7 -26 -15 -10 -12
-9 -16 4 -21 12 -5 14 -10 6 -19 -8 -9 -8 -14 1 -17 6 -2 12 -16 12 -30 0 -15
5 -29 13 -32 14 -5 14 -86 -1 -118 -4 -12 -3 -18 5 -18 10 0 10 -3 1 -14 -8
-10 -9 -16 -1 -21 5 -3 10 -26 10 -51 0 -24 5 -44 11 -44 5 0 7 -5 3 -12 -4
-7 -9 -33 -11 -58 -1 -25 -5 -55 -8 -68 -3 -13 3 -39 15 -62 19 -38 20 -41 4
-66 -12 -17 -19 -21 -24 -13 -5 8 -10 5 -14 -9 l-7 -20 -42 20 c-54 26 -55 28
-35 39 10 5 14 17 11 29 -3 13 0 20 8 20 8 0 4 9 -11 21 -19 16 -20 19 -6 15
26 -9 44 10 38 39 -2 14 1 32 8 40 9 10 9 15 1 15 -6 0 -11 9 -11 21 0 11 -7
27 -15 35 -17 17 -21 49 -5 39 16 -10 21 66 5 77 -6 5 -6 8 2 8 14 0 8 72 -8
103 -6 10 -8 25 -5 32 3 8 1 17 -4 20 -6 4 -10 15 -10 26 0 10 -6 28 -12 39
-11 17 -10 22 0 29 10 6 10 11 -3 21 -16 13 -15 15 2 21 14 6 14 8 2 8 -12 1
-14 9 -11 33 4 27 2 30 -16 26 -17 -5 -21 -1 -24 21 -3 24 -7 26 -48 27 -29 1
-44 6 -42 13 4 18 -30 26 -42 9 -19 -25 -45 -17 -58 18 -6 18 -16 30 -22 28
-6 -2 -20 3 -30 11 -15 11 -16 17 -7 28 6 8 9 23 5 33 -5 16 -4 16 5 4 5 -8 8
-26 4 -40 -4 -20 -3 -23 7 -13 7 6 14 24 16 38 1 15 13 38 25 52 20 20 21 26
9 34 -11 8 -8 9 13 5 21 -5 27 -3 27 11 0 24 -11 38 -34 46 -17 7 -18 9 -2 25
9 10 16 33 16 51 0 31 -1 32 -32 27 -18 -3 -27 -3 -19 0 15 7 51 41 51 49 0 2
-7 1 -17 -2 -11 -4 -14 -3 -9 5 4 7 13 12 21 12 20 0 73 54 80 83 4 16 15 27
28 29 13 2 21 9 20 18 -4 22 47 48 82 43 17 -2 45 -3 64 -3z m71 -2 c0 -4 -4
-8 -9 -8 -6 0 -12 4 -15 8 -3 5 1 9 9 9 8 0 15 -4 15 -9z m-280 -83 c-7 -9
-15 -13 -17 -11 -7 7 7 26 19 26 6 0 6 -6 -2 -15z m-50 -53 c0 -13 -12 -22
-22 -16 -10 6 -1 24 13 24 5 0 9 -4 9 -8z m387 -94 c-3 -8 -6 -5 -6 6 -1 11 2
17 5 13 3 -3 4 -12 1 -19z m-427 -58 c0 -5 -4 -10 -10 -10 -5 0 -10 5 -10 10
0 6 5 10 10 10 6 0 10 -4 10 -10z m510 -181 c0 -5 -4 -9 -10 -9 -5 0 -10 7
-10 16 0 8 5 12 10 9 6 -3 10 -10 10 -16z m747 -45 c-3 -3 -12 -4 -19 -1 -8 3
-5 6 6 6 11 1 17 -2 13 -5z m-1277 -65 c0 -11 -4 -17 -10 -14 -5 3 -10 13 -10
21 0 8 5 14 10 14 6 0 10 -9 10 -21z m740 -253 c0 -3 -4 -8 -10 -11 -5 -3 -10
-1 -10 4 0 6 5 11 10 11 6 0 10 -2 10 -4z m-70 -46 c0 -10 15 -31 33 -45 l32
-27 -39 7 c-87 15 -103 33 -65 73 22 25 39 21 39 -8z m-810 4 c0 -8 13 -29 29
-45 45 -45 111 -36 131 17 9 23 12 24 25 10 23 -22 18 -33 -21 -52 -25 -12
-58 -17 -102 -16 -56 1 -69 5 -94 29 -34 33 -37 55 -5 51 13 -2 21 2 20 10 -2
6 2 12 7 12 6 0 10 -7 10 -16z m1030 2 c0 -8 -7 -16 -15 -20 -15 -5 -21 14 -8
27 11 12 23 8 23 -7z m-60 -45 c-6 -12 -20 -21 -31 -21 -19 0 -18 2 8 29 30
30 42 26 23 -8z m86 -8 c-18 -33 -21 -26 -6 13 6 15 13 24 16 21 3 -3 -1 -18
-10 -34z m-902 -160 c20 -3 36 -2 36 3 0 5 11 10 25 10 22 2 24 -1 19 -25 -9
-36 -13 -41 -30 -41 -23 0 -16 -14 16 -33 17 -10 30 -23 30 -29 0 -6 -11 -3
-25 6 -31 20 -35 20 -35 -3 0 -15 5 -18 22 -13 18 4 20 2 14 -14 -4 -10 -8
-21 -8 -24 -2 -20 4 -30 17 -30 10 0 15 -11 16 -32 3 -57 4 -63 11 -73 9 -14
-32 -127 -51 -142 -16 -12 -35 -8 -26 6 2 5 -6 8 -18 7 -18 -1 -24 7 -32 39
-8 30 -17 41 -33 43 -16 2 -22 10 -22 27 0 13 5 27 11 30 7 5 5 13 -6 25 -9
10 -14 24 -10 29 5 10 -14 16 -37 12 -5 0 -8 6 -8 14 0 8 7 15 16 15 13 0 11
5 -8 23 -14 13 -30 32 -36 43 -9 15 -13 16 -21 5 -11 -17 -17 -6 -26 47 -7 44
6 57 33 30 6 -6 15 -8 19 -4 4 4 1 11 -7 16 -12 8 -10 10 10 11 14 1 29 1 33
0 4 -1 10 7 14 16 13 37 25 45 43 28 10 -9 34 -19 54 -22z m-17 21 c-3 -3 -12
-4 -19 -1 -8 3 -5 6 6 6 11 1 17 -2 13 -5z m-157 -34 c0 -5 -7 -10 -15 -10 -8
0 -15 5 -15 10 0 6 7 10 15 10 8 0 15 -4 15 -10z m920 -20 c-8 -5 -19 -10 -25
-10 -5 0 -3 5 5 10 8 5 20 10 25 10 6 0 3 -5 -5 -10z m-544 -27 c-10 -10 -19
5 -10 18 6 11 8 11 12 0 2 -7 1 -15 -2 -18z m44 7 c0 -5 -4 -10 -10 -10 -5 0
-10 5 -10 10 0 6 5 10 10 10 6 0 10 -4 10 -10z m410 -21 c0 -6 -4 -7 -10 -4
-5 3 -10 11 -10 16 0 6 5 7 10 4 6 -3 10 -11 10 -16z m34 -20 c-21 -24 -24
-21 -17 14 4 22 8 25 19 16 12 -10 12 -15 -2 -30z m73 26 c8 -9 13 -19 10 -22
-6 -5 -37 21 -37 31 0 10 11 6 27 -9z m-972 -15 c3 -5 1 -10 -4 -10 -6 0 -11
5 -11 10 0 6 2 10 4 10 3 0 8 -4 11 -10z m415 -114 c0 -3 -4 -8 -10 -11 -5 -3
-10 -1 -10 4 0 6 5 11 10 11 6 0 10 -2 10 -4z m17 -85 c11 -18 8 -22 -31 -41
-25 -11 -47 -28 -50 -36 -10 -26 -25 -5 -17 24 6 21 14 28 40 30 27 3 32 7 28
23 -7 25 15 25 30 0z m428 -50 c3 -5 1 -12 -5 -16 -5 -3 -10 1 -10 9 0 18 6
21 15 7z m-685 -38 c0 -10 -5 -25 -11 -33 -9 -12 -10 -12 -5 4 4 10 1 25 -5
32 -9 11 -8 14 5 14 9 0 16 -8 16 -17z m300 -394 c0 -13 -13 -11 -35 5 -18 13
-18 14 8 9 15 -3 27 -9 27 -14z m65 11 c3 -5 2 -10 -4 -10 -5 0 -13 5 -16 10
-3 6 -2 10 4 10 5 0 13 -4 16 -10z m100 0 c3 -5 1 -10 -4 -10 -6 0 -11 5 -11
10 0 6 2 10 4 10 3 0 8 -4 11 -10z m-535 -14 c0 -2 -7 -9 -15 -16 -13 -11 -14
-10 -9 4 5 14 24 23 24 12z m565 -2606 c-3 -5 -10 -10 -16 -10 -5 0 -9 5 -9
10 0 6 7 10 16 10 8 0 12 -4 9 -10z m29 -29 c4 -5 -3 -7 -14 -4 -23 6 -26 13
-6 13 8 0 17 -4 20 -9z m-48 -83 c-9 -5 -24 -7 -34 -5 -12 3 -11 5 6 6 12 0
22 6 22 12 0 5 5 7 11 3 8 -5 6 -10 -5 -16z m51 -10 c-3 -8 -6 -5 -6 6 -1 11
2 17 5 13 3 -3 4 -12 1 -19z m-37 -33 c0 -7 7 -15 15 -19 8 -3 14 -16 14 -28
l-2 -23 -4 23 c-2 12 -11 22 -19 22 -8 0 -14 4 -14 9 0 5 -3 17 -7 27 -4 12
-3 15 5 10 7 -4 12 -13 12 -21z m-40 1 c0 -3 -4 -8 -10 -11 -5 -3 -10 -1 -10
4 0 6 5 11 10 11 6 0 10 -2 10 -4z m33 -57 c5 -4 7 -15 2 -25 -7 -18 -8 -18
-15 1 -5 11 -8 31 -8 45 0 20 1 21 5 5 3 -11 10 -23 16 -26z m80 25 c-8 -4
-10 -23 -7 -56 5 -52 5 -52 -16 -33 -18 16 -20 16 -20 2 0 -10 -7 -17 -16 -17
-25 0 -13 44 14 48 17 3 22 10 22 33 0 21 5 29 18 28 9 0 12 -3 5 -5z m-121
-16 c3 -7 2 -23 0 -36 -4 -18 -7 -20 -13 -10 -12 18 -11 58 0 58 5 0 11 -5 13
-12z m-21 -69 c14 -12 16 -18 6 -29 -9 -10 -9 -13 1 -17 6 -3 12 -9 12 -14 0
-4 -7 -6 -15 -3 -9 4 -15 19 -15 35 0 19 -5 29 -15 29 -8 0 -15 -7 -15 -17 0
-9 -3 -14 -6 -10 -3 3 0 20 7 37 8 16 16 24 18 18 2 -7 12 -20 22 -29z m57 0
c-2 -6 -8 -10 -13 -10 -5 0 -11 4 -13 10 -2 6 4 11 13 11 9 0 15 -5 13 -11z
m63 -80 c11 -11 19 -25 18 -31 0 -10 -2 -10 -6 0 -8 20 -33 14 -33 -8 0 -11 5
-20 10 -20 6 0 10 -13 10 -29 0 -17 5 -33 11 -36 6 -4 8 -25 5 -51 -3 -34 -1
-44 10 -44 8 0 14 5 14 10 0 6 7 10 16 10 13 0 15 -8 12 -40 -2 -22 0 -40 4
-40 5 0 8 12 8 28 1 25 1 26 12 7 6 -11 10 -40 9 -66 -2 -34 2 -48 13 -52 11
-4 16 -1 17 11 0 13 3 11 9 -6 5 -12 6 -30 3 -39 -4 -11 -3 -14 5 -9 7 4 12 2
12 -3 0 -6 -4 -11 -10 -11 -5 0 -10 -5 -10 -11 0 -6 8 -9 18 -7 15 4 18 0 15
-21 -4 -22 -3 -24 7 -8 8 13 15 15 30 7 13 -7 20 -6 24 3 3 6 2 -1 -1 -18 -3
-16 -10 -31 -15 -33 -14 -6 -9 -39 7 -39 8 0 15 6 15 14 0 7 8 13 18 13 14 0
15 -2 2 -10 -13 -9 -13 -10 0 -11 8 -1 23 -1 33 0 12 2 17 -5 17 -21 0 -13 -3
-18 -8 -12 -4 6 -16 14 -27 18 -16 5 -20 1 -20 -20 0 -19 4 -24 17 -21 9 3 19
-2 22 -10 3 -8 2 -12 -3 -9 -7 5 -8 -19 -2 -86 0 -11 9 -18 22 -18 11 0 17 5
14 10 -4 6 -11 8 -16 5 -16 -10 -10 73 7 89 8 9 17 16 19 16 13 0 35 -36 36
-58 0 -27 0 -27 10 -4 5 13 7 28 4 32 -3 5 3 8 14 7 14 -1 17 -5 11 -17 -4 -8
-4 -24 1 -35 4 -11 8 -14 8 -7 1 6 5 12 9 12 5 0 7 -13 4 -30 -3 -21 0 -32 12
-36 24 -9 21 -37 -4 -29 -22 7 -28 -10 -7 -18 18 -7 10 -77 -9 -77 -8 0 -14
-4 -14 -10 0 -5 4 -10 9 -10 4 0 6 -11 3 -25 -2 -15 0 -25 7 -25 6 0 10 3 9 8
-1 4 4 20 10 35 7 16 12 42 12 58 0 16 5 29 11 29 13 0 3 -114 -11 -118 -6 -2
-10 -12 -10 -22 0 -9 -7 -23 -15 -30 -17 -14 -20 -30 -5 -30 6 0 16 11 22 25
13 29 28 33 28 8 1 -12 6 -7 15 12 11 22 13 24 9 6 -5 -21 -3 -23 15 -18 23 6
24 5 15 -17 -3 -9 -12 -16 -20 -16 -22 0 -17 -27 6 -33 11 -3 20 -11 20 -17 0
-7 -8 -10 -20 -7 -23 6 -27 -11 -5 -19 21 -9 19 -32 -5 -39 -11 -3 -20 -9 -20
-13 0 -4 -3 -18 -6 -32 l-6 -25 16 23 c30 39 56 23 56 -34 0 -13 5 -23 11 -21
6 1 14 -4 16 -11 3 -8 -1 -10 -11 -6 -9 3 -16 1 -16 -5 0 -6 6 -11 13 -12 6 0
1 -5 -13 -11 -14 -6 -20 -12 -13 -15 8 -3 9 -13 3 -34 -5 -17 -5 -29 1 -29 5
0 9 5 9 10 0 6 5 10 10 10 7 0 7 -6 1 -19 -6 -10 -7 -21 -4 -25 3 -3 -3 -6
-14 -6 -12 0 -23 -6 -26 -12 -3 -9 -7 -7 -12 6 -5 11 -3 21 4 26 10 5 9 9 -3
13 -13 5 -16 -1 -16 -25 0 -28 -1 -30 -13 -14 -12 16 -13 16 -29 -1 -19 -22
-34 -113 -19 -113 6 0 11 11 11 25 0 14 4 25 9 25 6 0 6 -12 0 -32 -5 -18 -9
-34 -9 -35 0 -2 -4 -3 -9 -3 -12 0 -26 39 -22 63 1 9 -3 17 -8 17 -6 0 -11
-11 -11 -24 0 -14 -4 -28 -10 -31 -5 -3 -10 -15 -10 -26 0 -10 5 -19 10 -19 6
0 10 -4 10 -9 0 -4 -12 -7 -27 -5 -27 3 -43 -9 -43 -34 0 -8 8 -10 25 -6 22 5
25 3 23 -17 -2 -19 2 -23 22 -24 14 0 34 4 45 10 11 5 27 10 35 11 8 1 23 5
33 9 10 4 17 3 17 -4 0 -7 9 -9 23 -6 25 7 56 -18 39 -29 -6 -3 -12 1 -16 9
-8 22 -26 18 -26 -5 0 -11 -7 -20 -15 -20 -8 0 -15 -7 -15 -15 0 -8 7 -15 16
-15 12 0 14 -7 9 -30 -4 -19 -3 -30 4 -30 6 0 11 6 11 14 0 8 5 18 11 22 9 5
10 -1 5 -20 -4 -15 -2 -26 4 -26 21 0 9 -18 -17 -25 -15 -3 -30 -10 -33 -13
-3 -4 -43 -15 -89 -24 -67 -14 -88 -15 -100 -5 -12 10 -14 9 -9 -4 6 -14 -6
-19 -75 -29 -45 -7 -113 -14 -151 -16 -38 -3 -73 -7 -77 -10 -5 -3 -9 0 -9 7
0 9 -3 9 -14 0 -22 -18 -456 -8 -467 11 -7 11 -9 11 -9 0 0 -18 -92 -5 -103
14 -6 10 -13 11 -26 4 -16 -8 -20 -5 -23 15 -3 13 -1 30 3 37 4 7 4 15 -2 18
-5 4 0 16 11 28 l20 21 -20 11 c-20 10 -19 12 12 40 26 24 38 28 70 25 21 -2
38 -1 39 3 1 4 2 31 4 61 1 32 8 57 16 62 13 8 6 13 -13 10 -21 -3 8 62 36 81
8 5 7 8 -1 8 -6 0 -18 -7 -26 -15 -17 -16 -28 -10 -20 11 3 8 -1 14 -8 14 -24
1 23 30 50 31 23 2 23 2 4 6 -12 2 -24 11 -27 20 -9 22 -1 27 21 13 17 -11 17
-11 0 -6 -11 3 -15 2 -12 -4 3 -6 17 -10 31 -10 14 0 22 -4 19 -10 -3 -6 4
-10 16 -10 20 0 19 3 -13 33 -39 37 -53 73 -32 81 8 3 14 10 14 17 0 6 -7 9
-15 5 -9 -3 -15 0 -15 10 0 8 -5 12 -10 9 -6 -3 -8 -17 -6 -31 3 -13 2 -24 -2
-24 -30 1 -58 61 -42 90 17 32 12 40 -25 35 -19 -2 -35 0 -35 5 0 9 29 15 58
11 7 -1 12 5 10 15 -2 9 3 19 10 21 6 3 12 -2 12 -11 0 -9 5 -16 10 -16 6 0
10 5 10 10 0 6 7 10 15 10 8 0 15 5 15 11 0 6 -7 9 -15 5 -17 -6 -21 30 -5 54
8 12 10 10 11 -10 l0 -25 11 23 c6 12 15 22 20 22 4 0 8 7 8 15 0 9 -9 15 -25
15 -14 0 -25 5 -25 10 0 6 -8 10 -17 11 -10 0 -5 4 10 9 16 5 35 6 43 3 9 -3
14 1 14 11 0 9 -7 19 -15 22 -8 4 -15 10 -15 15 0 5 7 9 15 9 8 0 15 5 15 10
0 6 5 10 10 10 6 0 10 -7 10 -15 0 -8 5 -15 11 -15 6 0 8 9 4 20 -7 22 10 28
18 6 10 -26 -3 -54 -24 -49 -20 6 -24 -4 -11 -24 5 -8 14 -7 32 7 18 14 24 27
23 54 -1 44 16 37 18 -7 2 -30 2 -30 6 -5 2 15 -3 38 -11 50 -9 12 -16 17 -16
10 0 -6 -10 -12 -22 -12 -17 0 -19 3 -9 9 8 5 14 23 15 40 1 17 6 31 14 31 6
0 12 5 12 10 0 6 -5 10 -11 10 -5 0 -9 8 -8 18 3 33 -1 52 -11 52 -6 0 -9 -5
-8 -12 2 -6 -6 -13 -17 -15 -11 -1 -14 0 -7 3 19 9 14 24 -5 17 -16 -6 -16 -5
-5 10 18 21 6 39 -21 32 -20 -6 -21 -5 -4 8 9 8 17 17 17 21 0 13 -28 35 -35
28 -4 -4 -4 3 -1 16 5 13 3 22 -3 22 -6 0 -11 13 -11 29 0 22 4 29 18 27 9 -2
20 2 24 8 4 6 8 -2 8 -19 0 -22 -3 -26 -9 -16 -6 10 -8 2 -6 -23 5 -48 15 -60
15 -17 0 19 4 30 10 26 5 -3 7 0 4 8 -3 8 2 17 10 20 9 4 16 17 17 29 1 22 1
22 10 -2 l8 -25 -1 25 c-1 48 2 61 12 55 18 -11 11 3 -15 31 -14 15 -23 30
-20 33 4 3 10 -1 15 -9 8 -12 10 -11 10 7 0 12 6 24 13 27 9 5 9 7 0 12 -8 3
-10 16 -7 33 4 16 1 32 -5 35 -6 4 -11 14 -11 22 0 8 5 12 10 9 6 -3 10 0 10
7 0 24 24 68 38 68 19 0 14 -23 -13 -54 -27 -31 -30 -42 -16 -51 5 -3 12 5 14
17 3 17 5 14 6 -10 0 -18 5 -31 10 -28 5 3 7 25 4 49 -3 31 -2 38 6 27 8 -11
11 -4 11 33 0 30 4 46 10 42 6 -3 10 0 11 7 0 7 4 4 9 -7 7 -16 9 -13 9 18 1
20 5 37 10 37 5 0 7 -10 4 -22 l-4 -23 13 23 c8 12 17 19 21 16 4 -4 7 -2 7 4
0 7 -4 12 -10 12 -14 0 -13 47 1 56 6 3 9 15 6 25 -3 11 -1 19 4 19 5 0 9 -19
10 -42 0 -24 3 -36 6 -28 3 8 11 18 17 23 8 5 6 10 -4 17 -12 7 -12 12 -2 22
10 10 14 10 21 -1 5 -7 6 -21 4 -31 -3 -10 0 -21 6 -24 7 -5 11 3 11 21 0 22
2 25 10 13 9 -13 10 -13 11 0 1 8 5 2 9 -15 l8 -30 1 30 c1 23 3 27 11 15 5
-8 7 -23 4 -32 -4 -13 -1 -16 10 -12 9 3 16 18 17 33 l1 26 7 -25 7 -25 6 23
c4 15 2 25 -7 29 -11 4 -12 8 -2 18 7 8 13 9 16 3 2 -6 12 -19 22 -29z m24 31
c3 -5 1 -10 -4 -10 -6 0 -11 5 -11 10 0 6 2 10 4 10 3 0 8 -4 11 -10z m-87
-31 c-3 -8 -7 -3 -11 10 -4 17 -3 21 5 13 5 -5 8 -16 6 -23z m-171 -21 c-3 -8
-6 -5 -6 6 -1 11 2 17 5 13 3 -3 4 -12 1 -19z m-20 -30 c-3 -7 -5 -2 -5 12 0
14 2 19 5 13 2 -7 2 -19 0 -25z m313 2 c0 -5 -5 -10 -11 -10 -5 0 -7 5 -4 10
3 6 8 10 11 10 2 0 4 -4 4 -10z m-43 -62 c-3 -8 -6 -5 -6 6 -1 11 2 17 5 13 3
-3 4 -12 1 -19z m96 15 c-13 -2 -23 -11 -23 -19 0 -8 -7 -14 -15 -14 -12 0
-12 3 2 20 10 11 27 19 38 19 18 -2 17 -2 -2 -6z m-60 -64 c-4 -15 -9 -17 -17
-9 -8 8 -7 13 4 20 8 5 16 10 17 10 0 0 -1 -9 -4 -21z m-423 -195 c0 -3 -7 -1
-15 6 -8 7 -15 17 -15 22 0 5 7 3 15 -6 8 -8 15 -18 15 -22z m0 -84 c0 -5 -2
-10 -4 -10 -3 0 -8 5 -11 10 -3 6 -1 10 4 10 6 0 11 -4 11 -10z m-20 -70 c0
-5 -4 -10 -10 -10 -5 0 -10 5 -10 10 0 6 5 10 10 10 6 0 10 -4 10 -10z m-94
-47 c-4 -4 -12 -1 -19 7 -9 10 -9 11 1 6 7 -4 12 -2 13 6 0 11 2 11 6 0 3 -7
2 -16 -1 -19z m929 -73 c3 -5 1 -10 -4 -10 -6 0 -11 5 -11 10 0 6 2 10 4 10 3
0 8 -4 11 -10z m2015 -17 c12 -16 62 -72 112 -126 104 -113 103 -99 17 -217
-60 -83 -70 -126 -44 -198 l18 -48 -28 -43 c-20 -29 -31 -38 -36 -29 -9 17
-50 352 -74 616 -8 79 0 89 35 45z m-1990 -53 c0 -5 -5 -10 -11 -10 -5 0 -7 5
-4 10 3 6 8 10 11 10 2 0 4 -4 4 -10z m-850 -117 c0 -15 -3 -23 -7 -19 -11 10
-11 56 -1 50 4 -3 8 -17 8 -31z m-160 -273 c0 -13 -6 -20 -17 -19 -11 0 -13 3
-5 6 6 2 12 11 12 19 0 8 2 14 5 14 3 0 5 -9 5 -20z m1130 -20 c0 -5 -5 -10
-11 -10 -5 0 -7 5 -4 10 3 6 8 10 11 10 2 0 4 -4 4 -10z m-30 -4 c0 -3 -4 -8
-10 -11 -5 -3 -10 -1 -10 4 0 6 5 11 10 11 6 0 10 -2 10 -4z m30 -32 c0 -8 -5
-12 -10 -9 -6 4 -8 11 -5 16 9 14 15 11 15 -7z m-1180 -34 c0 -5 -4 -10 -10
-10 -5 0 -10 5 -10 10 0 6 5 10 10 10 6 0 10 -4 10 -10z m36 -34 c-1 -53 -16
-75 -16 -23 0 32 8 67 15 67 1 0 2 -20 1 -44z m1139 24 c3 -6 -1 -7 -9 -4 -18
7 -21 14 -7 14 6 0 13 -4 16 -10z m-1168 -62 c-2 -13 -4 -5 -4 17 -1 22 1 32
4 23 2 -10 2 -28 0 -40z m-20 20 c-3 -8 -6 -5 -6 6 -1 11 2 17 5 13 3 -3 4
-12 1 -19z m-27 -56 c0 -8 -1 -13 -3 -11 -1 2 -9 12 -16 22 -12 15 -12 17 3
11 9 -3 16 -13 16 -22z m1204 2 c3 -8 2 -12 -4 -9 -6 3 -10 10 -10 16 0 14 7
11 14 -7z m-1180 -9 c3 -8 1 -15 -4 -15 -6 0 -10 7 -10 15 0 8 2 15 4 15 2 0
6 -7 10 -15z m96 11 c0 -3 -4 -8 -10 -11 -5 -3 -10 -1 -10 4 0 6 5 11 10 11 6
0 10 -2 10 -4z m40 -10 c0 -3 -4 -8 -10 -11 -5 -3 -10 -1 -10 4 0 6 5 11 10
11 6 0 10 -2 10 -4z m-33 -32 c-3 -3 -12 -4 -19 -1 -8 3 -5 6 6 6 11 1 17 -2
13 -5z m1013 -84 c0 -5 -4 -10 -10 -10 -5 0 -10 5 -10 10 0 6 5 10 10 10 6 0
10 -4 10 -10z m-15 -29 c-3 -6 2 -14 10 -19 16 -9 11 -42 -7 -42 -5 0 -6 -6
-2 -12 5 -10 4 -10 -6 -1 -11 10 -11 15 0 28 10 12 10 15 -4 15 -18 0 -19 2
-10 24 3 9 10 16 16 16 5 0 7 -4 3 -9z m-92 -61 c3 -11 1 -20 -4 -20 -5 0 -9
9 -9 20 0 11 2 20 4 20 2 0 6 -9 9 -20z m516 -23 c16 -92 6 -168 -19 -152 -6
4 -7 -1 -3 -11 4 -12 3 -15 -5 -10 -7 4 -10 2 -6 -7 3 -8 -3 -20 -12 -28 -16
-12 -17 -12 -11 5 7 18 6 18 -18 2 -14 -9 -25 -13 -26 -9 0 5 -2 20 -4 35 -2
16 3 35 12 43 12 13 13 18 2 31 -10 13 -9 22 6 50 11 20 25 33 34 32 11 -2 15
4 13 19 -2 17 1 20 16 16 10 -2 20 -10 21 -16z m-459 -21 c0 -3 -4 -8 -10 -11
-5 -3 -10 -1 -10 4 0 6 5 11 10 11 6 0 10 -2 10 -4z m155 -86 c3 -5 1 -10 -4
-10 -6 0 -11 5 -11 10 0 6 2 10 4 10 3 0 8 -4 11 -10z m-1255 -113 c13 4 13 3
1 -5 -8 -6 -21 -8 -29 -5 -8 3 -18 0 -24 -8 -8 -11 -9 -10 -4 4 3 10 6 23 6
29 0 6 8 4 18 -4 9 -9 24 -13 32 -11z m-10 -37 c0 -5 -5 -10 -11 -10 -5 0 -7
5 -4 10 3 6 8 10 11 10 2 0 4 -4 4 -10z m-60 -15 c0 -8 -4 -15 -10 -15 -5 0
-7 7 -4 15 4 8 8 15 10 15 2 0 4 -7 4 -15z m40 -15 c0 -5 -4 -10 -10 -10 -5 0
-10 5 -10 10 0 6 5 10 10 10 6 0 10 -4 10 -10z m194 -137 c8 3 17 1 20 -6 5
-9 7 -9 12 1 3 6 15 12 25 12 11 0 18 -4 15 -9 -9 -15 46 -28 87 -21 21 4 40
3 43 -2 4 -6 15 -8 25 -5 13 4 19 0 19 -11 1 -14 3 -14 16 3 12 16 16 17 23 6
7 -10 10 -11 16 -1 6 10 11 9 21 -5 10 -13 20 -16 41 -10 40 11 73 12 73 2 0
-4 4 -6 9 -2 5 3 13 0 16 -6 4 -5 13 -8 20 -5 7 2 16 -3 20 -12 6 -16 8 -15
20 2 12 16 17 17 30 6 8 -7 15 -9 15 -4 0 5 17 9 37 9 28 0 41 -6 50 -21 13
-23 63 -39 63 -20 0 6 4 5 9 -3 5 -8 16 -11 30 -6 22 7 30 -10 9 -18 -8 -3 -7
-6 4 -6 9 -1 20 4 24 11 5 8 12 2 20 -17 l12 -30 11 25 c8 21 10 22 10 6 1
-16 4 -17 13 -8 18 18 30 14 23 -8 -4 -11 -2 -20 4 -20 6 0 11 12 11 28 0 21
2 24 10 12 5 -8 10 -25 10 -37 0 -14 6 -23 15 -23 9 0 18 -7 21 -15 4 -8 11
-15 16 -15 6 0 8 7 5 15 -4 8 -2 17 4 21 18 11 19 -2 5 -49 -8 -26 -10 -47 -5
-47 4 0 6 -7 3 -15 -6 -15 -34 -21 -34 -7 0 4 -24 7 -52 7 -31 0 -52 4 -51 10
1 6 -7 11 -17 11 -10 0 -17 -3 -14 -7 2 -4 -4 -6 -13 -4 -38 8 -189 34 -218
39 -55 7 -110 17 -159 28 -28 6 -59 12 -70 13 -12 1 -24 3 -28 4 -4 0 -5 9 -2
19 5 16 5 16 -5 0 -13 -19 -40 -17 -149 9 -35 8 -69 16 -77 17 -8 1 -18 5 -21
9 -4 4 -20 7 -35 7 -15 0 -34 7 -42 15 -12 11 -17 12 -20 2 -3 -9 -7 -9 -17 0
-7 6 -19 9 -28 6 -10 -4 -13 -2 -8 5 3 6 2 13 -4 17 -5 3 -10 1 -10 -5 0 -7
-6 -10 -12 -7 -7 2 -12 10 -10 16 1 6 -2 11 -8 11 -5 0 -10 -8 -10 -17 -1 -17
-1 -17 -14 0 -7 9 -20 17 -28 17 -21 0 -40 24 -32 43 3 9 12 13 20 10 8 -3 14
-1 14 5 0 6 -6 12 -12 15 -7 2 -10 8 -6 12 5 5 16 1 26 -8 16 -15 21 -15 39
-2 15 10 29 12 51 5 18 -4 31 -5 31 -2 -3 19 2 23 16 12 8 -7 21 -10 29 -7z
m1059 -218 c-3 -9 -8 -14 -10 -11 -3 3 -2 9 2 15 9 16 15 13 8 -4z m-35 -65
c14 -23 5 -26 -20 -6 -21 16 -23 26 -5 26 7 0 18 -9 25 -20z m37 -58 c-3 -3
-11 0 -18 7 -9 10 -8 11 6 5 10 -3 15 -9 12 -12z m549 -516 c22 -81 -44 -216
-106 -216 -77 0 -61 183 19 220 18 8 33 21 33 27 0 21 47 -6 54 -31z m-3848
-423 c-3 -10 -8 -45 -11 -78 -4 -33 -11 -75 -17 -93 -10 -33 -10 -33 -25 -12
-37 53 -5 198 45 200 8 0 11 -7 8 -17z m5098 -58 c22 -23 38 -91 30 -128 -21
-98 -78 -143 -123 -98 -51 51 -45 151 11 207 36 37 59 42 82 19z m-1052 -734
c25 -32 24 -115 -3 -165 -58 -109 -146 -99 -150 17 -3 59 36 141 62 134 11 -3
17 -1 13 4 -3 5 2 9 10 9 9 0 16 6 16 14 0 21 30 13 52 -13z m-4237 -1113 c-4
-29 -7 -78 -6 -108 1 -30 1 -82 1 -115 0 -67 -29 -330 -39 -359 -5 -12 -14 17
-25 80 -10 55 -27 126 -38 159 -27 82 -31 164 -10 265 17 81 19 85 50 96 18 5
37 15 44 22 24 24 31 12 23 -40z m-206 -264 c-4 -61 -19 -56 -19 7 0 32 4 48
10 44 6 -4 10 -27 9 -51z m42 -161 c0 -21 0 -74 -1 -118 0 -57 2 -76 10 -65 8
13 10 13 10 -2 0 -21 -15 -24 -27 -5 -10 15 -11 227 0 227 4 0 7 -17 8 -37z
m36 -115 c-3 -8 -6 -5 -6 6 -1 11 2 17 5 13 3 -3 4 -12 1 -19z m-357 -208 c0
-16 -4 -30 -10 -30 -11 0 -14 43 -3 53 11 12 13 8 13 -23z m430 -152 c-1 -101
-7 -289 -15 -418 -16 -272 -13 -240 -22 -240 -5 0 -9 98 -10 218 -2 163 2 236
13 292 9 41 14 100 13 130 -4 105 1 200 11 200 6 0 10 -67 10 -182z m-454 97
c-8 -23 -25 -9 -19 16 4 13 9 17 16 10 5 -5 7 -17 3 -26z m-74 -20 c-15 -13
-28 -22 -29 -21 -8 7 12 46 26 49 30 7 31 -4 3 -28z m-105 -3 c17 -11 2 -66
-19 -70 -13 -2 -18 4 -18 19 0 16 4 20 18 14 14 -5 15 -4 5 6 -25 25 -14 49
14 31z m147 -10 c3 -4 0 -26 -5 -48 -6 -21 -10 -51 -10 -65 1 -15 -5 -29 -14
-33 -8 -3 -15 -12 -15 -21 0 -31 -20 -14 -21 18 0 29 -1 30 -9 10 -5 -13 -14
-23 -20 -23 -14 0 -13 37 1 46 8 5 8 8 0 14 -16 10 -2 41 17 38 9 -2 18 5 20
15 4 19 32 55 44 56 4 1 9 -3 12 -7z m-94 -32 c0 -5 -4 -10 -9 -10 -6 0 -13 5
-16 10 -3 6 1 10 9 10 9 0 16 -4 16 -10z m-30 -79 c0 -6 -4 -13 -10 -16 -5 -3
-10 1 -10 9 0 9 5 16 10 16 6 0 10 -4 10 -9z m405 -32 c0 -8 -6 -13 -12 -11
-8 1 -13 -9 -13 -28 0 -17 -7 -33 -17 -39 -16 -9 -16 -10 5 -11 13 0 22 -6 22
-16 0 -9 -5 -12 -12 -8 -7 4 -9 3 -5 -1 4 -5 15 -10 23 -11 9 -1 23 -5 32 -9
14 -5 14 -7 2 -16 -11 -8 -12 -12 -2 -16 13 -5 17 -33 4 -33 -4 0 -7 -36 -7
-79 0 -70 -3 -83 -24 -105 -14 -14 -21 -29 -16 -33 4 -5 10 -2 12 5 5 14 23
16 23 3 0 -5 -7 -16 -15 -24 -10 -11 -12 -23 -6 -45 5 -17 7 -33 3 -36 -3 -3
-1 -6 4 -6 12 0 16 -58 4 -65 -22 -14 -8 -23 19 -12 30 11 66 3 57 -12 -4 -5
-6 -29 -7 -53 -1 -56 -8 -80 -21 -72 -6 4 -6 -2 1 -15 10 -17 9 -21 -3 -21
-54 0 -108 65 -121 148 -4 23 -12 42 -19 42 -7 0 -21 7 -32 16 -18 14 -17 15
21 10 22 -3 34 -2 28 2 -8 5 -12 27 -11 57 2 37 -2 51 -15 59 -10 6 -32 23
-48 38 -17 14 -44 32 -61 39 -29 12 -30 14 -22 53 4 23 7 58 6 78 -1 26 4 41
16 50 10 7 21 20 24 29 4 9 25 26 49 38 33 17 44 19 50 9 4 -7 11 -9 15 -6 3
4 -1 14 -10 23 -22 22 -20 37 5 59 16 13 24 15 29 6 5 -8 10 -2 14 15 7 27 31
30 31 4z m-440 -59 c3 -5 1 -10 -4 -10 -6 0 -11 5 -11 10 0 6 2 10 4 10 3 0 8
-4 11 -10z m460 -50 c3 -5 -1 -10 -10 -10 -9 0 -13 5 -10 10 3 6 8 10 10 10 2
0 7 -4 10 -10z m-355 -20 c0 -5 -2 -10 -4 -10 -3 0 -8 5 -11 10 -3 6 -1 10 4
10 6 0 11 -4 11 -10z m-108 -35 c-2 -14 -8 -25 -13 -25 -10 0 -12 43 -3 53 13
12 21 -3 16 -28z m158 -5 c0 -5 -4 -10 -9 -10 -6 0 -13 5 -16 10 -3 6 1 10 9
10 9 0 16 -4 16 -10z m4054 -281 c-8 -13 -21 -11 -27 5 -4 10 0 12 14 9 10 -3
16 -9 13 -14z m-3964 -74 c16 -9 19 -14 9 -15 -8 0 -24 7 -35 15 -24 18 -7 19
26 0z m4010 -25 c0 -5 -5 -10 -11 -10 -5 0 -7 5 -4 10 3 6 8 10 11 10 2 0 4
-4 4 -10z m67 -45 c1 -5 -2 -17 -7 -25 -9 -13 -12 -12 -25 4 -8 10 -12 23 -9
28 7 11 36 6 41 -7z m-3727 -125 c0 -5 -5 -10 -11 -10 -5 0 -7 5 -4 10 3 6 8
10 11 10 2 0 4 -4 4 -10z m3770 -70 c0 -5 -7 -10 -15 -10 -8 0 -15 5 -15 10 0
6 7 10 15 10 8 0 15 -4 15 -10z m-70 -4 c0 -3 -4 -8 -10 -11 -5 -3 -10 -1 -10
4 0 6 5 11 10 11 6 0 10 -2 10 -4z m74 -42 c9 -3 16 -11 16 -16 0 -6 -6 -6
-14 1 -11 10 -17 8 -25 -6 -9 -16 -10 -16 -11 5 0 23 7 26 34 16z m-3780 -74
c-6 -6 -15 -6 -24 0 -13 9 -13 11 0 20 18 11 39 -5 24 -20z m3743 -2 c-3 -7
-5 -2 -5 12 0 14 2 19 5 13 2 -7 2 -19 0 -25z m33 2 c0 -5 -4 -10 -10 -10 -5
0 -10 5 -10 10 0 6 5 10 10 10 6 0 10 -4 10 -10z m-1003 -272 c-3 -8 -6 -5 -6
6 -1 11 2 17 5 13 3 -3 4 -12 1 -19z m1800 -435 c-3 -10 -5 -2 -5 17 0 19 2
27 5 18 2 -10 2 -26 0 -35z m-800 -255 c-3 -7 -5 -2 -5 12 0 14 2 19 5 13 2
-7 2 -19 0 -25z m-47 2 c0 -5 -7 -10 -16 -10 -8 0 -12 5 -9 10 3 6 10 10 16
10 5 0 9 -4 9 -10z m70 -140 c0 -5 -4 -10 -10 -10 -5 0 -10 5 -10 10 0 6 5 10
10 10 6 0 10 -4 10 -10z m-52 -63 c2 -12 -1 -15 -12 -11 -19 7 -22 38 -3 32 6
-3 13 -12 15 -21z m-4 -51 c-6 -15 -24 -23 -24 -11 0 8 24 34 28 30 1 -1 0
-10 -4 -19z m-52 -21 c0 -5 -5 -11 -11 -13 -6 -2 -11 4 -11 13 0 9 5 15 11 13
6 -2 11 -8 11 -13z m61 -44 c2 -10 1 -24 -3 -30 -4 -7 -7 1 -8 18 -1 35 3 40
11 12z m-13 -107 c0 -21 -17 -17 -23 5 -3 14 -1 18 9 14 8 -3 14 -11 14 -19z
m-10 -59 c0 -8 5 -15 10 -15 6 0 10 5 10 12 0 6 2 9 5 6 3 -3 3 -12 -1 -21 -5
-13 -10 -14 -25 -6 -20 10 -26 39 -9 39 6 0 10 -7 10 -15z m-39 -25 c10 0 19
-4 19 -10 0 -5 -9 -10 -20 -10 -11 0 -20 -4 -20 -10 0 -5 6 -10 14 -10 8 0 18
5 21 10 11 17 32 11 38 -10 4 -17 2 -20 -14 -15 -11 4 -19 2 -19 -4 0 -6 -5
-11 -11 -11 -19 0 -38 33 -38 65 0 17 3 24 6 18 2 -7 13 -13 24 -13z m96 -32
c-3 -8 -6 -5 -6 6 -1 11 2 17 5 13 3 -3 4 -12 1 -19z m-2560 -34 c-3 -3 -12
-4 -19 -1 -8 3 -5 6 6 6 11 1 17 -2 13 -5z m2555 -38 c-8 -33 -21 -44 -44 -38
-17 4 -20 2 -15 -12 4 -10 -1 -24 -13 -36 -16 -16 -20 -17 -20 -5 0 8 5 15 11
15 6 0 9 9 6 20 -3 10 0 21 7 24 8 3 8 7 -2 13 -9 7 -7 15 10 33 20 22 22 22
28 5 6 -17 7 -16 13 6 5 18 9 21 16 10 5 -7 6 -23 3 -35z m38 -16 c0 -5 -2
-10 -4 -10 -3 0 -8 5 -11 10 -3 6 -1 10 4 10 6 0 11 -4 11 -10z m-6 -95 c19
-14 19 -15 -6 -15 -27 0 -43 12 -31 24 9 9 16 7 37 -9z m-687 -37 c-3 -7 -5
-2 -5 12 0 14 2 19 5 13 2 -7 2 -19 0 -25z m651 -36 c2 -7 -3 -12 -12 -12 -9
0 -16 7 -16 16 0 17 22 14 28 -4z m82 -1 c0 -5 -7 -11 -14 -14 -10 -4 -13 -1
-9 9 6 15 23 19 23 5z m-713 -38 c-3 -10 -5 -4 -5 12 0 17 2 24 5 18 2 -7 2
-21 0 -30z m638 -3 c3 -5 -1 -10 -10 -10 -9 0 -13 5 -10 10 3 6 8 10 10 10 2
0 7 -4 10 -10z m37 -42 c-12 -12 -35 -1 -27 12 3 5 13 6 21 3 10 -4 12 -9 6
-15z m-62 -175 c-11 -17 -11 -17 -6 0 3 10 6 24 7 30 0 9 2 9 5 0 3 -7 0 -20
-6 -30z m50 -33 c0 -5 -9 -10 -21 -10 -11 0 -17 5 -14 10 3 6 13 10 21 10 8 0
14 -4 14 -10z"/>
<path d="M4801 13854 c0 -11 3 -14 6 -6 3 7 2 16 -1 19 -3 4 -6 -2 -5 -13z"/>
<path d="M4866 13851 c-4 -7 -5 -15 -2 -18 9 -9 19 4 14 18 -4 11 -6 11 -12 0z"/>
<path d="M4793 13747 c0 -18 1 -25 4 -17 3 8 10 18 15 21 5 3 3 11 -4 17 -10
8 -13 3 -15 -21z"/>
<path d="M4860 13726 c0 -8 5 -18 10 -21 6 -3 10 1 10 9 0 8 -4 18 -10 21 -5
3 -10 -1 -10 -9z"/>
<path d="M4765 13680 c-3 -6 1 -7 9 -4 18 7 21 14 7 14 -6 0 -13 -4 -16 -10z"/>
<path d="M4780 13625 c7 -9 15 -13 17 -11 7 7 -7 26 -19 26 -6 0 -6 -6 2 -15z"/>
<path d="M4840 13579 c0 -5 5 -7 10 -4 6 3 10 8 10 11 0 2 -4 4 -10 4 -5 0
-10 -5 -10 -11z"/>
<path d="M4960 13515 c0 -8 2 -15 4 -15 2 0 6 7 10 15 3 8 1 15 -4 15 -6 0
-10 -7 -10 -15z"/>
<path d="M4793 13237 c4 -10 7 -23 7 -28 0 -5 5 -9 10 -9 15 0 12 20 -7 38
-16 16 -16 16 -10 -1z"/>
<path d="M4448 12633 c7 -3 16 -2 19 1 4 3 -2 6 -13 5 -11 0 -14 -3 -6 -6z"/>
<path d="M4863 8995 c0 -22 2 -30 4 -17 2 12 2 30 0 40 -3 9 -5 -1 -4 -23z"/>
<path d="M4952 9010 c0 -14 2 -19 5 -12 2 6 2 18 0 25 -3 6 -5 1 -5 -13z"/>
<path d="M4822 8975 c0 -16 2 -22 5 -12 2 9 2 23 0 30 -3 6 -5 -1 -5 -18z"/>
<path d="M4841 8984 c0 -11 3 -14 6 -6 3 7 2 16 -1 19 -3 4 -6 -2 -5 -13z"/>
<path d="M4972 8980 c0 -14 2 -19 5 -12 2 6 2 18 0 25 -3 6 -5 1 -5 -13z"/>
<path d="M4992 8975 c0 -16 2 -22 5 -12 2 9 2 23 0 30 -3 6 -5 -1 -5 -18z"/>
<path d="M4951 8954 c0 -11 3 -14 6 -6 3 7 2 16 -1 19 -3 4 -6 -2 -5 -13z"/>
<path d="M4883 8920 c0 -25 2 -35 4 -22 2 12 2 32 0 45 -2 12 -4 2 -4 -23z"/>
<path d="M4900 8940 c0 -5 7 -7 15 -4 8 4 15 8 15 10 0 2 -7 4 -15 4 -8 0 -15
-4 -15 -10z"/>
<path d="M4751 8914 c0 -11 3 -14 6 -6 3 7 2 16 -1 19 -3 4 -6 -2 -5 -13z"/>
<path d="M4971 8914 c0 -11 3 -14 6 -6 3 7 2 16 -1 19 -3 4 -6 -2 -5 -13z"/>
<path d="M4730 8860 c0 -5 5 -10 10 -10 6 0 10 5 10 10 0 6 -4 10 -10 10 -5 0
-10 -4 -10 -10z"/>
<path d="M4890 8855 c7 -9 15 -13 17 -11 7 7 -7 26 -19 26 -6 0 -6 -6 2 -15z"/>
<path d="M4861 8834 c0 -11 3 -14 6 -6 3 7 2 16 -1 19 -3 4 -6 -2 -5 -13z"/>
<path d="M4799 8823 c-1 -5 -3 -28 -4 -53 -2 -34 -1 -39 6 -22 4 12 5 30 2 39
-4 10 -2 14 4 10 7 -5 9 0 6 13 -5 20 -12 26 -14 13z"/>
<path d="M4882 8810 c0 -14 2 -19 5 -12 2 6 2 18 0 25 -3 6 -5 1 -5 -13z"/>
<path d="M5051 8814 c0 -11 3 -14 6 -6 3 7 2 16 -1 19 -3 4 -6 -2 -5 -13z"/>
<path d="M5006 8804 c-4 -9 -4 -19 -1 -22 2 -3 7 3 11 12 4 9 4 19 1 22 -2 3
-7 -3 -11 -12z"/>
<path d="M4748 8803 c7 -3 16 -2 19 1 4 3 -2 6 -13 5 -11 0 -14 -3 -6 -6z"/>
<path d="M5112 8790 c0 -14 2 -19 5 -12 2 6 2 18 0 25 -3 6 -5 1 -5 -13z"/>
<path d="M4707 8780 c3 -11 7 -20 9 -20 2 0 4 9 4 20 0 11 -4 20 -9 20 -5 0
-7 -9 -4 -20z"/>
<path d="M5091 8788 c0 -9 -4 -24 -8 -34 -5 -14 -3 -16 11 -11 16 6 17 3 13
-20 -4 -16 -4 -22 -1 -15 3 6 12 12 20 12 8 0 14 5 14 11 0 5 -4 7 -10 4 -5
-3 -10 1 -10 9 0 9 -4 16 -9 16 -5 0 -12 10 -14 23 -2 13 -5 15 -6 5z"/>
<path d="M4835 8780 c3 -5 8 -10 11 -10 2 0 4 5 4 10 0 6 -5 10 -11 10 -5 0
-7 -4 -4 -10z"/>
<path d="M4961 8774 c0 -11 3 -14 6 -6 3 7 2 16 -1 19 -3 4 -6 -2 -5 -13z"/>
<path d="M4702 8713 c-1 -22 0 -24 8 -13 12 18 13 40 2 40 -4 0 -9 -12 -10
-27z"/>
<path d="M5151 8704 c0 -11 3 -14 6 -6 3 7 2 16 -1 19 -3 4 -6 -2 -5 -13z"/>
<path d="M4701 8664 c0 -11 3 -14 6 -6 3 7 2 16 -1 19 -3 4 -6 -2 -5 -13z"/>
<path d="M4951 8664 c0 -11 3 -14 6 -6 3 7 2 16 -1 19 -3 4 -6 -2 -5 -13z"/>
<path d="M4721 8624 c0 -11 3 -14 6 -6 3 7 2 16 -1 19 -3 4 -6 -2 -5 -13z"/>
<path d="M5221 8624 c0 -11 3 -14 6 -6 3 7 2 16 -1 19 -3 4 -6 -2 -5 -13z"/>
<path d="M5217 8594 c-4 -4 -7 -17 -7 -28 1 -19 1 -20 11 -3 11 19 8 43 -4 31z"/>
<path d="M5051 8564 c0 -11 3 -14 6 -6 3 7 2 16 -1 19 -3 4 -6 -2 -5 -13z"/>
<path d="M5210 8530 c0 -5 5 -10 10 -10 6 0 10 5 10 10 0 6 -4 10 -10 10 -5 0
-10 -4 -10 -10z"/>
<path d="M5050 8490 c0 -5 5 -10 11 -10 5 0 7 5 4 10 -3 6 -8 10 -11 10 -2 0
-4 -4 -4 -10z"/>
<path d="M5085 8490 c-3 -5 -1 -10 4 -10 6 0 11 5 11 10 0 6 -2 10 -4 10 -3 0
-8 -4 -11 -10z"/>
<path d="M5246 8481 c-5 -7 -3 -18 3 -24 14 -14 20 -6 11 17 -5 15 -9 16 -14
7z"/>
<path d="M5360 8481 c0 -7 -4 -9 -10 -6 -17 11 -11 -32 7 -46 15 -12 16 -12
10 5 -5 12 -3 22 5 27 10 7 10 11 0 21 -9 9 -12 9 -12 -1z"/>
<path d="M5280 8459 c0 -11 5 -17 10 -14 6 3 10 13 10 21 0 8 -4 14 -10 14 -5
0 -10 -9 -10 -21z"/>
<path d="M4680 8430 c0 -5 5 -10 10 -10 6 0 10 5 10 10 0 6 -4 10 -10 10 -5 0
-10 -4 -10 -10z"/>
<path d="M4723 8400 c-2 -29 14 -34 19 -5 3 15 1 25 -6 25 -7 0 -12 -9 -13
-20z"/>
<path d="M5380 8406 c0 -22 17 -28 24 -10 9 22 8 24 -9 24 -8 0 -15 -6 -15
-14z"/>
<path d="M5420 8389 c0 -5 5 -7 10 -4 6 3 10 8 10 11 0 2 -4 4 -10 4 -5 0 -10
-5 -10 -11z"/>
<path d="M4726 8351 c-4 -7 -5 -15 -2 -18 9 -9 19 4 14 18 -4 11 -6 11 -12 0z"/>
<path d="M4805 8351 c-3 -5 -1 -12 5 -16 5 -3 10 1 10 9 0 18 -6 21 -15 7z"/>
<path d="M5411 8334 c0 -11 3 -14 6 -6 3 7 2 16 -1 19 -3 4 -6 -2 -5 -13z"/>
<path d="M5344 8327 c3 -10 6 -26 6 -35 0 -15 2 -15 10 -2 5 8 10 11 10 6 0
-5 7 -3 15 4 18 15 9 34 -13 25 -8 -3 -20 0 -25 7 -6 9 -7 8 -3 -5z"/>
<path d="M4760 8280 c0 -5 5 -10 11 -10 5 0 7 5 4 10 -3 6 -8 10 -11 10 -2 0
-4 -4 -4 -10z"/>
<path d="M5220 8200 c0 -5 7 -10 16 -10 8 0 12 5 9 10 -3 6 -10 10 -16 10 -5
0 -9 -4 -9 -10z"/>
<path d="M5287 8140 c-3 -11 -1 -20 4 -20 5 0 9 9 9 20 0 11 -2 20 -4 20 -2 0
-6 -9 -9 -20z"/>
<path d="M5485 8111 c-3 -6 4 -15 15 -21 17 -9 20 -8 20 10 0 20 -24 28 -35
11z"/>
<path d="M4631 8094 c0 -12 6 -24 14 -28 8 -3 15 -1 15 4 0 6 -4 10 -9 10 -5
0 -12 8 -14 18 -4 13 -5 12 -6 -4z"/>
<path d="M5285 8079 c-4 -6 -5 -12 -2 -15 2 -3 7 2 10 11 7 17 1 20 -8 4z"/>
<path d="M5460 8075 c0 -8 2 -15 4 -15 2 0 6 7 10 15 3 8 1 15 -4 15 -6 0 -10
-7 -10 -15z"/>
<path d="M5380 8060 c0 -5 5 -10 10 -10 6 0 10 5 10 10 0 6 -4 10 -10 10 -5 0
-10 -4 -10 -10z"/>
<path d="M5415 8050 c-3 -5 -2 -10 4 -10 5 0 13 5 16 10 3 6 2 10 -4 10 -5 0
-13 -4 -16 -10z"/>
<path d="M5447 8015 c-8 -20 -4 -29 11 -24 5 2 6 13 2 23 -6 19 -7 19 -13 1z"/>
<path d="M5335 7990 c3 -5 8 -10 11 -10 2 0 4 5 4 10 0 6 -5 10 -11 10 -5 0
-7 -4 -4 -10z"/>
<path d="M4560 7958 c0 -12 1 -19 3 -17 1 2 9 12 16 22 12 14 11 17 -3 17 -10
0 -16 -8 -16 -22z"/>
<path d="M5540 7935 c0 -8 5 -15 10 -15 6 0 10 7 10 15 0 8 -4 15 -10 15 -5 0
-10 -7 -10 -15z"/>
<path d="M5476 7923 c-6 -14 -5 -15 5 -6 7 7 10 15 7 18 -3 3 -9 -2 -12 -12z"/>
<path d="M4518 7913 c7 -3 16 -2 19 1 4 3 -2 6 -13 5 -11 0 -14 -3 -6 -6z"/>
<path d="M4587 7906 c-6 -14 0 -26 14 -26 3 0 9 9 12 20 6 23 -18 28 -26 6z"/>
<path d="M5550 7900 c0 -5 5 -10 10 -10 6 0 10 5 10 10 0 6 -4 10 -10 10 -5 0
-10 -4 -10 -10z"/>
<path d="M5380 7815 c0 -14 2 -25 4 -25 2 0 6 11 8 25 3 14 1 25 -3 25 -5 0
-9 -11 -9 -25z"/>
<path d="M5420 7719 c0 -5 5 -7 10 -4 6 3 10 8 10 11 0 2 -4 4 -10 4 -5 0 -10
-5 -10 -11z"/>
<path d="M4598 7713 c7 -3 16 -2 19 1 4 3 -2 6 -13 5 -11 0 -14 -3 -6 -6z"/>
<path d="M4601 7661 c-9 -6 -4 -10 18 -13 24 -4 28 -2 20 9 -13 15 -19 16 -38
4z"/>
<path d="M5391 7644 c0 -11 3 -14 6 -6 3 7 2 16 -1 19 -3 4 -6 -2 -5 -13z"/>
<path d="M4573 7608 c2 -23 9 -23 38 2 l24 19 -32 -2 c-23 -1 -31 -7 -30 -19z"/>
<path d="M5341 7603 c0 -25 1 -26 9 -8 12 27 12 35 0 35 -5 0 -10 -12 -9 -27z"/>
<path d="M5270 7605 c0 -8 4 -15 10 -15 5 0 7 7 4 15 -4 8 -8 15 -10 15 -2 0
-4 -7 -4 -15z"/>
<path d="M4545 7560 c-3 -5 -2 -10 4 -10 5 0 13 5 16 10 3 6 2 10 -4 10 -5 0
-13 -4 -16 -10z"/>
<path d="M5290 7553 c-13 -15 -12 -16 4 -10 10 4 24 7 32 7 8 0 14 5 14 10 0
16 -34 11 -50 -7z"/>
<path d="M5200 7519 c0 -5 9 -9 20 -9 11 0 20 2 20 4 0 2 -9 6 -20 9 -11 3
-20 1 -20 -4z"/>
<path d="M5145 7512 c-2 -2 -1 -10 2 -18 4 -10 9 -11 24 -1 10 6 19 14 19 17
0 6 -39 8 -45 2z"/>
<path d="M5481 7469 c-12 -12 -19 -24 -15 -28 4 -3 9 -1 11 6 2 7 10 10 18 7
16 -7 31 14 18 27 -6 6 -18 1 -32 -12z"/>
<path d="M5215 7470 c3 -5 11 -10 16 -10 6 0 7 5 4 10 -3 6 -11 10 -16 10 -6
0 -7 -4 -4 -10z"/>
<path d="M4880 7462 c0 -7 -6 -12 -14 -12 -22 0 -27 -16 -6 -17 18 -2 36 24
25 35 -3 3 -5 0 -5 -6z"/>
<path d="M5431 7454 c0 -11 3 -14 6 -6 3 7 2 16 -1 19 -3 4 -6 -2 -5 -13z"/>
<path d="M4977 7453 c-4 -3 -7 -11 -7 -17 0 -6 5 -5 12 2 6 6 9 14 7 17 -3 3
-9 2 -12 -2z"/>
<path d="M5392 7420 c0 -14 2 -19 5 -12 2 6 2 18 0 25 -3 6 -5 1 -5 -13z"/>
<path d="M5260 7029 c0 -5 5 -7 10 -4 6 3 10 8 10 11 0 2 -4 4 -10 4 -5 0 -10
-5 -10 -11z"/>
<path d="M5467 6946 c-4 -10 -1 -13 9 -9 8 3 14 -1 14 -11 0 -9 -5 -16 -11
-16 -5 0 -7 -5 -3 -12 6 -9 9 -9 12 0 2 7 10 12 18 12 12 0 12 4 -2 25 -19 28
-29 31 -37 11z"/>
<path d="M5440 6880 c0 -5 5 -10 11 -10 5 0 7 5 4 10 -3 6 -8 10 -11 10 -2 0
-4 -4 -4 -10z"/>
<path d="M6110 6244 c0 -8 5 -12 10 -9 6 3 10 10 10 16 0 5 -4 9 -10 9 -5 0
-10 -7 -10 -16z"/>
<path d="M6100 6160 c0 -5 5 -10 11 -10 5 0 7 5 4 10 -3 6 -8 10 -11 10 -2 0
-4 -4 -4 -10z"/>
<path d="M7375 5680 c-3 -5 -1 -10 4 -10 6 0 11 5 11 10 0 6 -2 10 -4 10 -3 0
-8 -4 -11 -10z"/>
<path d="M6330 5029 c0 -5 5 -7 10 -4 6 3 10 8 10 11 0 2 -4 4 -10 4 -5 0 -10
-5 -10 -11z"/>
<path d="M6300 5005 c0 -8 5 -15 10 -15 6 0 10 7 10 15 0 8 -4 15 -10 15 -5 0
-10 -7 -10 -15z"/>
<path d="M1851 2364 c0 -11 3 -14 6 -6 3 7 2 16 -1 19 -3 4 -6 -2 -5 -13z"/>
<path d="M5685 14150 c-18 -8 -17 -9 8 -9 15 -1 27 4 27 9 0 12 -8 12 -35 0z"/>
<path d="M5718 14113 c7 -3 16 -2 19 1 4 3 -2 6 -13 5 -11 0 -14 -3 -6 -6z"/>
<path d="M3965 14070 c-3 -5 1 -10 9 -10 9 0 16 5 16 10 0 6 -4 10 -9 10 -6 0
-13 -4 -16 -10z"/>
<path d="M5760 14020 c0 -5 5 -10 11 -10 5 0 7 5 4 10 -3 6 -8 10 -11 10 -2 0
-4 -4 -4 -10z"/>
<path d="M5720 13970 c0 -5 7 -10 16 -10 8 0 12 5 9 10 -3 6 -10 10 -16 10 -5
0 -9 -4 -9 -10z"/>
<path d="M3937 13963 c-13 -13 -7 -32 8 -27 8 4 15 12 15 20 0 15 -12 19 -23
7z"/>
<path d="M3830 13510 c20 -13 40 -13 40 0 0 6 -12 10 -27 10 -22 0 -25 -2 -13
-10z"/>
<path d="M3850 13410 c-13 -8 -12 -10 3 -10 9 0 20 0 24 -1 4 0 9 4 11 10 5
14 -18 14 -38 1z"/>
<path d="M3805 13390 c-3 -5 -2 -10 4 -10 5 0 13 5 16 10 3 6 2 10 -4 10 -5 0
-13 -4 -16 -10z"/>
<path d="M3980 13340 c0 -5 5 -10 10 -10 6 0 10 5 10 10 0 6 -4 10 -10 10 -5
0 -10 -4 -10 -10z"/>
<path d="M5862 13324 c-22 -15 -22 -17 -5 -30 17 -14 17 -15 -4 -9 -17 5 -23
2 -23 -9 0 -8 -8 -19 -17 -25 -24 -13 -27 -82 -4 -73 12 4 10 -1 -5 -19 -12
-13 -25 -35 -29 -48 -6 -20 -5 -23 11 -17 17 7 17 6 0 -13 -10 -11 -15 -25
-10 -32 5 -9 2 -10 -9 -6 -10 3 -17 3 -17 -1 0 -16 -30 -182 -45 -247 -8 -38
-18 -82 -21 -96 -6 -28 13 -43 41 -33 22 9 54 69 44 85 -5 10 1 21 21 34 31
21 44 53 33 81 -5 13 -3 16 9 11 13 -4 19 5 28 44 18 73 8 136 -24 164 l-26
22 21 49 c12 27 37 65 56 84 66 69 47 135 -25 84z m-63 -372 c1 -31 -5 -49
-20 -65 l-21 -22 13 25 c7 14 12 51 11 85 -1 43 1 54 8 40 5 -11 9 -39 9 -63z
m-46 -147 c4 -8 2 -17 -3 -20 -6 -4 -10 3 -10 14 0 25 6 27 13 6z"/>
<path d="M5900 13227 c-8 -7 -23 -23 -32 -38 -13 -21 -14 -29 -4 -48 12 -22
13 -21 35 29 24 56 24 75 1 57z"/>
<path d="M3864 13131 c3 -18 6 -44 6 -57 0 -34 13 -30 28 8 11 30 10 35 -14
58 l-26 25 6 -34z"/>
<path d="M3950 13086 c0 -8 9 -24 21 -37 18 -21 20 -21 14 -4 -4 11 -10 28
-12 38 -6 20 -23 23 -23 3z"/>
<path d="M3933 13053 c4 -6 1 -13 -7 -16 -21 -8 -32 -57 -25 -107 3 -25 7 -34
8 -20 1 20 3 22 11 10 14 -22 12 -40 -4 -40 -12 0 -12 -5 -3 -30 7 -17 13 -26
15 -20 7 21 32 -12 33 -44 0 -17 3 -26 5 -19 4 8 11 7 24 -5 14 -12 17 -19 8
-29 -8 -10 -7 -13 3 -13 11 0 11 -2 1 -8 -17 -11 -5 -40 19 -47 10 -4 24 -15
29 -26 12 -22 55 -27 47 -5 -3 8 -11 32 -18 55 -6 22 -16 38 -20 35 -5 -3 -9
7 -9 23 0 30 -26 75 -55 96 -11 9 -19 31 -23 65 -6 66 13 70 23 5 8 -53 21
-83 35 -83 6 0 6 9 1 23 -5 12 -12 46 -16 75 -5 36 -11 52 -19 49 -9 -4 -11 2
-9 18 4 17 -3 28 -28 46 -18 12 -30 18 -26 12z"/>
<path d="M1711 3863 c0 -6 -4 -20 -7 -30 -5 -14 -4 -15 5 -7 7 7 11 20 8 30
-3 11 -5 14 -6 7z"/>
<path d="M1741 3704 c0 -11 3 -14 6 -6 3 7 2 16 -1 19 -3 4 -6 -2 -5 -13z"/>
<path d="M1790 3695 c0 -8 5 -15 10 -15 6 0 10 7 10 15 0 8 -4 15 -10 15 -5 0
-10 -7 -10 -15z"/>
<path d="M1741 3664 c0 -11 3 -14 6 -6 3 7 2 16 -1 19 -3 4 -6 -2 -5 -13z"/>
<path d="M1785 3595 c-4 -42 -5 -78 -3 -81 3 -2 8 30 12 72 4 42 5 78 2 81 -2
2 -7 -30 -11 -72z"/>
<path d="M1736 3604 c-4 -14 -5 -28 -3 -31 3 -2 8 8 11 23 4 14 5 28 3 31 -3
2 -8 -8 -11 -23z"/>
<path d="M1831 3513 c-1 -49 -4 -102 -7 -119 -3 -18 -1 -35 5 -38 8 -5 11 20
11 81 0 48 3 105 6 126 4 22 3 37 -4 37 -5 0 -10 -36 -11 -87z"/>
<path d="M1720 3441 c0 -25 6 -27 13 -6 4 8 2 17 -3 20 -6 4 -10 -3 -10 -14z"/>
<path d="M1662 3380 c0 -14 2 -19 5 -12 2 6 2 18 0 25 -3 6 -5 1 -5 -13z"/>
<path d="M1710 3393 c0 -5 5 -15 10 -23 8 -12 10 -11 10 8 0 12 -4 22 -10 22
-5 0 -10 -3 -10 -7z"/>
<path d="M1250 2931 c0 -17 -5 -33 -10 -36 -6 -4 -8 -11 -5 -16 4 -5 1 -9 -6
-9 -18 0 -5 -86 24 -147 l24 -51 11 32 c16 44 14 59 -2 21 l-13 -30 -11 40
c-15 50 -16 77 -3 56 8 -12 12 -12 25 2 17 17 23 82 6 72 -5 -3 -10 -1 -10 4
0 6 6 11 13 11 9 0 9 2 -1 8 -8 5 -10 16 -6 27 5 13 4 16 -4 11 -8 -5 -12 0
-12 13 0 12 -4 21 -10 21 -5 0 -10 -13 -10 -29z"/>
<path d="M1280 2775 c-6 -8 -10 -22 -7 -32 4 -14 5 -13 6 5 0 13 6 20 11 17 6
-3 10 1 10 9 0 20 -4 20 -20 1z"/>
<path d="M1380 2714 c0 -7 5 -16 10 -19 8 -5 7 -11 -1 -21 -6 -7 -16 -11 -23
-7 -8 5 -8 3 1 -8 6 -8 11 -17 11 -22 1 -25 15 -67 23 -67 6 0 7 -4 4 -10 -3
-6 1 -7 9 -4 12 5 16 -1 17 -22 0 -29 0 -29 10 -5 7 18 5 26 -8 37 -10 7 -21
14 -25 14 -3 0 -4 9 -1 20 3 11 0 20 -6 20 -6 0 -11 5 -11 11 0 5 4 8 9 5 4
-3 8 16 7 43 -1 31 -5 48 -13 48 -7 0 -13 -6 -13 -13z"/>
<path d="M1311 2684 c-1 -6 6 -28 14 -47 8 -20 15 -48 15 -62 0 -14 5 -25 10
-25 12 0 14 57 2 62 -5 2 -16 21 -25 43 -9 22 -16 35 -16 29z"/>
<path d="M1302 2615 c6 -14 13 -23 16 -21 7 7 -9 46 -18 46 -5 0 -4 -11 2 -25z"/>
<path d="M1336 2500 c8 -43 14 -51 14 -19 0 13 -5 31 -10 39 -7 11 -8 5 -4
-20z"/>
<path d="M1404 2474 c3 -9 6 -20 6 -25 0 -5 7 -9 15 -9 8 0 15 7 15 15 0 8 -5
15 -11 15 -5 0 -7 5 -4 10 3 6 -1 10 -10 10 -12 0 -15 -5 -11 -16z"/>
<path d="M1420 2420 c-9 -6 -11 -10 -3 -10 8 0 10 -7 6 -17 -6 -16 -5 -16 10
-5 8 8 13 20 10 28 -6 17 -4 16 -23 4z"/>
<path d="M1415 2361 c-10 -17 15 -23 31 -7 14 15 14 16 -5 16 -11 0 -22 -4
-26 -9z"/>
<path d="M1381 2355 c1 -19 18 -51 18 -35 0 8 -4 22 -9 30 -5 8 -9 11 -9 5z"/>
<path d="M1435 2319 c-11 -16 -1 -19 13 -3 7 8 8 14 3 14 -5 0 -13 -5 -16 -11z"/>
<path d="M1432 2261 c-9 -25 -8 -29 6 -26 10 2 21 4 25 4 12 1 4 44 -9 48 -7
2 -16 -9 -22 -26z"/>
<path d="M6604 1035 c0 -49 1 -71 3 -48 2 23 2 64 0 90 -2 26 -3 8 -3 -42z"/>
<path d="M3150 666 c0 -9 5 -16 10 -16 6 0 10 4 10 9 0 6 -4 13 -10 16 -5 3
-10 -1 -10 -9z"/>
<path d="M5081 544 c0 -11 3 -14 6 -6 3 7 2 16 -1 19 -3 4 -6 -2 -5 -13z"/>
<path d="M3181 254 c0 -11 3 -14 6 -6 3 7 2 16 -1 19 -3 4 -6 -2 -5 -13z"/>
<path d="M5151 250 c0 -8 6 -37 13 -65 8 -27 15 -41 15 -30 0 11 -6 40 -13 65
-8 25 -15 38 -15 30z"/>
<path d="M3204 195 c2 -27 7 -61 10 -75 4 -14 7 -41 8 -60 1 -39 13 -60 34
-60 11 0 12 7 7 28 -4 15 -7 39 -6 54 1 15 -4 29 -12 32 -9 3 -15 19 -15 38
-1 18 -7 47 -15 63 -15 30 -15 30 -11 -20z"/>
</g>
</svg>
