<?xml version="1.0" standalone="no"?>
<!DOCTYPE svg PUBLIC "-//W3C//DTD SVG 20010904//EN"
 "http://www.w3.org/TR/2001/REC-SVG-20010904/DTD/svg10.dtd">
<svg version="1.0" xmlns="http://www.w3.org/2000/svg"
 width="1024.000000pt" height="1536.000000pt" viewBox="0 0 1024.000000 1536.000000"
 preserveAspectRatio="xMidYMid meet">

<g transform="translate(0.000000,1536.000000) scale(0.100000,-0.100000)"
fill="#000000" stroke="none">
<path d="M5410 14150 c-15 -35 -29 -38 -53 -10 -9 11 -22 20 -29 20 -32 -1
-93 -30 -130 -64 -27 -23 -44 -32 -48 -25 -8 11 -50 -8 -50 -23 0 -17 -42 -7
-47 11 -3 11 -14 21 -25 24 -14 4 -18 2 -14 -9 3 -8 1 -14 -4 -14 -14 0 -50
-37 -50 -51 0 -7 -7 -8 -17 -4 -10 4 -30 10 -46 13 -23 4 -29 0 -38 -28 -11
-29 -14 -31 -44 -26 -34 7 -63 -13 -50 -34 4 -6 -5 -21 -19 -33 -14 -12 -27
-33 -29 -47 -3 -17 -15 -30 -38 -41 -29 -14 -34 -21 -31 -47 2 -20 -2 -31 -13
-36 -12 -4 -15 -13 -11 -31 6 -23 5 -24 -20 -15 -31 12 -35 12 -31 2 1 -5 -15
-25 -36 -46 -21 -20 -43 -50 -48 -66 -6 -16 -27 -41 -47 -56 -20 -16 -40 -33
-44 -38 -7 -11 -2 -136 7 -144 12 -12 -28 -31 -78 -37 -53 -7 -57 -9 -57 -33
0 -14 10 -37 23 -50 17 -20 18 -24 5 -19 -19 7 -24 -3 -9 -18 6 -6 4 -25 -6
-50 -25 -67 -26 -90 -5 -131 10 -21 17 -45 15 -52 -3 -7 2 -24 11 -37 11 -16
12 -25 5 -25 -8 0 -8 -4 1 -15 6 -8 9 -22 6 -32 -7 -24 4 -40 38 -53 27 -10
28 -11 12 -35 -9 -13 -16 -33 -16 -44 0 -23 -18 -37 -42 -33 -12 2 -15 -2 -11
-18 3 -11 9 -20 14 -20 5 0 9 -7 9 -15 0 -8 5 -15 10 -15 6 0 10 -7 10 -16 0
-10 6 -14 15 -11 8 4 17 2 20 -2 3 -5 -1 -11 -9 -14 -7 -3 -19 -26 -25 -52
-11 -45 -11 -48 14 -71 23 -21 25 -28 19 -76 -7 -63 37 -285 66 -333 33 -54
141 -133 199 -147 43 -10 52 -15 48 -30 -3 -10 1 -31 8 -46 14 -29 70 -344 80
-452 5 -45 2 -77 -8 -105 -13 -35 -18 -40 -43 -38 -16 1 -23 0 -16 -4 15 -6
-72 -74 -92 -72 -6 0 -1 5 12 11 12 6 22 15 22 20 0 4 -15 -2 -34 -14 -19 -13
-34 -27 -33 -33 1 -5 -8 -11 -19 -13 -12 -2 -30 -13 -40 -24 l-19 -21 30 18
c17 10 24 12 18 5 -16 -17 -17 -40 -2 -40 5 0 7 5 4 10 -3 6 -2 10 4 10 6 0
15 -9 21 -21 7 -11 17 -18 24 -16 7 3 18 -4 24 -14 7 -10 21 -19 31 -19 11 0
26 -7 35 -15 19 -19 24 -19 29 3 4 15 5 15 6 -1 0 -10 7 -17 14 -14 6 2 11 11
9 21 -2 9 4 16 11 16 17 0 30 37 16 46 -5 3 -7 10 -3 15 3 5 0 16 -6 24 -7 8
-8 15 -3 15 21 0 123 -129 258 -325 38 -55 73 -103 79 -107 18 -13 221 -79
304 -99 42 -11 124 -22 182 -25 102 -6 119 -5 289 34 l24 5 -8 -69 c-4 -38
-10 -100 -11 -139 -5 -95 -19 -193 -32 -235 -6 -19 -20 -62 -31 -95 -18 -55
-34 -115 -37 -140 0 -5 -4 -18 -9 -28 -4 -10 -5 -20 -2 -23 3 -4 1 -17 -4 -31
-6 -17 -6 -30 1 -37 5 -7 6 -17 1 -22 -4 -5 -13 -35 -20 -67 -7 -32 -17 -55
-22 -51 -9 5 -5 -26 7 -66 15 -45 34 -173 34 -225 0 -57 -1 -59 -15 -35 -8 14
-19 37 -26 53 -6 15 -15 27 -20 27 -5 0 -9 5 -9 10 0 6 -13 24 -30 40 -16 16
-30 37 -30 46 0 9 -6 30 -14 47 -26 59 -68 171 -112 297 -29 84 -49 126 -60
128 -29 7 -64 45 -64 71 0 21 -2 23 -10 11 -11 -17 -11 -18 -13 62 -2 42 1 48
18 48 11 0 30 -6 40 -14 29 -20 68 -103 62 -132 -3 -16 0 -24 9 -24 8 0 14 7
14 16 0 8 5 12 10 9 6 -3 10 2 10 12 0 31 -36 115 -54 125 -9 5 -16 16 -16 24
0 13 -9 19 -65 40 -44 16 -79 14 -112 -8 -18 -13 -31 -29 -28 -36 3 -8 0 -10
-6 -6 -6 3 -22 -6 -35 -21 -28 -33 -29 -36 -9 -28 16 6 37 -14 55 -52 6 -11
19 -33 30 -50 11 -16 29 -49 41 -73 11 -23 25 -40 30 -36 12 7 6 76 -10 117
-13 35 -14 55 -2 42 16 -18 35 -89 37 -140 1 -27 3 -58 3 -67 1 -10 9 -18 19
-18 14 0 15 -2 2 -10 -13 -8 -13 -11 -1 -19 8 -5 10 -14 6 -22 -6 -9 -4 -11 8
-6 9 3 18 0 21 -9 3 -8 2 -12 -3 -9 -5 3 -12 2 -15 -3 -2 -4 9 -14 25 -21 20
-9 32 -24 40 -52 7 -21 16 -39 21 -39 4 0 8 -8 9 -17 0 -10 11 -36 25 -58 13
-22 26 -48 30 -57 3 -10 10 -18 15 -18 5 0 9 -16 9 -35 0 -19 4 -35 9 -35 17
0 25 -77 26 -255 1 -99 5 -264 9 -367 6 -155 4 -193 -8 -222 -9 -21 -11 -36
-5 -36 6 0 7 -5 3 -12 -9 -15 -11 -29 -20 -183 -17 -291 -4 -720 32 -1030 4
-27 7 -142 8 -255 1 -113 7 -223 14 -245 6 -22 13 -114 17 -205 7 -220 28
-403 83 -765 25 -159 42 -353 45 -502 2 -100 4 -112 21 -117 16 -4 18 -11 13
-50 -4 -28 -3 -46 3 -46 6 0 10 -4 10 -10 0 -5 -7 -7 -15 -4 -8 4 -15 1 -15
-5 0 -6 6 -11 14 -11 8 0 19 -17 25 -37 8 -30 9 -13 5 82 -5 122 -26 439 -44
665 -89 1126 -123 2485 -77 3035 9 99 18 242 21 318 3 76 8 142 10 146 3 4 10
86 16 182 14 247 58 600 86 699 8 30 16 62 16 70 0 8 6 59 14 112 8 54 14 118
14 144 0 27 6 51 15 60 23 24 17 189 -11 304 -7 24 -7 24 -16 -7 -8 -30 -28
-46 -28 -23 0 6 4 10 9 10 9 0 14 25 36 190 7 58 17 114 20 125 5 14 4 16 -3
6 -6 -8 -12 -9 -16 -3 -3 5 1 15 9 22 23 19 57 120 62 185 3 33 10 65 16 70
45 39 88 185 88 299 0 28 5 68 10 89 9 34 12 37 26 25 24 -19 50 17 146 203
l38 74 -5 145 c-3 80 -10 162 -16 182 -8 28 -8 43 1 59 8 15 8 19 0 15 -6 -4
-11 -1 -11 8 0 8 5 18 10 21 6 4 8 15 5 26 -4 12 -2 19 6 19 10 0 10 3 1 12
-7 7 -12 19 -12 28 0 8 -14 35 -30 60 -23 35 -29 52 -24 76 3 18 1 41 -5 53
-14 25 -3 28 15 4 7 -10 14 -38 14 -63 0 -25 6 -55 14 -66 8 -11 19 -36 24
-55 8 -31 12 -34 42 -31 40 3 61 18 53 38 -3 8 0 14 6 14 6 0 11 -6 11 -12 1
-26 17 18 23 59 6 49 -15 90 -32 63 -8 -11 -13 -12 -21 -4 -9 9 -4 16 18 30
39 23 48 62 17 74 -35 13 -45 60 -13 60 6 0 20 7 30 17 12 10 18 12 18 4 0 -7
5 -9 10 -6 17 10 11 51 -10 70 -25 23 -25 36 -1 64 10 12 22 42 26 68 6 38 3
51 -15 76 -23 30 -27 54 -17 94 3 13 0 27 -9 33 -7 7 -11 16 -8 21 3 5 -2 18
-10 30 -8 12 -12 27 -10 34 6 16 -9 26 -50 35 -17 3 -31 12 -32 20 -1 8 -2 25
-2 38 -1 12 -9 22 -17 22 -9 0 -12 6 -9 15 4 8 1 21 -4 28 -6 7 -14 28 -17 47
-3 19 -9 37 -14 40 -4 3 -20 22 -35 42 -16 21 -32 35 -37 32 -5 -3 -25 8 -44
25 -31 26 -40 29 -85 25 -48 -4 -51 -2 -49 19 3 28 -9 65 -32 98 -15 21 -26
27 -54 25 -32 -1 -35 1 -41 32 -4 19 -13 36 -21 39 -16 6 -113 -37 -113 -50 0
-5 -7 -1 -16 8 -15 15 -15 17 1 28 14 11 15 17 4 40 -10 22 -18 27 -43 25 -17
-1 -34 -7 -38 -13 -5 -6 -8 -5 -8 3 0 9 -7 11 -20 7 -14 -5 -20 -2 -20 10 0
23 -51 40 -65 21 -21 -27 -61 -30 -89 -5 -14 12 -26 29 -26 36 0 25 -28 13
-40 -17z m540 -955 c14 -8 37 -14 52 -15 15 0 30 -4 33 -10 3 -5 15 -10 27
-10 16 0 19 -5 16 -25 -3 -14 -2 -25 2 -25 4 0 8 -11 8 -25 0 -18 -6 -25 -20
-25 -11 0 -16 -5 -13 -11 4 -6 0 -9 -8 -7 -9 2 -16 -1 -16 -7 0 -5 7 -9 15 -7
10 2 14 -7 15 -30 1 -18 3 -49 4 -70 4 -34 2 -36 -30 -42 -42 -8 -41 -29 0
-37 l30 -6 -32 -2 c-22 -1 -33 -6 -33 -16 0 -10 10 -13 38 -11 40 4 92 -19 92
-41 0 -7 11 -13 24 -13 16 0 27 -7 31 -21 4 -11 5 -22 3 -23 -1 -2 -34 -7 -73
-12 -62 -8 -72 -7 -88 9 -13 13 -22 15 -34 8 -10 -5 -26 -5 -40 0 -13 5 -36 9
-51 9 -15 0 -49 0 -76 0 -27 0 -54 4 -60 8 -6 4 -28 7 -48 6 -31 -1 -38 2 -38
18 0 11 4 17 9 13 6 -3 19 5 30 17 12 12 21 16 21 10 0 -7 7 -12 15 -12 13 0
14 4 5 21 -7 11 -9 23 -6 27 3 3 6 0 6 -7 0 -7 10 -11 27 -9 42 5 42 63 0 71
l-22 4 23 8 c12 4 22 16 22 26 0 11 7 19 18 20 15 1 16 2 0 6 -10 2 -15 10
-11 19 3 9 -2 14 -15 14 -11 0 -28 8 -38 17 -15 16 -15 17 0 23 15 5 15 7 -3
26 -22 25 -18 62 10 93 10 11 19 27 19 35 0 8 6 17 13 19 26 11 123 6 147 -8z
m137 -197 c-3 -8 -6 -5 -6 6 -1 11 2 17 5 13 3 -3 4 -12 1 -19z m-290 -44 c-3
-3 -12 -4 -19 -1 -8 3 -5 6 6 6 11 1 17 -2 13 -5z m-117 -138 c0 -2 -7 -9 -15
-16 -13 -11 -14 -10 -9 4 5 14 24 23 24 12z m-199 -325 l25 -29 -35 -10 c-20
-6 -54 -14 -75 -18 l-39 -7 16 24 c22 30 21 49 0 50 -30 1 17 17 52 18 22 1
38 -7 56 -28z m644 8 c-3 -4 -12 -6 -20 -3 -8 4 -13 10 -10 15 3 4 12 6 20 3
8 -4 13 -10 10 -15z m-282 -57 c26 -100 30 -120 23 -138 -5 -13 -9 -14 -21 -4
-8 7 -13 16 -10 20 3 5 0 21 -6 37 -7 15 -11 38 -10 50 1 12 -5 35 -13 52 -21
39 -20 51 2 51 13 0 21 -17 35 -68z m345 62 c46 -13 15 -68 -46 -80 -35 -7
-39 1 -17 30 8 11 15 28 15 38 0 19 11 22 48 12z m-659 -78 c-11 -9 -69 -14
-69 -6 0 6 17 10 37 10 20 0 34 -2 32 -4z m508 -85 c13 -12 23 -16 25 -9 3 7
29 11 74 9 38 0 75 3 83 8 19 12 71 -42 71 -74 0 -30 -48 -55 -107 -55 -23 0
-43 -5 -43 -11 0 -5 5 -7 10 -4 6 3 10 1 10 -4 0 -6 -7 -11 -15 -11 -13 0 -14
-4 -5 -21 14 -25 5 -53 -15 -45 -19 7 -30 -11 -16 -28 9 -11 6 -15 -11 -20
-22 -7 -22 -8 -3 -15 19 -8 19 -8 0 -20 -14 -8 -16 -14 -7 -17 17 -8 15 -27
-3 -20 -8 3 -15 1 -15 -4 0 -6 5 -10 10 -10 15 0 12 -26 -5 -43 -8 -8 -11 -17
-8 -21 4 -3 -1 -6 -11 -6 -9 0 -14 -4 -11 -10 11 -18 -27 -11 -41 8 -11 14 -9
21 14 45 22 23 27 38 27 78 0 27 -3 49 -7 49 -5 0 -8 8 -8 18 0 10 -3 22 -7
26 -4 4 -9 25 -10 47 -1 22 -6 46 -11 52 -5 7 -12 26 -15 42 -3 17 -9 38 -12
48 -6 13 -3 16 9 11 22 -8 20 2 -4 28 -48 52 -2 35 57 -21z m-153 -83 c12 -17
13 -24 3 -30 -14 -9 -22 -1 -32 30 -8 28 9 29 29 0z m60 -130 c8 -13 17 -34
21 -47 7 -23 6 -23 -31 -17 -22 4 -51 8 -66 9 -32 2 -36 13 -9 22 10 3 22 17
25 30 8 32 41 33 60 3z m5 -332 c12 -11 21 -23 21 -27 0 -8 -35 -17 -89 -21
-51 -4 -52 20 -2 28 23 4 41 10 41 15 0 12 -47 12 -54 0 -5 -7 -66 14 -66 22
0 1 29 2 64 2 49 0 69 -5 85 -19z m17 -171 c7 -18 35 -20 52 -3 13 13 27 5 18
-11 -22 -34 -246 -88 -246 -59 0 5 -11 8 -25 8 -25 0 -31 13 -19 44 9 24 54
21 54 -4 0 -11 5 -20 10 -20 6 0 10 8 10 18 0 12 9 18 28 20 15 1 28 6 30 10
1 5 20 9 42 10 29 2 42 -2 46 -13z m-234 -27 c-7 -7 -12 -8 -12 -2 0 14 12 26
19 19 2 -3 -1 -11 -7 -17z m108 -223 c33 -17 40 -50 13 -57 -10 -3 -35 0 -56
6 l-39 11 22 28 c25 32 23 31 60 12z m70 -544 c0 -6 -4 -13 -10 -16 -5 -3 -10
1 -10 9 0 9 5 16 10 16 6 0 10 -4 10 -9z m-570 -715 c0 -22 -3 -36 -7 -33 -3
4 -6 20 -5 37 0 16 -4 30 -9 30 -6 0 -8 4 -5 9 3 5 -1 14 -9 21 -8 7 -12 17
-9 22 11 18 44 -46 44 -86z"/>
<path d="M5768 13113 c7 -3 16 -2 19 1 4 3 -2 6 -13 5 -11 0 -14 -3 -6 -6z"/>
<path d="M5783 13013 c9 -2 23 -2 30 0 6 3 -1 5 -18 5 -16 0 -22 -2 -12 -5z"/>
<path d="M6008 12933 c7 -3 16 -2 19 1 4 3 -2 6 -13 5 -11 0 -14 -3 -6 -6z"/>
<path d="M5955 12863 c-28 -5 -52 -43 -34 -54 7 -4 19 -4 25 2 6 5 19 7 28 3
12 -5 16 0 16 19 0 29 -6 34 -35 30z"/>
<path d="M5841 12844 c0 -11 3 -14 6 -6 3 7 2 16 -1 19 -3 4 -6 -2 -5 -13z"/>
<path d="M5720 12764 c0 -8 5 -12 10 -9 6 3 10 10 10 16 0 5 -4 9 -10 9 -5 0
-10 -7 -10 -16z"/>
<path d="M6065 12090 c3 -5 8 -10 11 -10 2 0 4 5 4 10 0 6 -5 10 -11 10 -5 0
-7 -4 -4 -10z"/>
<path d="M6337 12503 c-12 -11 -8 -23 8 -23 8 0 15 7 15 15 0 16 -12 20 -23 8z"/>
<path d="M4280 10851 c0 -7 15 -42 34 -79 18 -37 36 -80 40 -97 8 -31 104
-190 217 -360 71 -107 118 -195 168 -317 32 -77 72 -131 57 -78 -15 54 -158
331 -223 430 -102 157 -159 257 -219 387 -49 106 -74 145 -74 114z"/>
<path d="M6140 10180 c70 -37 81 -37 45 0 -22 23 -37 30 -64 30 l-36 -1 55
-29z"/>
<path d="M2977 10094 c-11 -12 17 -33 30 -22 9 7 14 5 19 -8 3 -11 9 -26 14
-35 5 -10 4 -21 -3 -28 -12 -12 4 -11 63 5 10 3 27 -14 48 -48 18 -29 53 -73
78 -98 24 -25 65 -75 91 -112 25 -38 48 -68 50 -68 18 0 -192 282 -263 354
-49 50 -72 66 -93 66 -15 0 -30 -3 -34 -6z"/>
<path d="M5436 10085 c6 -16 5 -18 -7 -7 -16 14 -53 16 -44 2 3 -5 15 -10 26
-10 12 0 19 -7 18 -17 0 -11 -3 -13 -6 -5 -9 22 -22 12 -19 -15 2 -20 10 -29
24 -31 19 -3 21 1 18 42 -1 25 -5 49 -10 53 -4 4 -4 -1 0 -12z"/>
<path d="M6198 10053 c-19 -21 -49 -59 -66 -85 -26 -38 -29 -47 -16 -52 10 -4
13 -1 9 7 -4 6 1 3 10 -8 13 -16 17 -17 24 -6 7 10 9 11 13 1 4 -14 47 98 53
137 2 12 6 27 10 32 12 21 -1 11 -37 -26z"/>
<path d="M2897 10063 c-12 -11 -8 -21 11 -26 14 -4 14 -6 -5 -12 -13 -4 -20
-11 -17 -16 3 -5 1 -9 -4 -9 -12 0 -37 -58 -29 -67 4 -3 11 5 16 18 5 13 10
19 10 12 1 -15 51 7 51 23 0 7 9 14 20 17 24 6 28 52 4 61 -21 8 -49 8 -57 -1z"/>
<path d="M5461 10014 c0 -11 3 -14 6 -6 3 7 2 16 -1 19 -3 4 -6 -2 -5 -13z"/>
<path d="M2926 9931 c-4 -6 -4 -11 1 -11 4 0 0 -5 -9 -11 -10 -5 -18 -17 -18
-24 0 -20 6 -19 30 5 15 15 18 25 12 37 -6 11 -11 12 -16 4z"/>
<path d="M2835 9912 c6 -4 11 -20 12 -37 2 -20 0 -25 -6 -16 -13 20 -29 5 -42
-39 -7 -23 -18 -40 -27 -40 -9 0 -12 -6 -8 -16 3 -8 2 -13 -3 -10 -5 3 -11 0
-14 -7 -58 -136 -86 -211 -82 -217 3 -4 -2 -13 -11 -20 -8 -7 -13 -19 -10 -27
3 -8 2 -12 -3 -9 -8 5 -34 -46 -46 -94 -7 -24 -7 -25 10 -5 16 20 16 20 6 -2
-6 -12 -11 -32 -12 -45 -1 -23 -1 -23 -8 2 -5 18 -9 21 -13 10 -62 -152 -78
-194 -73 -198 2 -3 12 12 20 32 9 20 20 34 25 31 6 -3 10 -8 10 -11 0 -3 -4
-3 -8 0 -5 3 -14 -12 -21 -32 -25 -71 -46 -111 -59 -112 -7 0 -17 -12 -22 -26
-13 -32 -13 -43 0 -24 6 10 10 11 10 3 0 -7 -14 -25 -30 -40 -17 -14 -29 -31
-28 -37 1 -6 -8 -31 -19 -56 -12 -25 -23 -52 -25 -60 -2 -8 -6 -17 -9 -20 -3
-3 -16 -38 -28 -77 -13 -40 -27 -73 -32 -73 -5 0 -9 -12 -9 -27 0 -20 -3 -24
-9 -14 -7 10 -11 5 -16 -18 -3 -17 -10 -31 -15 -31 -16 0 -92 -189 -85 -211 4
-13 3 -19 -3 -16 -10 7 -44 -71 -36 -84 3 -5 1 -9 -4 -9 -9 0 -26 -30 -56
-102 -19 -43 -20 -52 -5 -42 8 4 8 0 0 -15 -8 -15 -9 -27 -2 -39 9 -15 10 -14
11 6 0 13 4 21 8 18 4 -2 17 9 27 25 11 16 28 29 38 29 22 0 23 2 -62 -119
-36 -51 -70 -101 -76 -110 -5 -8 -17 -23 -26 -31 -8 -8 -41 -63 -73 -122 -32
-60 -61 -108 -65 -108 -4 0 -13 -17 -19 -38 -6 -20 -32 -80 -58 -132 -60 -124
-192 -520 -205 -619 -6 -42 -16 -96 -24 -121 -20 -66 -30 -154 -16 -146 6 4
11 2 11 -5 0 -8 11 -10 35 -6 45 7 45 0 0 -19 -42 -17 -52 -37 -36 -67 6 -12
16 -44 20 -72 5 -27 12 -63 16 -79 8 -41 53 -166 63 -180 16 -20 53 -122 57
-156 2 -17 9 -38 16 -46 6 -7 8 -18 4 -23 -10 -17 32 -131 108 -292 50 -108
107 -194 107 -163 0 16 2 16 10 4 6 -9 5 -20 -3 -29 -10 -12 -9 -13 1 -7 15 9
43 -16 55 -47 4 -10 11 -16 16 -13 5 3 8 -8 7 -24 -1 -20 1 -27 8 -20 13 13
39 13 31 0 -4 -6 -1 -17 5 -25 7 -8 9 -15 5 -15 -5 0 -1 -8 7 -17 14 -18 41
-77 44 -99 2 -15 65 -147 73 -154 3 -3 16 -23 27 -45 12 -22 28 -40 35 -40 7
0 25 -18 41 -40 15 -22 32 -39 39 -37 6 1 9 -3 7 -10 -5 -14 1 -21 46 -56 16
-12 22 -22 15 -22 -10 -1 -9 -5 4 -14 14 -11 15 -15 5 -19 -7 -3 -3 -6 10 -6
23 -1 32 -21 10 -21 -9 0 -8 -3 2 -9 8 -6 18 -7 22 -5 4 3 5 -1 2 -9 -3 -8 13
-32 36 -55 24 -25 40 -36 40 -27 0 17 9 19 29 6 12 -8 12 -13 3 -24 -7 -8 -9
-22 -6 -31 6 -15 7 -15 18 0 11 15 16 13 46 -15 44 -40 78 -44 113 -14 15 15
17 15 17 0 0 -9 -8 -21 -17 -26 -16 -9 -16 -10 -2 -11 18 0 41 22 38 36 -4 21
2 25 17 13 15 -12 16 -11 10 7 -4 12 0 34 9 50 8 16 15 39 15 50 0 12 6 24 14
27 14 5 14 55 1 123 -2 11 -4 62 -5 114 -1 52 -4 87 -7 78 -4 -14 -8 -15 -23
-6 -16 10 -24 8 -46 -12 -14 -14 -30 -36 -35 -48 -5 -13 -19 -26 -30 -29 -15
-4 -17 -8 -8 -14 10 -6 10 -11 0 -23 -8 -9 -15 -49 -16 -91 -2 -41 -7 -79 -10
-85 -4 -6 -1 -17 5 -25 10 -12 9 -15 -4 -15 -11 0 -16 -9 -16 -29 0 -17 -3
-32 -8 -34 -13 -9 -47 27 -66 69 -10 23 -31 51 -47 63 -16 12 -28 25 -28 29 1
4 1 18 -1 32 -1 22 -2 23 -9 5 -6 -16 -9 -14 -15 15 -5 27 -16 126 -18 170 -1
15 16 71 22 75 10 6 0 45 -11 45 -5 0 -9 9 -9 21 0 14 5 19 14 16 8 -3 19 0
25 7 8 10 4 11 -19 8 -19 -3 -30 0 -30 7 0 7 -4 10 -9 7 -5 -3 -7 -16 -4 -29
4 -18 3 -19 -6 -7 -9 12 -11 11 -11 -7 0 -15 -6 -23 -17 -23 -17 -1 -17 -1 -1
-11 19 -11 17 -16 -26 -59 -10 -10 -19 -30 -20 -45 -1 -21 -5 -25 -26 -23 -16
2 -29 13 -37 31 -7 16 -16 26 -20 24 -5 -3 -7 9 -7 26 1 18 -5 40 -13 49 -9
10 -13 24 -9 33 3 9 -1 18 -9 21 -9 4 -15 19 -15 35 0 16 -5 29 -11 29 -12 0
-8 65 6 108 11 32 -9 27 -22 -5 -10 -26 -10 -26 -5 10 4 30 1 37 -12 37 -9 0
-16 5 -16 11 0 5 8 9 18 8 31 -3 43 1 37 11 -3 6 -17 7 -30 4 -31 -8 -74 38
-75 78 0 15 -4 29 -9 32 -5 3 -12 27 -16 53 -4 26 -13 59 -20 73 -39 77 -50
251 -29 483 4 47 2 67 -6 67 -6 0 -9 4 -6 9 3 5 0 11 -8 14 -8 3 -16 -2 -19
-15 -3 -11 -10 -17 -16 -13 -7 4 -11 -4 -11 -18 0 -14 -7 -27 -15 -31 -8 -3
-15 -14 -15 -25 0 -11 -4 -23 -10 -26 -5 -3 -10 -15 -10 -26 0 -10 -4 -19 -9
-19 -13 0 -35 -61 -32 -88 1 -13 -5 -35 -13 -48 -9 -13 -16 -30 -16 -39 0 -8
-5 -15 -11 -15 -8 0 -10 -12 -6 -35 3 -19 2 -35 -4 -35 -5 0 -9 5 -9 11 0 5
-4 7 -10 4 -5 -3 -10 1 -10 10 0 9 -6 37 -14 63 -44 144 -60 200 -62 227 -1
17 -5 37 -8 45 -8 20 -3 121 8 138 4 6 4 12 -1 12 -4 0 0 5 10 11 9 6 15 15
11 20 -3 6 1 18 10 28 9 10 21 42 26 72 5 30 13 65 16 79 8 25 7 25 -12 6 -16
-17 -19 -17 -22 -4 -2 9 -13 19 -25 23 -12 4 -25 8 -29 10 -5 1 -11 3 -14 4
-16 3 21 31 40 31 12 0 29 9 39 20 21 25 22 31 0 23 -11 -4 -14 -3 -9 6 5 7
14 10 21 7 11 -4 95 71 95 86 0 6 -8 3 -158 -72 -46 -23 -86 -39 -89 -36 -6 6
45 33 203 107 66 31 132 64 148 74 28 19 63 18 309 -1 73 -6 79 -5 75 12 -4
24 -113 49 -255 59 -87 6 -111 11 -140 31 -20 13 -42 24 -50 24 -28 0 -113
102 -119 142 -5 31 -37 77 -50 71 -12 -5 -44 11 -44 23 0 7 -7 17 -15 21 -12
7 -12 14 0 48 8 22 14 48 15 58 0 10 5 27 10 38 10 18 13 18 50 -12 35 -28 43
-31 87 -25 26 4 86 9 133 11 56 2 105 11 139 25 30 11 56 18 59 15 3 -3 -1 -5
-9 -6 -8 0 -5 -4 6 -8 39 -16 45 3 41 145 -2 74 -6 137 -10 141 -3 3 0 13 7
21 8 11 9 16 1 19 -7 2 -8 19 -4 48 5 34 4 45 -7 45 -20 0 -16 20 5 20 13 1
11 6 -11 25 -21 18 -24 25 -12 25 13 0 16 9 14 38 -1 20 3 48 8 62 6 14 14 50
18 80 4 30 16 74 26 97 10 23 19 50 19 60 0 10 14 51 30 92 17 40 30 78 30 85
0 6 12 36 27 66 14 30 27 60 27 65 1 10 22 76 33 105 3 8 7 20 8 25 0 6 6 23
13 38 7 16 12 35 12 43 0 8 6 14 13 14 7 0 13 15 14 37 1 20 6 39 12 42 5 3
17 31 26 61 10 30 25 63 33 73 8 9 12 17 8 17 -3 0 0 10 8 23 7 12 16 34 20
50 4 15 11 27 16 27 6 0 10 5 10 11 0 5 -5 7 -12 3 -8 -5 -9 -2 -5 10 4 10 7
24 7 32 0 9 5 12 10 9 6 -4 13 7 16 24 4 17 10 31 15 31 5 0 6 6 3 14 -3 7 2
16 10 19 9 4 16 13 16 22 0 18 16 20 23 3 3 -9 7 -7 12 6 5 11 3 21 -5 26 -20
12 1 75 23 74 10 -1 17 5 17 16 0 10 6 23 14 29 21 18 58 92 52 106 -2 7 4 19
15 28 10 9 16 23 13 31 -3 8 -1 17 5 20 6 4 8 13 4 21 -3 11 2 15 18 16 17 1
19 3 7 6 -13 3 -18 15 -18 44 0 42 14 52 25 18 7 -19 7 -20 21 -2 18 24 18 34
-1 27 -11 -5 -15 1 -15 18 0 27 37 55 52 40 17 -17 48 19 48 56 0 22 -4 32
-12 30 -7 -3 -13 -11 -14 -19 0 -8 -4 -22 -8 -31 -10 -22 -48 -25 -40 -4 4 11
0 13 -16 9 -20 -5 -21 -4 -9 16 8 11 18 21 22 21 5 0 6 8 2 18 -4 9 -8 22 -9
29 -1 7 -5 16 -9 19 -12 12 -8 24 8 24 8 0 15 -4 15 -10 0 -5 5 -10 11 -10 8
0 8 4 0 14 -9 11 -9 15 1 19 7 2 1 3 -13 1 -25 -3 -26 -1 -24 37 2 34 0 39
-19 39 -11 0 -16 -4 -11 -8z m42 -158 c-3 -3 -12 -4 -19 -1 -8 3 -5 6 6 6 11
1 17 -2 13 -5z m-289 -466 c-2 -6 -10 -14 -16 -16 -7 -2 -10 2 -6 12 7 18 28
22 22 4z m-408 -1118 c0 -5 -4 -10 -10 -10 -5 0 -10 5 -10 10 0 6 5 10 10 10
6 0 10 -4 10 -10z m-10 -30 c0 -5 -9 -10 -21 -10 -11 0 -17 5 -14 10 3 6 13
10 21 10 8 0 14 -4 14 -10z m60 -3205 c0 -5 -5 -3 -10 5 -5 8 -10 20 -10 25 0
6 5 3 10 -5 5 -8 10 -19 10 -25z m260 -270 c0 -8 -9 -15 -19 -15 -29 0 -35 18
-9 23 13 2 24 5 26 6 1 0 2 -6 2 -14z"/>
<path d="M2956 9773 c-6 -14 -5 -15 5 -6 7 7 10 15 7 18 -3 3 -9 -2 -12 -12z"/>
<path d="M2668 9113 c7 -3 16 -2 19 1 4 3 -2 6 -13 5 -11 0 -14 -3 -6 -6z"/>
<path d="M3541 8814 c0 -11 3 -14 6 -6 3 7 2 16 -1 19 -3 4 -6 -2 -5 -13z"/>
<path d="M3543 8730 c0 -25 2 -35 4 -22 2 12 2 32 0 45 -2 12 -4 2 -4 -23z"/>
<path d="M3680 8719 c0 -5 -5 -7 -11 -3 -8 4 -9 -3 -4 -25 5 -26 4 -30 -9 -25
-12 4 -16 0 -16 -15 0 -12 -6 -21 -14 -21 -9 0 -15 -16 -19 -47 -3 -29 -12
-52 -23 -60 -13 -10 -14 -13 -3 -13 9 0 10 -3 3 -8 -6 -4 -14 -29 -18 -55 -12
-81 -18 -45 -17 99 1 76 0 136 -2 134 -3 -3 -7 -68 -11 -145 -7 -151 -14 -214
-26 -230 -4 -5 -10 -28 -14 -50 -9 -64 -11 -69 -25 -94 -11 -19 -12 -60 -8
-185 3 -89 3 -155 0 -148 -3 9 -10 5 -19 -13 -8 -15 -11 -32 -8 -37 4 -6 2
-13 -3 -17 -20 -13 -53 -94 -55 -132 -1 -32 -4 -38 -18 -34 -11 4 -21 -3 -28
-20 -15 -34 -15 -55 1 -56 6 0 1 -5 -13 -11 -14 -6 -28 -10 -32 -10 -5 1 -8
-6 -8 -16 0 -11 -10 -24 -22 -30 -13 -6 -17 -11 -10 -11 7 -1 11 -5 7 -11 -3
-5 -12 -7 -20 -4 -10 4 -16 -5 -21 -31 -4 -22 -13 -39 -23 -42 -10 -3 -30 -39
-50 -91 -54 -137 -56 -142 -62 -142 -3 0 -4 -11 -1 -25 3 -18 0 -25 -11 -25
-13 0 -16 -12 -15 -63 0 -35 -5 -74 -12 -87 l-13 -25 22 19 c11 11 23 17 25
15 2 -2 13 -78 25 -169 45 -360 60 -470 80 -585 38 -220 91 -468 99 -460 5 5
-14 110 -40 215 -27 117 -57 300 -51 316 3 8 0 21 -7 29 -7 8 -10 28 -8 44 2
17 1 28 -2 26 -4 -3 -10 24 -13 58 -3 34 -8 71 -12 82 -3 11 1 7 9 -10 l14
-30 7 59 c4 33 11 53 15 46 4 -7 12 -10 18 -6 11 6 25 -51 16 -65 -3 -5 4 -9
16 -9 17 0 20 -4 15 -20 -5 -14 -2 -20 10 -20 11 0 14 -6 9 -24 -3 -14 0 -29
10 -38 8 -9 17 -28 20 -43 3 -15 10 -33 16 -40 8 -10 8 -15 0 -20 -8 -5 -6
-11 4 -18 9 -7 17 -31 18 -54 2 -24 6 -43 11 -43 4 0 7 -13 7 -30 0 -16 4 -30
10 -30 5 0 9 -8 8 -17 -3 -40 3 -63 17 -63 8 0 12 -6 9 -15 -7 -18 21 -137 47
-192 10 -24 19 -47 19 -53 0 -6 4 -18 10 -28 14 -24 32 -74 35 -93 1 -9 16
-35 33 -57 18 -22 32 -45 32 -51 0 -6 4 -11 8 -11 4 0 13 -20 20 -45 9 -34 16
-43 27 -38 11 4 18 -1 22 -16 3 -11 9 -21 13 -21 4 0 13 -14 20 -31 13 -30 9
-190 -6 -249 -5 -16 -3 -21 3 -15 15 15 36 141 35 209 -1 42 2 56 8 45 5 -9
23 -31 40 -49 16 -18 30 -36 30 -41 0 -5 6 -9 14 -9 12 0 34 -21 89 -89 9 -12
17 -24 17 -28 0 -3 7 -14 16 -24 19 -21 52 -77 60 -101 4 -10 10 -18 15 -18 5
0 9 -7 9 -15 0 -8 3 -15 8 -15 4 0 12 -10 18 -23 6 -12 34 -67 62 -122 29 -55
52 -105 52 -111 0 -7 3 -14 8 -16 16 -7 72 -200 86 -295 2 -13 8 -28 13 -35 6
-7 16 -31 23 -53 7 -22 20 -54 31 -72 10 -18 21 -48 25 -67 3 -20 12 -40 20
-47 8 -6 14 -21 14 -33 0 -11 9 -36 20 -54 11 -18 20 -39 20 -47 0 -8 4 -15 8
-15 5 0 14 -16 22 -35 8 -19 19 -35 25 -35 16 0 34 138 19 144 -12 5 -12 34 0
54 4 6 2 12 -3 12 -6 0 -11 5 -11 11 0 5 5 7 11 3 24 -14 -19 139 -158 561
-83 252 -83 255 -73 255 4 0 11 -12 16 -27 5 -21 8 -24 11 -10 6 26 -19 77
-38 77 -21 0 -41 51 -28 71 8 12 10 12 8 -1 -4 -37 2 -50 21 -50 11 0 20 5 20
10 0 6 -6 10 -14 10 -10 0 -17 16 -22 48 -4 26 -11 50 -17 54 -6 3 -11 21 -11
40 -1 18 -4 38 -8 43 -3 6 -10 28 -14 50 -4 22 -16 47 -26 57 -12 10 -15 19
-9 23 7 4 6 13 -3 28 -8 12 -20 51 -27 87 -9 49 -19 71 -41 91 -16 14 -28 33
-27 40 5 30 -14 110 -32 133 -14 17 -15 26 -7 34 7 7 8 12 2 12 -11 0 -37 79
-38 119 -1 15 -9 30 -21 36 -17 8 -20 18 -19 48 2 30 0 37 -11 33 -11 -4 -12
0 -5 19 7 20 6 25 -5 25 -18 0 -20 36 -2 43 7 4 3 8 -11 13 -19 5 -22 11 -17
34 3 16 1 31 -4 35 -6 3 -11 17 -11 30 0 13 -5 36 -12 52 -6 15 -10 32 -9 37
1 4 -4 15 -11 24 -10 12 -10 14 0 8 17 -10 15 1 -5 35 -14 24 -15 31 -5 38 10
6 9 11 -3 21 -16 13 -15 15 1 27 10 7 12 13 6 13 -7 0 -12 9 -12 20 0 11 -4
28 -9 38 -5 9 -17 53 -26 97 -10 44 -20 87 -23 95 -3 8 -6 17 -7 20 -1 3 -7
18 -14 34 -6 16 -10 34 -8 40 2 6 0 25 -6 41 -10 34 -15 74 -17 155 -1 40 -4
50 -10 35 -9 -21 -10 -13 -14 87 0 20 -4 40 -8 44 -5 4 -8 14 -8 22 0 12 2 12
17 1 15 -13 16 -12 8 11 -4 14 -8 42 -9 62 0 23 -3 33 -8 25 -5 -7 -8 9 -8 38
1 89 -8 276 -20 440 -12 169 -7 274 15 315 8 14 15 21 15 15 0 -5 5 -41 10
-78 6 -37 15 -253 20 -480 6 -227 13 -451 15 -499 l5 -87 58 -55 c98 -94 121
-103 36 -15 l-81 84 -7 170 c-4 94 -11 308 -16 477 -5 169 -13 365 -16 435 -4
75 -3 125 2 120 9 -9 10 -13 13 -41 0 -7 10 -16 21 -19 11 -3 18 -2 16 2 -3 4
21 3 52 -2 31 -4 84 -10 117 -12 l60 -3 -56 6 c-54 7 -62 12 -145 88 -63 57
-91 90 -97 115 -8 30 -5 163 9 377 3 38 1 62 -6 62 -5 0 -10 -5 -10 -11z m84
-547 c2 -4 -11 -6 -30 -4 -19 2 -34 6 -34 8 0 8 59 4 64 -4z m-157 -724 c-3
-8 -6 -5 -6 6 -1 11 2 17 5 13 3 -3 4 -12 1 -19z m47 -81 c4 -19 3 -26 -4 -22
-5 3 -10 18 -10 32 0 32 5 28 14 -10z m3 -469 c-3 -8 -6 -5 -6 6 -1 11 2 17 5
13 3 -3 4 -12 1 -19z m0 -70 c-2 -13 -4 -5 -4 17 -1 22 1 32 4 23 2 -10 2 -28
0 -40z m-510 -305 c-3 -10 -5 -4 -5 12 0 17 2 24 5 18 2 -7 2 -21 0 -30z m100
-35 c-3 -8 -6 -5 -6 6 -1 11 2 17 5 13 3 -3 4 -12 1 -19z m867 -1144 c3 -8 2
-12 -4 -9 -6 3 -10 10 -10 16 0 14 7 11 14 -7z m46 -129 c0 -5 -5 -3 -10 5 -5
8 -10 20 -10 25 0 6 5 3 10 -5 5 -8 10 -19 10 -25z m100 -255 c0 -5 -4 -10
-10 -10 -5 0 -10 5 -10 10 0 6 5 10 10 10 6 0 10 -4 10 -10z"/>
<path d="M6151 8464 c-1 -23 -3 -57 -6 -75 -4 -28 -3 -30 4 -9 8 24 8 24 14
-10 3 -19 9 -53 12 -75 12 -94 18 -120 26 -123 5 -2 9 -12 9 -22 0 -10 6 -21
13 -24 10 -5 10 -7 0 -12 -7 -3 -13 -11 -13 -17 0 -5 3 -7 7 -4 3 4 13 2 20
-5 12 -10 14 -6 7 28 -3 21 -10 46 -14 54 -9 18 -47 180 -55 235 -3 22 -9 54
-14 70 -9 29 -9 29 -10 -11z"/>
<path d="M4620 8381 c0 -6 4 -13 10 -16 6 -3 7 1 4 9 -7 18 -14 21 -14 7z"/>
<path d="M4561 8324 c0 -11 3 -14 6 -6 3 7 2 16 -1 19 -3 4 -6 -2 -5 -13z"/>
<path d="M4520 8319 c0 -5 5 -7 10 -4 6 3 10 8 10 11 0 2 -4 4 -10 4 -5 0 -10
-5 -10 -11z"/>
<path d="M4442 8295 c0 -16 2 -22 5 -12 2 9 2 23 0 30 -3 6 -5 -1 -5 -18z"/>
<path d="M4550 8290 c0 -5 5 -10 10 -10 6 0 10 5 10 10 0 6 -4 10 -10 10 -5 0
-10 -4 -10 -10z"/>
<path d="M4450 8252 c0 -11 39 -47 44 -41 2 2 -7 14 -20 27 -13 12 -24 19 -24
14z"/>
<path d="M4455 8070 c44 -4 118 -10 165 -13 l85 -6 -100 14 c-55 8 -129 13
-165 13 l-65 -1 80 -7z"/>
<path d="M6274 8034 c15 -14 31 -23 34 -20 6 7 -39 45 -53 45 -5 0 3 -11 19
-25z"/>
<path d="M2021 8034 c0 -11 3 -14 6 -6 3 7 2 16 -1 19 -3 4 -6 -2 -5 -13z"/>
<path d="M4743 8043 c9 -2 23 -2 30 0 6 3 -1 5 -18 5 -16 0 -22 -2 -12 -5z"/>
<path d="M2816 6814 c-43 -7 -81 -15 -83 -18 -8 -7 33 -14 105 -19 l62 -3 0
28 c0 15 -1 27 -2 27 -2 -1 -38 -7 -82 -15z"/>
<path d="M3919 6777 c15 -19 71 -61 71 -54 0 2 -19 19 -42 37 -24 19 -37 26
-29 17z"/>
<path d="M2100 6690 c18 -12 296 -12 360 -1 30 6 -26 9 -165 10 -139 0 -205
-3 -195 -9z"/>
<path d="M2659 6680 c29 -10 65 -27 80 -38 15 -11 39 -18 54 -17 15 2 27 -1
27 -7 0 -5 6 -8 13 -5 6 2 19 -2 28 -10 14 -12 17 -12 23 2 3 9 2 13 -3 10 -6
-3 -13 1 -18 8 -4 8 -19 20 -33 27 -35 19 -159 50 -195 49 -25 0 -22 -3 24
-19z"/>
<path d="M2576 6625 c6 -14 41 -28 99 -39 34 -6 41 -10 -59 36 -48 22 -47 22
-40 3z"/>
<path d="M2320 6501 c-36 -6 -21 -8 80 -13 69 -4 184 -13 255 -21 72 -8 132
-13 134 -11 32 28 -350 64 -469 45z"/>
<path d="M2901 6274 c0 -11 3 -14 6 -6 3 7 2 16 -1 19 -3 4 -6 -2 -5 -13z"/>
<path d="M2893 6235 c-3 -9 -3 -18 -1 -21 3 -3 8 4 11 16 6 23 -1 27 -10 5z"/>
<path d="M3112 5676 c-4 -72 -7 -91 -15 -97 -4 -3 17 -32 47 -65 38 -40 55
-53 56 -41 0 22 -68 235 -78 241 -4 2 -8 -15 -10 -38z"/>
<path d="M3280 5696 c0 -19 44 -166 50 -166 4 0 2 17 -6 38 -7 20 -13 44 -14
53 0 18 -29 90 -30 75z"/>
<path d="M2273 5603 c-13 -2 -23 -9 -23 -14 0 -6 5 -7 11 -3 6 3 15 0 20 -7 7
-11 9 -10 9 4 0 9 5 17 10 17 6 0 10 -8 10 -17 0 -15 2 -16 9 -3 6 8 7 18 5
22 -5 8 -13 8 -51 1z"/>
<path d="M4060 5570 c0 -5 5 -10 10 -10 6 0 10 5 10 10 0 6 -4 10 -10 10 -5 0
-10 -4 -10 -10z"/>
<path d="M2265 5542 c-5 -14 -7 -14 -15 -2 -8 12 -10 11 -10 -5 0 -11 -7 -29
-15 -39 -20 -26 -19 -66 0 -66 8 0 15 -4 15 -10 0 -5 -11 -10 -25 -10 -14 0
-25 -5 -25 -11 0 -17 52 -6 64 14 8 13 8 20 -3 26 -9 6 -10 11 -2 15 6 4 11 2
11 -3 0 -6 5 -11 10 -11 6 0 10 13 10 29 0 16 7 34 15 41 20 16 19 23 -4 37
-16 10 -20 9 -26 -5z m-5 -42 c0 -5 -5 -10 -11 -10 -5 0 -7 5 -4 10 3 6 8 10
11 10 2 0 4 -4 4 -10z"/>
<path d="M3334 5505 c27 -103 120 -402 127 -410 10 -10 8 23 -3 40 -6 10 -54
164 -89 289 -18 63 -49 135 -35 81z"/>
<path d="M3274 5323 c9 -18 16 -36 16 -40 -1 -5 11 -23 25 -41 14 -18 33 -47
41 -65 l15 -32 -5 34 c-6 36 -65 140 -93 162 -15 13 -15 12 1 -18z"/>
<path d="M2193 5211 c0 -11 5 -18 9 -15 4 3 5 11 1 19 -7 21 -12 19 -10 -4z"/>
<path d="M3403 5067 c4 -10 7 -33 7 -51 0 -22 11 -46 31 -72 74 -93 127 -236
179 -489 5 -22 15 -58 22 -80 11 -34 18 -40 41 -40 15 1 23 -2 19 -5 -4 -3
-25 -19 -46 -35 -37 -27 -38 -29 -20 -42 10 -7 26 -19 34 -26 9 -6 36 -29 62
-49 25 -21 50 -38 54 -38 10 0 -37 42 -90 81 -25 18 -46 39 -46 46 0 15 13 10
40 -14 99 -87 112 -95 131 -77 10 9 16 21 13 25 -3 5 2 9 10 9 9 0 16 3 16 8
0 4 10 13 23 21 26 17 29 21 -68 -99 -34 -41 -79 -101 -101 -132 -22 -32 -66
-84 -97 -117 -42 -43 -63 -75 -76 -115 -10 -31 -15 -56 -10 -56 5 0 6 -7 3
-15 -8 -19 9 -19 47 1 17 8 32 14 34 12 1 -2 23 -37 47 -78 24 -41 61 -99 81
-129 21 -29 44 -79 53 -110 8 -31 20 -67 26 -81 6 -14 10 -33 9 -44 -2 -10 2
-15 8 -12 5 4 9 -2 8 -13 0 -11 -5 -17 -10 -14 -5 3 -8 -3 -7 -13 6 -54 -2
-106 -17 -121 -10 -10 -19 -29 -20 -43 -4 -74 -7 -89 -15 -84 -4 3 -8 -6 -8
-20 0 -13 -7 -51 -15 -83 -14 -54 -33 -167 -55 -323 -15 -104 -38 -379 -49
-580 -21 -378 -21 -381 -11 -375 12 7 12 5 12 -97 1 -43 4 -78 8 -78 7 0 7 -3
11 -225 1 -90 6 -143 13 -147 8 -6 7 -8 -1 -8 -7 0 -13 -9 -13 -20 0 -11 4
-20 9 -20 5 0 9 -33 8 -72 -1 -40 3 -107 8 -148 11 -98 9 -141 -7 -152 -8 -5
-9 -11 -3 -15 13 -10 17 -83 5 -83 -17 0 -11 -22 13 -43 14 -13 16 -18 6 -14
-13 4 -18 -4 -23 -41 -4 -32 -2 -48 6 -54 9 -6 10 -10 2 -15 -6 -5 -12 -15
-12 -23 -1 -8 -4 -46 -7 -85 -3 -38 -11 -73 -18 -77 -9 -6 -9 -10 2 -17 10 -7
12 -24 6 -75 -3 -36 -11 -66 -16 -66 -5 0 -9 -4 -9 -10 0 -5 11 -10 24 -10 22
0 24 6 36 90 10 72 10 92 0 105 -10 12 -9 15 5 15 16 0 17 -9 11 -105 l-7
-105 24 0 c25 0 53 42 41 62 -4 6 -2 13 4 17 6 4 13 47 15 96 3 50 9 102 15
118 7 16 8 27 2 27 -6 0 -10 7 -10 15 0 8 5 15 12 15 6 0 9 3 6 6 -4 3 -2 20
3 37 5 19 5 46 -2 71 -9 35 -8 42 8 53 15 12 16 15 3 23 -8 5 -10 10 -5 10 12
0 16 60 4 60 -5 0 -9 4 -9 10 0 5 6 9 12 7 16 -3 19 61 4 85 -8 13 -6 22 8 36
13 15 14 21 4 25 -10 4 -10 8 2 16 10 7 11 11 3 11 -7 0 -10 6 -8 13 5 15 17
128 19 182 0 22 4 45 8 51 4 6 4 14 0 18 -10 11 -12 75 -1 81 5 4 6 11 3 17
-9 14 -13 198 -5 198 3 0 5 179 5 398 -1 321 1 401 12 419 18 28 18 33 -2 33
-13 0 -12 5 6 34 14 24 19 43 14 61 -4 18 -2 30 7 35 10 7 10 11 -1 25 -12 14
-12 18 1 26 10 6 11 9 1 9 -7 0 -10 4 -7 10 3 5 1 36 -4 67 -6 32 -11 85 -13
118 -1 33 -4 64 -6 68 -2 5 -4 43 -4 85 0 65 3 77 16 74 9 -2 19 4 22 13 4 9
12 14 20 11 7 -3 18 2 24 10 10 11 10 14 -1 14 -8 0 -4 7 9 16 12 8 22 23 23
32 0 14 2 13 9 -3 7 -16 9 -17 9 -3 1 25 -10 49 -20 42 -5 -3 -17 0 -26 6 -17
11 -17 11 1 6 17 -6 18 -2 13 34 -5 38 -4 40 16 34 19 -6 20 -5 9 9 -19 23 -5
67 22 67 17 0 18 2 6 10 -12 8 -9 10 13 10 19 0 27 4 25 13 -3 6 -11 12 -19
12 -8 0 -16 11 -17 24 -2 13 -12 26 -23 28 -10 3 -16 9 -13 14 3 5 0 9 -5 9
-6 0 -11 5 -11 10 0 19 -34 47 -72 59 -43 14 -43 13 -59 153 -10 92 -9 133 6
285 9 98 21 187 26 198 6 13 8 -1 4 -42 -3 -41 -1 -63 6 -63 5 0 7 4 4 10 -3
5 0 7 9 4 11 -4 13 -12 6 -28 -9 -26 -1 -116 11 -116 4 0 7 -47 7 -105 -1 -57
1 -107 4 -110 3 -3 9 34 13 82 9 104 13 141 19 168 3 11 5 27 5 35 1 12 3 13
10 1 5 -8 14 -10 22 -6 8 5 6 -1 -4 -12 -15 -17 -16 -21 -3 -26 8 -3 16 -16
19 -29 l4 -23 2 23 c0 12 6 22 12 22 7 0 9 -11 6 -29 -5 -25 -2 -30 18 -35 19
-5 25 -13 25 -34 1 -30 41 -115 54 -113 5 0 10 17 11 37 1 22 -1 30 -6 22 -6
-9 -9 -8 -9 7 -3 55 -9 88 -19 98 -6 6 -11 28 -11 49 0 21 -4 38 -8 38 -4 0
-9 15 -10 33 -1 17 -10 66 -18 107 -9 41 -18 82 -19 90 -4 26 -17 73 -43 155
-44 143 -98 228 -150 238 -47 9 -142 48 -142 58 0 4 12 3 27 -4 21 -9 27 -9
30 0 3 9 11 6 25 -7 11 -10 26 -16 34 -13 9 3 3 15 -21 40 -19 20 -35 44 -35
53 0 10 -6 20 -14 23 -14 6 -36 65 -36 97 0 13 1 13 10 0 5 -8 10 -10 10 -4 0
6 -7 17 -15 24 -8 7 -15 20 -16 29 0 12 -2 11 -8 -4 -5 -11 -7 41 -5 115 l3
135 -10 -95 c-19 -186 -28 -217 -24 -80 3 91 2 111 -5 72 -10 -67 -20 -78 -20
-24 0 22 -4 43 -8 46 -5 3 -8 37 -8 76 1 38 -1 70 -4 70 -11 0 -34 -20 -24
-20 10 0 10 -25 1 -108 -4 -34 -17 -57 -17 -29 0 10 -4 17 -10 17 -15 0 -12
-32 6 -75 8 -20 13 -40 10 -43 -3 -3 -6 -3 -6 -1 0 3 -9 29 -20 59 -78 218
-81 224 -134 270 -24 20 -28 21 -23 7z m197 -261 c0 -3 -4 -8 -10 -11 -5 -3
-10 -1 -10 4 0 6 5 11 10 11 6 0 10 -2 10 -4z m216 -544 c-6 -5 -59 32 -77 55
-8 9 7 2 33 -17 27 -18 46 -35 44 -38z m-13 -24 c10 -10 15 -18 12 -18 -9 0
-100 72 -104 83 -4 11 63 -36 92 -65z m-57 10 c29 -24 55 -49 58 -56 4 -8 -17
5 -45 27 -29 23 -55 41 -59 41 -4 0 -10 7 -14 15 -9 23 3 18 60 -27z m90
-1200 c-3 -29 -8 -339 -11 -688 -5 -696 -13 -1020 -27 -1020 -5 0 -8 6 -7 12
1 7 -3 26 -9 41 -7 16 -9 34 -5 40 5 7 10 -2 14 -23 6 -32 6 -30 7 15 1 38 -1
46 -9 33 -5 -10 -14 -18 -19 -18 -6 0 -9 8 -8 18 3 41 -5 54 -12 17 l-7 -40
-2 43 c-1 35 2 42 17 42 15 0 18 6 14 31 -3 19 -9 28 -17 25 -20 -7 -31 70
-14 100 10 20 10 27 -4 42 -14 15 -15 28 -6 87 6 43 6 72 0 78 -5 5 -6 19 -2
31 5 11 5 47 0 80 -4 32 -5 64 -2 72 3 8 1 14 -4 14 -6 0 -7 19 -3 46 4 25 4
60 1 77 -4 17 -3 60 1 97 4 36 8 98 9 138 1 39 4 72 8 72 3 0 7 26 9 58 3 85
10 142 22 187 5 22 14 72 20 110 11 80 43 235 48 235 2 0 1 -24 -2 -52z m124
-128 c0 -5 -4 -10 -10 -10 -5 0 -10 5 -10 10 0 6 5 10 10 10 6 0 10 -4 10 -10z
m-303 -1292 c-2 -13 -4 -5 -4 17 -1 22 1 32 4 23 2 -10 2 -28 0 -40z m98 -88
c3 -5 1 -10 -4 -10 -6 0 -11 5 -11 10 0 6 2 10 4 10 3 0 8 -4 11 -10z m17
-272 c-6 -6 -12 -6 -16 1 -4 6 -2 11 4 11 6 0 11 12 10 28 -3 44 3 51 7 8 3
-21 0 -43 -5 -48z m38 22 c0 -11 -4 -20 -9 -20 -5 0 -7 9 -4 20 3 11 7 20 9
20 2 0 4 -9 4 -20z m-11 -152 c-1 -62 -5 -124 -9 -138 -4 -14 -5 23 -2 81 3
65 1 119 -6 138 -9 26 -8 31 4 31 12 0 15 -18 13 -112z m-24 21 c0 -27 -3 -49
-8 -49 -4 0 -6 25 -5 55 3 66 13 62 13 -6z m5 -73 c0 -3 -4 -8 -10 -11 -5 -3
-10 -1 -10 4 0 6 5 11 10 11 6 0 10 -2 10 -4z m7 -178 c-2 -13 -4 -3 -4 22 0
25 2 35 4 23 2 -13 2 -33 0 -45z m-9 -140 c-3 -51 -7 -111 -7 -132 -1 -22 -4
-37 -7 -34 -7 8 7 258 15 258 3 0 3 -42 -1 -92z m29 -35 c-3 -10 -5 -2 -5 17
0 19 2 27 5 18 2 -10 2 -26 0 -35z m10 -80 c-3 -10 -5 -4 -5 12 0 17 2 24 5
18 2 -7 2 -21 0 -30z m-67 -3 c0 -5 -4 -10 -10 -10 -5 0 -10 5 -10 10 0 6 5
10 10 10 6 0 10 -4 10 -10z m-5 -50 c3 -5 1 -10 -4 -10 -6 0 -11 5 -11 10 0 6
2 10 4 10 3 0 8 -4 11 -10z m21 -42 c-3 -18 -8 -72 -11 -120 -4 -49 -12 -91
-18 -95 -6 -4 -8 0 -4 10 3 9 0 23 -8 31 -10 10 -11 16 -3 18 6 2 12 17 14 33
2 17 6 50 10 74 5 32 3 45 -7 52 -11 7 -11 9 4 9 9 0 17 5 17 10 0 6 2 10 5
10 3 0 3 -15 1 -32z m-31 -239 c4 -6 4 -31 0 -57 -8 -46 -8 -46 -16 -17 -5 18
-5 31 1 33 6 2 10 13 9 25 0 21 -1 21 -9 2 -8 -19 -9 -19 -9 3 -1 23 13 30 24
11z m-35 -69 c0 -5 -5 -10 -11 -10 -5 0 -7 5 -4 10 3 6 8 10 11 10 2 0 4 -4 4
-10z m70 -70 c0 -5 -2 -10 -4 -10 -3 0 -8 5 -11 10 -3 6 -1 10 4 10 6 0 11 -4
11 -10z m-70 -20 c0 -5 -2 -10 -4 -10 -3 0 -8 5 -11 10 -3 6 -1 10 4 10 6 0
11 -4 11 -10z m53 -70 c3 -11 1 -18 -4 -14 -5 3 -9 12 -9 20 0 20 7 17 13 -6z"/>
<path d="M3757 1653 c-4 -3 -7 -11 -7 -17 0 -6 5 -5 12 2 6 6 9 14 7 17 -3 3
-9 2 -12 -2z"/>
<path d="M3785 1507 c-4 -10 -5 -21 -1 -24 10 -10 18 4 13 24 -4 17 -4 17 -12
0z"/>
<path d="M3472 5050 c13 -40 21 -43 38 -17 12 19 11 21 -2 10 -17 -15 -28 -7
-28 19 0 10 -4 18 -9 18 -6 0 -6 -12 1 -30z"/>
<path d="M3672 5050 c0 -14 2 -19 5 -12 2 6 2 18 0 25 -3 6 -5 1 -5 -13z"/>
<path d="M3612 5029 c-10 -15 -9 -19 0 -19 25 0 37 14 24 26 -10 9 -16 7 -24
-7z"/>
<path d="M5858 5023 c-16 -4 -16 -6 -4 -19 17 -16 33 -86 46 -200 l9 -79 -5
95 c-6 126 -15 210 -23 209 -3 -1 -14 -3 -23 -6z"/>
<path d="M3505 4980 c-3 -5 -1 -10 4 -10 6 0 11 5 11 10 0 6 -2 10 -4 10 -3 0
-8 -4 -11 -10z"/>
<path d="M3510 4950 c0 -5 5 -10 10 -10 6 0 10 5 10 10 0 6 -4 10 -10 10 -5 0
-10 -4 -10 -10z"/>
<path d="M5911 4679 c-1 -45 15 -277 40 -569 8 -93 9 -193 3 -320 -5 -102 -9
-284 -9 -405 0 -193 2 -223 18 -245 16 -24 17 -16 16 215 -1 341 -15 748 -33
975 -28 343 -33 396 -35 349z"/>
<path d="M2938 4537 c-26 -29 -59 -67 -74 -85 -14 -17 -31 -29 -37 -25 -7 4
-8 0 -4 -11 5 -14 3 -17 -8 -12 -9 3 -15 0 -15 -8 0 -7 -7 -13 -15 -13 -9 0
-14 6 -11 14 3 7 -1 13 -8 13 -8 0 -16 -5 -18 -11 -3 -8 -9 -7 -19 4 -9 8 -21
12 -27 8 -8 -5 -1 -15 19 -30 17 -13 40 -43 51 -67 13 -31 25 -44 39 -44 11 0
17 5 14 10 -3 6 1 17 9 26 9 9 13 20 10 26 -5 7 -2 8 6 3 10 -6 12 -4 7 9 -4
9 -3 15 2 12 13 -8 34 21 26 34 -4 7 4 24 17 38 25 28 58 77 58 87 0 5 -36
-33 -57 -60 -5 -5 -22 -28 -39 -50 -17 -22 -41 -58 -52 -80 -12 -22 -21 -36
-22 -32 -1 19 85 157 111 177 3 3 10 12 15 22 5 9 26 35 47 57 21 23 34 41 30
41 -4 -1 -29 -24 -55 -53z"/>
<path d="M2485 4519 c6 -8 24 -33 39 -57 16 -23 31 -40 33 -38 6 6 -53 93 -70
102 -9 6 -9 4 -2 -7z"/>
<path d="M2939 4399 c-51 -59 -99 -139 -99 -167 0 -10 3 -10 15 2 8 8 15 20
15 27 0 12 92 151 117 177 13 13 17 22 9 22 -2 0 -28 -28 -57 -61z"/>
<path d="M2770 4430 c0 -5 7 -10 15 -10 8 0 15 5 15 10 0 6 -7 10 -15 10 -8 0
-15 -4 -15 -10z"/>
<path d="M2591 4368 c61 -78 162 -198 167 -198 3 0 -2 8 -10 18 -30 35 -29 46
2 13 24 -25 34 -30 40 -21 5 7 6 20 3 27 -5 12 -7 12 -15 1 -7 -9 -8 -5 -5 15
2 15 0 27 -4 27 -5 0 -9 -5 -9 -12 0 -7 -19 6 -41 27 -23 22 -39 34 -35 28 4
-7 4 -13 1 -13 -11 0 -52 45 -74 82 -12 20 -28 39 -37 42 -9 3 -1 -13 17 -36z
m123 -114 c9 -24 7 -28 -9 -14 -17 14 -20 30 -6 30 5 0 12 -7 15 -16z"/>
<path d="M2890 4399 c0 -5 5 -7 10 -4 6 3 10 8 10 11 0 2 -4 4 -10 4 -5 0 -10
-5 -10 -11z"/>
<path d="M2985 4340 c-3 -5 1 -10 9 -10 8 0 18 5 21 10 3 6 -1 10 -9 10 -8 0
-18 -4 -21 -10z"/>
<path d="M3050 4260 c0 -19 3 -21 12 -12 9 9 9 15 0 24 -9 9 -12 7 -12 -12z"/>
<path d="M3080 4266 c0 -9 5 -16 10 -16 6 0 10 4 10 9 0 6 -4 13 -10 16 -5 3
-10 -1 -10 -9z"/>
<path d="M3600 4253 c0 -5 17 -21 38 -37 l37 -29 -34 36 c-36 39 -41 42 -41
30z"/>
<path d="M2978 4226 c-25 -19 -23 -24 16 -32 44 -8 96 4 96 22 0 19 -25 18
-45 -2 -13 -13 -18 -14 -31 -3 -14 12 -14 14 3 20 17 7 17 8 -2 8 -11 0 -28
-6 -37 -13z"/>
<path d="M3580 4231 c0 -5 5 -13 10 -16 6 -3 10 -2 10 4 0 5 -4 13 -10 16 -5
3 -10 2 -10 -4z"/>
<path d="M3120 4221 c0 -5 9 -7 20 -4 11 3 20 7 20 9 0 2 -9 4 -20 4 -11 0
-20 -4 -20 -9z"/>
<path d="M3550 4216 c0 -2 7 -9 15 -16 13 -11 14 -10 9 4 -5 14 -24 23 -24 12z"/>
<path d="M2931 4193 c-1 -24 25 -55 50 -62 8 -2 23 -6 33 -9 13 -3 17 -1 12 6
-4 7 -1 12 9 12 9 0 15 6 13 13 -3 6 -25 13 -50 15 -35 2 -48 8 -56 25 l-11
22 0 -22z m66 -39 c-3 -3 -12 -4 -19 -1 -8 3 -5 6 6 6 11 1 17 -2 13 -5z"/>
<path d="M3530 4191 c0 -5 7 -12 16 -15 14 -5 15 -4 4 9 -14 17 -20 19 -20 6z"/>
<path d="M3116 4175 c-7 -19 3 -19 28 0 19 15 19 15 -1 15 -11 0 -23 -7 -27
-15z"/>
<path d="M3261 4174 c0 -11 3 -14 6 -6 3 7 2 16 -1 19 -3 4 -6 -2 -5 -13z"/>
<path d="M3715 4151 c11 -13 29 -28 40 -33 20 -11 20 -11 0 11 -11 13 -29 28
-40 33 -20 11 -20 11 0 -11z"/>
<path d="M2775 4130 c10 -11 20 -20 22 -20 2 0 -1 9 -7 20 -6 11 -16 20 -22
20 -6 0 -3 -9 7 -20z"/>
<path d="M3070 4130 c0 -13 6 -16 25 -12 14 2 25 9 25 14 0 5 5 6 10 3 6 -3
10 -2 10 2 0 5 -16 9 -35 10 -27 1 -35 -3 -35 -17z"/>
<path d="M3160 4140 c0 -5 5 -10 10 -10 6 0 10 5 10 10 0 6 -4 10 -10 10 -5 0
-10 -4 -10 -10z"/>
<path d="M3215 4130 c-3 -5 1 -10 9 -10 9 0 16 5 16 10 0 6 -4 10 -9 10 -6 0
-13 -4 -16 -10z"/>
<path d="M3323 4093 c-24 -23 -43 -45 -43 -47 0 -3 -13 -19 -29 -35 -16 -17
-32 -40 -36 -53 -13 -49 -37 -94 -54 -105 -15 -9 -25 -6 -55 19 -26 21 -35 35
-31 49 10 30 -12 92 -45 126 -47 50 -110 58 -110 14 0 -26 34 -83 44 -74 4 4
4 -1 0 -11 -5 -14 -4 -17 4 -12 7 4 12 2 12 -4 0 -5 16 -18 35 -27 19 -9 32
-20 29 -24 -5 -9 -66 20 -77 38 -4 7 -15 13 -23 13 -8 0 -12 4 -9 10 7 12 0
25 -39 74 -16 20 -34 36 -40 36 -8 0 -8 -3 0 -8 6 -4 17 -18 24 -32 12 -24 11
-23 -20 5 -57 52 -16 -4 61 -85 39 -41 92 -105 116 -142 59 -90 123 -144 123
-104 0 8 6 21 14 28 7 8 26 40 41 71 14 31 51 93 80 136 29 44 50 83 47 87 -4
4 -2 4 4 1 7 -4 19 4 28 18 9 14 13 25 9 25 -5 0 -1 5 7 10 13 8 12 12 -5 27
-19 18 -21 17 -62 -24z m43 -3 c-1 -16 -5 -32 -8 -35 -4 -5 -4 35 0 58 5 19
10 4 8 -23z m-392 -59 c3 -5 -1 -14 -9 -21 -13 -10 -15 -9 -15 9 0 21 14 28
24 12z m268 -143 c-7 -7 -12 -8 -12 -2 0 6 3 14 7 17 3 4 9 5 12 2 2 -3 -1
-11 -7 -17z m-182 -8 c0 -5 -2 -10 -4 -10 -3 0 -8 5 -11 10 -3 6 -1 10 4 10 6
0 11 -4 11 -10z m151 -43 c-12 -32 -17 -34 -17 -7 0 11 4 20 9 20 5 0 6 8 2
18 -4 12 -3 14 5 6 7 -7 8 -19 1 -37z"/>
<path d="M3130 4099 c0 -5 5 -7 10 -4 6 3 10 8 10 11 0 2 -4 4 -10 4 -5 0 -10
-5 -10 -11z"/>
<path d="M3725 4100 c3 -5 8 -10 11 -10 2 0 4 5 4 10 0 6 -5 10 -11 10 -5 0
-7 -4 -4 -10z"/>
<path d="M3020 4080 c16 -30 45 -43 60 -25 14 16 7 45 -10 45 -7 0 -9 -9 -6
-22 3 -13 3 -17 0 -10 -3 6 -10 10 -15 6 -5 -3 -9 2 -9 10 0 9 -7 16 -15 16
-13 0 -14 -4 -5 -20z"/>
<path d="M3105 4080 c-3 -5 -1 -10 4 -10 6 0 11 5 11 10 0 6 -2 10 -4 10 -3 0
-8 -4 -11 -10z"/>
<path d="M3203 4077 c9 -8 17 -19 17 -26 0 -13 16 -15 24 -3 3 5 -9 16 -27 26
-18 10 -24 11 -14 3z"/>
<path d="M3260 4070 c0 -5 5 -10 10 -10 6 0 10 5 10 10 0 6 -4 10 -10 10 -5 0
-10 -4 -10 -10z"/>
<path d="M3088 4054 c-4 -5 0 -18 8 -29 15 -20 17 -12 5 19 -4 11 -10 15 -13
10z"/>
<path d="M3110 4050 c0 -26 14 -40 30 -30 8 6 24 10 34 10 18 0 18 -2 -4 -25
-19 -21 -21 -25 -7 -25 9 0 17 6 17 13 0 8 3 7 10 -3 13 -21 18 -10 13 27 -5
30 -7 31 -40 26 -24 -4 -38 -2 -44 8 -7 12 -9 12 -9 -1z"/>
<path d="M3070 4023 c0 -4 5 -15 10 -23 8 -13 10 -13 10 2 0 9 -4 20 -10 23
-5 3 -10 3 -10 -2z"/>
<path d="M3269 3869 c-36 -72 -32 -79 46 -79 77 0 82 8 40 69 -19 29 -35 57
-35 62 0 26 -23 2 -51 -52z"/>
<path d="M4480 3875 c0 -16 16 -20 24 -6 3 5 -1 11 -9 15 -9 3 -15 0 -15 -9z"/>
<path d="M3970 3693 c0 -10 4 -14 8 -8 4 6 11 13 16 18 5 4 2 7 -7 7 -10 0
-17 -8 -17 -17z"/>
<path d="M4035 3630 c-3 -5 -1 -10 4 -10 6 0 11 5 11 10 0 6 -2 10 -4 10 -3 0
-8 -4 -11 -10z"/>
<path d="M3932 3450 c0 -14 2 -19 5 -12 2 6 2 18 0 25 -3 6 -5 1 -5 -13z"/>
<path d="M4170 3415 c0 -10 40 -45 51 -45 7 0 0 11 -15 25 -27 25 -36 30 -36
20z"/>
<path d="M4240 3366 c0 -13 25 -33 50 -40 23 -6 23 -6 5 5 -11 6 -28 19 -37
27 -10 8 -18 12 -18 8z"/>
<path d="M4525 3210 c3 -5 18 -10 33 -10 21 0 24 2 12 10 -20 13 -53 13 -45 0z"/>
<path d="M4768 3163 c7 -3 16 -2 19 1 4 3 -2 6 -13 5 -11 0 -14 -3 -6 -6z"/>
<path d="M5248 3083 c7 -3 16 -2 19 1 4 3 -2 6 -13 5 -11 0 -14 -3 -6 -6z"/>
<path d="M5298 3073 c12 -2 30 -2 40 0 9 3 -1 5 -23 4 -22 0 -30 -2 -17 -4z"/>
<path d="M5378 3063 c12 -2 30 -2 40 0 9 3 -1 5 -23 4 -22 0 -30 -2 -17 -4z"/>
<path d="M5450 3050 c8 -5 22 -9 30 -9 10 0 8 3 -5 9 -27 12 -43 12 -25 0z"/>
<path d="M5964 3047 c-9 -24 6 -44 18 -22 7 11 6 21 -1 28 -7 7 -12 6 -17 -6z"/>
<path d="M7280 2616 c0 -11 -3 -50 -5 -86 -3 -36 -10 -155 -15 -265 -11 -220
-38 -643 -44 -690 -8 -71 22 -380 70 -719 14 -98 23 -184 21 -190 -3 -7 -23
-18 -46 -25 -23 -6 -41 -15 -41 -18 0 -4 24 -28 53 -54 28 -26 50 -49 47 -53
-6 -5 -26 10 -95 72 -16 15 -33 26 -37 24 -5 -1 -8 5 -8 13 0 9 14 22 31 29
37 16 29 24 -24 24 -45 0 -52 -11 -60 -94 -6 -59 -6 -61 21 -72 l27 -12 -27 5
c-19 4 -28 1 -28 -7 0 -15 -37 -351 -45 -415 -6 -41 -5 -43 34 -63 36 -18 59
-20 200 -20 l159 0 6 28 c3 15 11 85 17 157 6 72 13 132 16 135 6 5 -3 -163
-14 -262 l-6 -58 377 0 c213 0 376 4 376 9 0 9 -36 21 -85 27 -16 2 -33 8 -38
13 -5 5 -16 7 -23 4 -8 -3 -14 0 -14 5 0 6 -17 14 -37 17 -61 11 -74 16 -67
27 4 6 -1 8 -13 4 -12 -4 -28 1 -42 13 -12 10 -53 29 -91 42 -38 12 -67 26
-64 31 3 4 -2 5 -11 2 -8 -4 -22 -1 -30 6 -8 7 -21 10 -29 7 -10 -4 -13 -1
-10 7 5 12 -16 28 -41 31 -27 3 -55 17 -50 26 3 5 0 6 -8 3 -8 -3 -17 2 -20
10 -4 9 -13 16 -22 16 -8 0 -15 5 -15 11 0 15 10 12 190 -66 173 -75 579 -230
625 -240 28 -5 27 -5 -5 9 -19 7 -93 35 -165 61 -71 26 -195 75 -275 110 -80
34 -185 80 -235 100 -49 21 -95 42 -102 47 -22 18 -28 99 -19 298 17 391 24
682 19 786 -3 63 -3 114 0 114 3 0 64 -93 136 -207 72 -115 176 -273 230 -353
370 -539 438 -655 517 -888 l28 -82 53 0 52 0 -111 183 c-61 100 -130 214
-153 252 -23 39 -64 103 -90 144 -27 41 -48 81 -48 88 0 7 -4 13 -9 13 -4 0
-8 9 -8 19 0 11 -6 22 -12 24 -8 3 -9 6 -2 6 6 1 23 -17 38 -39 14 -22 30 -40
34 -40 4 0 25 -36 47 -80 21 -44 40 -78 42 -77 5 5 -248 573 -327 734 -44 89
-80 166 -80 172 0 6 -5 11 -10 11 -6 0 -10 6 -9 13 3 16 -19 65 -96 219 l-64
126 80 159 c53 104 80 170 81 193 1 50 -33 154 -45 138 -5 -9 -6 -6 -2 8 5 21
-68 278 -86 300 -5 6 -37 15 -72 18 -34 4 -78 11 -97 16 -19 5 -62 11 -95 14
-33 3 -71 7 -85 10 -14 3 -46 7 -72 9 -44 4 -48 3 -48 -17z m176 -884 c13 -8
22 -35 28 -80 2 -18 6 -35 9 -39 13 -12 -15 -43 -37 -43 -22 0 -24 5 -28 66
-3 51 -8 68 -22 76 -15 8 -16 12 -5 19 17 11 40 11 55 1z m59 -29 c-2 -16 -5
-41 -6 -58 -2 -30 -2 -30 -8 5 -7 40 -3 80 9 80 5 0 7 -12 5 -27z m289 -169
c3 -8 2 -12 -4 -9 -6 3 -10 10 -10 16 0 14 7 11 14 -7z m-20 -10 c3 -8 2 -12
-4 -9 -6 3 -10 10 -10 16 0 14 7 11 14 -7z m55 -56 c45 -82 82 -171 66 -158
-8 7 -15 18 -15 24 0 6 -7 20 -16 31 -15 20 -15 20 -12 0 2 -11 0 -21 -4 -22
-19 -7 -38 -2 -38 8 0 6 7 9 15 5 9 -3 15 0 15 9 0 9 -6 12 -15 9 -10 -4 -15
0 -15 10 0 9 -7 19 -16 23 -12 5 -13 7 -3 14 19 11 21 72 3 65 -14 -6 -19 6
-7 17 12 13 19 7 42 -35z m-529 -838 c0 -5 -10 -10 -22 -9 -22 0 -22 1 -3 9
11 5 21 9 23 9 1 1 2 -3 2 -9z m10 -174 c0 -9 -8 -12 -25 -8 -28 5 -24 22 6
22 10 0 19 -6 19 -14z m-3 -68 c-3 -7 -5 -2 -5 12 0 14 2 19 5 13 2 -7 2 -19
0 -25z m200 -10 c-3 -7 -5 -2 -5 12 0 14 2 19 5 13 2 -7 2 -19 0 -25z"/>
<path d="M7836 1413 c-6 -14 -5 -15 5 -6 7 7 10 15 7 18 -3 3 -9 -2 -12 -12z"/>
<path d="M5932 2613 c-29 -55 -233 -869 -232 -922 0 -3 5 1 10 9 8 13 10 12
10 -2 0 -10 4 -18 9 -18 6 0 13 -21 16 -47 4 -27 10 -57 15 -68 5 -11 11 -31
12 -45 2 -14 7 18 11 70 4 52 12 118 17 145 5 28 12 71 15 98 4 26 10 45 15
42 13 -8 20 25 15 75 -3 31 1 50 11 62 9 9 17 36 17 60 1 24 5 45 9 48 4 3 10
21 13 40 3 19 11 37 16 38 6 3 6 8 0 16 -11 13 13 92 44 148 8 14 15 45 15 67
0 32 4 41 18 42 10 0 12 3 5 6 -9 3 -8 11 4 29 8 14 13 27 9 31 -3 3 -6 1 -6
-5 0 -22 -20 -12 -30 14 -7 17 -15 24 -25 20 -8 -3 -15 -4 -15 -3 0 1 4 17 9
35 10 35 7 42 -7 15z m-105 -675 c-3 -8 -6 -5 -6 6 -1 11 2 17 5 13 3 -3 4
-12 1 -19z m-30 -170 c-3 -7 -5 -2 -5 12 0 14 2 19 5 13 2 -7 2 -19 0 -25z"/>
<path d="M3918 2253 c-2 -10 -1 -29 2 -43 7 -23 8 -24 15 -6 5 12 4 21 -2 23
-6 2 -9 13 -6 23 3 11 3 20 0 20 -2 0 -7 -8 -9 -17z"/>
<path d="M5727 1619 c4 -13 8 -18 11 -10 2 7 -1 18 -6 23 -8 8 -9 4 -5 -13z"/>
<path d="M5613 1370 c-7 -19 -19 -64 -28 -100 -9 -36 -23 -84 -31 -108 -8 -23
-13 -59 -13 -80 1 -37 1 -37 9 -7 7 27 8 25 9 -17 1 -48 27 -118 44 -118 7 0
6 11 -11 60 -3 9 2 6 11 -5 9 -11 17 -28 17 -37 0 -9 5 -20 11 -24 11 -7 10
24 -6 106 -11 55 -11 75 0 73 12 -2 8 178 -5 191 -5 5 -5 17 1 28 6 10 9 31 7
46 -3 26 -4 26 -15 -8z"/>
<path d="M3681 684 c0 -11 3 -14 6 -6 3 7 2 16 -1 19 -3 4 -6 -2 -5 -13z"/>
<path d="M8855 49 c-22 -11 -51 -22 -65 -24 -14 -2 -36 -8 -50 -14 -18 -7 15
-10 128 -10 83 -1 152 1 152 4 0 12 -85 65 -104 65 -12 -1 -39 -10 -61 -21z"/>
<path d="M5530 9 c-19 -4 39 -6 130 -6 91 0 156 1 145 3 -42 7 -241 9 -275 3z"/>
<path d="M7075 10 c-3 -5 -1 -10 4 -10 6 0 11 5 11 10 0 6 -2 10 -4 10 -3 0
-8 -4 -11 -10z"/>
</g>
</svg>
