<?xml version="1.0" standalone="no"?>
<!DOCTYPE svg PUBLIC "-//W3C//DTD SVG 20010904//EN"
 "http://www.w3.org/TR/2001/REC-SVG-20010904/DTD/svg10.dtd">
<svg version="1.0" xmlns="http://www.w3.org/2000/svg"
 width="563.000000pt" height="845.000000pt" viewBox="0 0 563.000000 845.000000"
 preserveAspectRatio="xMidYMid meet">

<g transform="translate(0.000000,845.000000) scale(0.100000,-0.100000)"
fill="#000000" stroke="none">
<path d="M2583 7824 c-73 -16 -131 -49 -166 -96 -29 -38 -77 -139 -77 -162 0
-8 -4 -25 -9 -38 -6 -13 -12 -40 -16 -61 -3 -21 -10 -35 -15 -32 -5 3 -12 -7
-16 -22 -3 -15 -10 -39 -15 -53 -4 -14 -13 -45 -18 -70 l-10 -45 20 25 20 25
-6 -50 c-19 -149 -23 -159 -37 -107 -4 17 -68 -82 -68 -107 0 -11 9 -25 20
-31 18 -10 19 -8 10 15 -6 16 -6 25 0 25 6 0 10 10 11 23 1 12 5 2 10 -22 4
-23 11 -52 14 -62 5 -14 2 -17 -8 -13 -11 4 -19 -8 -31 -42 -20 -60 -20 -61 4
-33 22 28 23 26 10 -19 -8 -29 -7 -33 7 -28 12 5 14 1 10 -16 -16 -66 -19 -98
-8 -98 6 0 11 -18 11 -42 0 -25 11 -64 25 -93 25 -51 35 -96 15 -65 -9 13 -11
13 -20 0 -5 -8 -10 -24 -11 -35 -1 -11 -3 -31 -4 -45 -5 -46 11 -56 25 -16 6
20 19 43 27 52 9 9 22 39 30 67 l13 52 -5 -52 c-5 -48 -34 -135 -35 -105 0 28
-18 0 -24 -40 -10 -61 -35 -107 -84 -156 -24 -24 -48 -55 -53 -70 -19 -49 -11
-259 13 -367 12 -55 22 -120 22 -145 0 -60 -32 -407 -45 -495 -6 -38 -12 -173
-14 -300 -2 -126 -9 -295 -14 -375 -6 -80 -11 -230 -11 -334 0 -166 2 -192 17
-209 17 -18 17 -19 0 -29 -14 -7 -16 -13 -6 -24 6 -7 9 -24 5 -37 -5 -22 -4
-23 65 -19 77 5 97 -4 80 -35 -7 -14 -7 -23 0 -30 14 -14 14 -65 0 -91 -14
-27 -31 -20 -31 13 0 31 -29 105 -41 105 -5 0 -9 -11 -9 -25 0 -14 5 -25 12
-25 9 0 9 -3 0 -12 -14 -14 -16 -80 -3 -93 5 -6 11 -21 13 -34 3 -23 31 -37
113 -56 28 -6 29 -8 12 -20 -11 -8 -34 -12 -55 -9 -37 4 -37 4 -7 -6 17 -6 49
-8 73 -5 l43 6 -8 -198 c-4 -109 -8 -263 -8 -342 l0 -144 27 -20 c21 -15 50
-22 125 -28 62 -4 100 -3 104 3 3 5 9 53 12 106 3 53 22 192 42 307 20 116 41
242 46 280 5 39 14 91 20 117 10 45 9 53 -25 125 -20 43 -37 94 -38 113 -3 35
-3 35 37 35 22 0 43 -4 46 -8 3 -5 12 6 19 23 7 17 10 34 6 37 -4 4 -28 10
-54 13 -38 4 -46 8 -44 23 2 10 -1 24 -6 30 -18 24 -20 74 -6 296 14 244 24
451 24 518 l0 43 98 -7 c128 -8 244 -8 314 1 l56 7 -14 -38 c-19 -54 -18 -61
16 -68 l30 -7 -21 -29 c-12 -17 -23 -47 -26 -67 -5 -35 -2 -40 47 -81 55 -47
121 -71 192 -71 33 0 37 -3 35 -22 -1 -15 3 -23 13 -23 10 0 15 10 15 32 0 17
4 35 8 40 5 4 8 4 6 -2 -1 -5 0 -17 4 -25 3 -8 8 -44 11 -80 3 -36 10 -92 16
-125 45 -276 39 -356 -50 -605 -57 -161 -87 -268 -60 -215 13 25 5 -134 -14
-278 -7 -54 -10 -99 -7 -101 7 -4 264 46 350 69 35 9 76 13 91 10 20 -4 45 2
87 23 32 16 76 35 98 42 79 26 539 252 569 280 5 5 -13 59 -42 127 -28 65 -69
163 -92 218 -186 447 -314 729 -555 1228 l-47 98 26 82 c36 116 48 204 47 339
-2 146 -7 174 -83 433 -69 238 -118 372 -157 430 -15 22 -33 56 -41 75 -34 85
-115 239 -150 286 -24 32 -56 60 -83 73 -40 19 -54 21 -147 15 -61 -4 -101 -4
-98 2 4 5 -19 8 -53 7 l-59 -2 0 65 c0 40 6 77 16 96 14 27 15 48 6 162 -6 72
-11 144 -11 160 -1 16 -15 53 -31 83 -17 29 -30 60 -30 68 0 8 -3 15 -8 15 -7
0 -16 15 -46 78 -8 18 -22 35 -31 39 -9 3 -20 16 -25 28 -9 24 -94 86 -143
104 -34 13 -43 13 -124 -5z m92 -169 c105 -8 128 -20 158 -81 17 -35 27 -71
27 -100 0 -45 0 -45 -22 -30 -15 10 -45 16 -84 16 -56 0 -65 -3 -83 -26 -12
-15 -21 -34 -21 -43 0 -22 38 -54 56 -47 9 3 12 1 9 -4 -7 -11 3 -13 95 -14
62 -1 65 -2 68 -26 2 -15 -6 -35 -20 -50 -48 -53 -118 -138 -118 -144 0 -4
-16 -22 -35 -40 -19 -19 -35 -42 -35 -50 0 -18 -61 -48 -127 -63 -53 -12 -87
1 -142 56 -48 48 -54 74 -48 201 5 115 10 146 34 196 17 37 21 39 68 41 28 1
58 2 68 2 28 1 19 19 -14 26 -17 4 -52 7 -79 7 l-48 -1 10 42 c5 23 13 44 19
45 5 2 9 8 9 13 0 6 15 28 32 51 l33 40 65 -6 c36 -4 92 -9 125 -11z m110
-265 c-28 -12 -67 -12 -60 0 3 6 23 10 43 9 30 0 33 -2 17 -9z m-204 -527 c9
-10 19 -29 23 -43 3 -14 18 -34 33 -44 14 -11 23 -14 19 -8 -4 7 -1 12 8 12 8
0 17 -8 19 -17 4 -14 5 -12 6 5 2 32 21 27 21 -6 0 -16 2 -31 5 -34 3 -2 7
-90 9 -194 3 -104 8 -222 12 -262 l7 -72 -43 -41 c-42 -40 -98 -72 -111 -63
-4 2 -7 52 -8 110 -1 59 -7 116 -12 127 -6 11 -8 37 -4 61 4 22 8 71 9 109 1
51 4 66 14 62 16 -6 8 27 -14 62 -40 64 -55 124 -48 199 7 78 15 84 55 37z
m-284 -165 c-3 -7 -5 -2 -5 12 0 14 2 19 5 13 2 -7 2 -19 0 -25z m0 -140 c-3
-7 -5 -2 -5 12 0 14 2 19 5 13 2 -7 2 -19 0 -25z m43 -142 c0 -12 -53 -66 -65
-66 -4 0 17 42 42 83 6 10 23 -2 23 -17z m414 -422 c3 -8 2 -12 -4 -9 -6 3
-10 10 -10 16 0 14 7 11 14 -7z m-24 -180 c0 -8 -5 -12 -10 -9 -6 4 -8 11 -5
16 9 14 15 11 15 -7z m-389 -1934 c4 -25 8 -87 9 -139 3 -88 1 -95 -18 -97
-34 -6 -46 21 -45 104 1 123 12 184 32 180 11 -2 18 -18 22 -48z m-71 -276 c0
-20 -18 -17 -29 5 -9 16 -8 18 9 14 11 -3 20 -12 20 -19z m70 2 c0 -2 -7 -7
-16 -10 -8 -3 -12 -2 -9 4 6 10 25 14 25 6z"/>
<path d="M2490 7399 c-13 -5 -34 -9 -47 -7 -12 2 -22 -1 -23 -7 -1 -15 109
-30 122 -17 8 8 8 16 -2 27 -14 17 -16 17 -50 4z"/>
<path d="M2607 7259 c-24 -14 -21 -38 6 -48 43 -16 63 11 29 42 -12 11 -22 13
-35 6z"/>
<path d="M2540 7240 c0 -5 4 -10 9 -10 6 0 13 5 16 10 3 6 -1 10 -9 10 -9 0
-16 -4 -16 -10z"/>
<path d="M2565 7161 c-11 -5 -25 -6 -31 -4 -5 2 -19 -6 -30 -18 l-19 -22 28 7
c36 9 99 -3 94 -18 -2 -6 -18 -12 -35 -14 -35 -4 -43 -18 -14 -26 45 -13 112
-18 112 -8 0 6 -6 14 -12 19 -9 5 -1 10 21 13 19 3 37 12 39 20 3 8 1 12 -3 8
-4 -4 -27 6 -51 22 -43 31 -64 35 -99 21z"/>
<path d="M3149 6953 c-13 -15 -12 -15 11 -3 34 17 36 20 18 20 -9 0 -22 -7
-29 -17z"/>
<path d="M2161 6784 c0 -11 3 -14 6 -6 3 7 2 16 -1 19 -3 4 -6 -2 -5 -13z"/>
<path d="M2185 6769 c-4 -17 -3 -35 1 -39 5 -5 10 9 11 31 1 47 -3 50 -12 8z"/>
<path d="M3055 4660 c-3 -5 -1 -10 4 -10 6 0 11 5 11 10 0 6 -2 10 -4 10 -3 0
-8 -4 -11 -10z"/>
<path d="M2157 3559 c7 -7 15 -10 18 -7 3 3 -2 9 -12 12 -14 6 -15 5 -6 -5z"/>
<path d="M2467 744 c-4 -4 -7 -20 -7 -35 0 -19 6 -28 21 -32 15 -4 19 -11 14
-25 -4 -14 1 -25 17 -36 33 -23 59 -19 96 15 33 30 33 31 15 51 -10 11 -29 28
-43 38 -28 19 -102 35 -113 24z"/>
<path d="M3315 605 c-38 -18 -92 -19 -149 -3 -40 10 -48 10 -64 -6 -11 -9 -43
-26 -71 -37 -72 -27 -144 -26 -417 6 l-52 6 -4 -31 c-4 -26 -1 -34 19 -43 19
-8 23 -16 19 -33 -10 -38 25 -49 144 -48 111 0 240 23 325 56 28 10 74 26 102
33 89 25 179 70 186 94 6 24 3 24 -38 6z"/>
</g>
</svg>
