<?xml version="1.0" standalone="no"?>
<!DOCTYPE svg PUBLIC "-//W3C//DTD SVG 20010904//EN"
 "http://www.w3.org/TR/2001/REC-SVG-20010904/DTD/svg10.dtd">
<svg version="1.0" xmlns="http://www.w3.org/2000/svg"
 width="563.000000pt" height="845.000000pt" viewBox="0 0 563.000000 845.000000"
 preserveAspectRatio="xMidYMid meet">

<g transform="translate(0.000000,845.000000) scale(0.100000,-0.100000)"
fill="#000000" stroke="none">
<path d="M2610 7733 c-23 -8 -70 -55 -70 -70 0 -14 -34 -25 -64 -20 -39 7
-152 -77 -168 -124 -4 -11 -10 -11 -31 -2 -24 11 -26 10 -32 -18 -7 -31 -60
-79 -88 -79 -10 0 -17 -8 -17 -19 0 -11 -6 -21 -12 -24 -10 -3 -10 -8 -2 -18
20 -27 14 -58 -15 -73 -36 -19 -55 -42 -45 -57 5 -8 9 -7 16 5 13 24 31 21 18
-3 -7 -14 -7 -28 0 -47 12 -32 5 -61 -22 -91 -11 -12 -18 -29 -15 -37 4 -9 -1
-20 -11 -25 -15 -9 -14 -11 8 -19 l25 -9 -23 -7 c-26 -9 -27 -14 -6 -44 14
-20 14 -22 -1 -22 -8 0 -18 7 -21 15 -11 27 -33 16 -36 -17 -5 -47 10 -75 44
-87 26 -9 29 -14 24 -37 -9 -36 11 -84 35 -84 11 0 19 -4 19 -10 0 -5 -5 -10
-12 -10 -6 0 -4 -6 6 -13 16 -12 16 -14 2 -26 -14 -11 -14 -15 0 -35 15 -24
54 -46 79 -46 8 0 30 -17 49 -37 38 -41 41 -58 5 -24 -27 25 -89 31 -69 6 7
-8 10 -25 7 -37 -8 -29 30 -96 65 -114 14 -8 29 -23 33 -33 4 -12 12 -18 21
-14 9 3 14 -2 14 -15 0 -12 5 -24 12 -28 8 -5 9 0 4 17 -9 27 -30 131 -46 226
-6 34 -11 107 -11 161 -1 108 11 149 39 136 9 -4 26 -8 37 -9 11 -1 27 -5 35
-8 34 -16 170 4 230 33 35 16 50 134 18 138 -7 1 -35 6 -63 12 -27 6 -65 13
-84 15 -59 8 -57 22 6 40 32 9 69 24 83 33 14 9 40 22 58 27 l34 10 -19 25
c-18 24 -30 75 -15 66 4 -2 16 -22 27 -43 21 -40 45 -64 57 -57 4 3 15 -7 24
-21 14 -21 14 -30 4 -55 -7 -17 -18 -30 -26 -30 -31 0 -34 -83 -5 -144 17 -37
20 -57 15 -99 -5 -42 -3 -55 10 -66 25 -21 19 -49 -13 -66 -17 -8 -36 -23 -43
-33 -9 -12 -26 -17 -58 -17 -33 0 -45 -4 -48 -16 -4 -23 24 -49 53 -49 18 0
24 -6 27 -27 3 -24 7 -28 33 -26 17 2 37 0 45 -3 24 -10 -17 -22 -73 -23 -27
-1 -69 -10 -95 -20 -26 -11 -54 -21 -62 -24 -15 -5 -45 -85 -35 -95 3 -3 5 0
5 7 0 40 65 62 197 65 l93 2 -28 -18 c-21 -15 -38 -18 -80 -13 -35 3 -51 2
-47 -5 8 -13 3 -13 -31 1 -28 10 -28 10 -10 -10 28 -31 7 -51 -50 -46 -54 4
-60 -16 -11 -45 38 -24 81 -25 121 -5 32 17 86 20 86 6 0 -6 -4 -12 -10 -16
-5 -3 -7 -11 -4 -18 9 -24 -40 -57 -95 -64 -40 -4 -60 -2 -89 13 -39 20 -112
72 -125 89 -10 13 -2 -31 14 -75 21 -58 50 -103 97 -147 25 -24 38 -43 29 -43
-10 0 -13 -8 -9 -25 4 -23 1 -25 -25 -23 -16 1 -46 -8 -67 -20 -41 -24 -50
-27 -41 -12 3 6 2 10 -4 10 -13 0 -20 55 -23 172 -2 54 -6 98 -9 98 -3 0 -26
-16 -51 -35 -53 -40 -104 -117 -176 -265 -48 -99 -55 -108 -124 -161 -40 -30
-151 -101 -245 -158 -292 -173 -343 -220 -465 -421 -69 -114 -95 -200 -118
-390 -26 -222 -99 -590 -155 -780 -56 -191 -62 -239 -40 -303 12 -36 15 -77
13 -175 -2 -103 1 -137 16 -181 18 -52 18 -55 1 -106 -16 -47 -17 -64 -7 -167
17 -159 15 -302 -2 -336 -8 -15 -17 -45 -21 -65 -8 -43 9 -202 32 -292 19 -76
80 -242 100 -274 13 -20 15 -53 14 -174 -2 -147 -2 -150 25 -188 31 -45 125
-119 152 -119 31 0 86 43 97 75 8 24 15 29 34 27 19 -3 22 0 17 14 -5 13 -3
14 6 6 18 -14 45 7 54 42 6 23 59 76 77 76 4 0 7 -11 7 -25 0 -44 61 -171 135
-280 91 -136 213 -275 240 -273 11 1 45 -4 75 -10 30 -6 70 -13 89 -14 23 -2
36 -9 41 -23 7 -18 3 -20 -44 -19 -63 1 -84 -5 -64 -17 11 -7 10 -11 -2 -19
-12 -8 -11 -10 7 -10 13 0 24 8 28 20 6 20 7 20 24 -1 12 -15 31 -22 64 -24
26 -2 47 0 47 5 0 13 83 -11 106 -31 11 -11 25 -19 31 -19 16 0 63 48 63 64 0
9 18 27 40 41 22 14 40 32 40 40 0 9 7 12 23 8 12 -3 87 -7 167 -8 l144 -3 9
-26 c10 -31 4 -30 104 -11 43 8 85 15 94 15 17 0 62 -126 74 -208 4 -24 13
-46 20 -48 7 -3 35 2 62 12 53 19 157 28 147 13 -3 -6 -1 -16 5 -23 9 -11 -1
-14 -49 -19 -61 -5 -175 -51 -207 -82 -23 -24 -9 -29 27 -10 35 18 60 14 60
-10 0 -8 7 -16 15 -16 8 -1 20 -3 25 -4 6 -1 21 -3 35 -4 22 -1 24 -3 13 -15
-9 -10 -15 -11 -20 -2 -6 8 -8 8 -8 -1 0 -7 -9 -13 -20 -13 -11 0 -20 -5 -20
-11 0 -7 11 -9 27 -6 15 3 36 1 45 -4 24 -13 68 0 68 20 0 14 2 14 11 1 8 -11
12 -12 16 -2 2 6 17 12 31 12 22 1 24 2 11 10 -10 6 -31 8 -48 6 -24 -3 -31 0
-29 13 2 11 -4 16 -19 15 -43 -1 -23 13 27 20 27 4 52 10 54 15 3 5 43 19 88
31 124 32 206 65 286 115 40 25 77 43 81 40 5 -2 17 8 27 23 14 20 19 46 19
104 0 42 3 80 8 84 10 11 9 263 -2 301 -7 26 -7 31 5 26 8 -3 14 -15 14 -28 0
-16 8 -25 27 -30 21 -5 31 -1 49 22 13 15 29 44 35 63 15 45 38 80 66 103 29
23 83 104 83 123 0 8 6 27 14 42 7 15 19 51 25 81 7 35 24 69 45 95 18 23 52
73 76 111 24 39 58 88 75 110 18 22 45 70 60 106 16 41 41 80 66 105 53 51 67
87 80 203 12 105 68 400 100 526 30 116 35 209 16 312 -9 48 -21 154 -27 236
-22 321 -142 955 -236 1252 -40 126 -114 307 -140 342 -13 17 -24 36 -24 42 0
6 -13 17 -30 26 -16 8 -44 28 -62 44 -87 75 -231 161 -378 226 -47 20 -123 54
-170 75 -47 20 -131 57 -186 81 -86 37 -105 49 -120 79 -11 19 -29 50 -41 69
-13 18 -32 60 -44 92 -29 78 -48 94 -115 93 l-54 0 0 47 c0 45 2 48 30 54 43
9 49 43 25 121 -5 17 -1 23 23 33 15 7 41 13 57 15 35 4 49 28 40 74 -10 52
-9 113 3 142 6 14 11 18 11 10 1 -10 10 -5 29 15 48 51 55 84 25 118 -15 16
-14 17 9 17 58 0 82 64 42 117 -17 22 -20 33 -11 36 8 3 6 9 -7 19 -20 16 -43
137 -28 147 12 9 13 61 2 61 -6 0 -10 9 -10 21 0 22 -19 46 -35 45 -5 -1 -12
14 -16 32 -4 19 -12 39 -18 45 -15 15 -14 47 2 47 6 0 4 5 -6 11 -9 5 -24 23
-32 39 -9 17 -34 39 -57 51 -60 31 -98 60 -98 77 0 22 -65 82 -89 82 -12 0
-21 5 -21 12 0 9 -3 9 -12 0 -15 -15 -54 -16 -63 -2 -3 6 -15 10 -26 10 -11 0
-17 4 -14 10 4 6 -2 7 -17 1 -13 -4 -47 -11 -76 -15 -49 -6 -55 -5 -99 29 -46
35 -55 38 -83 28z m44 -34 c-3 -5 -10 -7 -15 -3 -5 3 -7 10 -3 15 3 5 10 7 15
3 5 -3 7 -10 3 -15z m-54 7 c0 -3 -4 -8 -10 -11 -5 -3 -10 -1 -10 4 0 6 5 11
10 11 6 0 10 -2 10 -4z m464 -82 c3 -8 3 -14 0 -14 -12 0 -44 21 -44 29 0 14
38 1 44 -15z m-648 -533 c-13 -23 -46 -50 -46 -37 0 5 53 66 57 66 2 0 -3 -13
-11 -29z m-30 -70 c-3 -5 -21 -14 -38 -20 l-33 -11 24 20 c23 20 57 28 47 11z
m64 -181 c6 -11 8 -20 6 -20 -3 0 -10 9 -16 20 -6 11 -8 20 -6 20 3 0 10 -9
16 -20z m517 -81 c25 -9 26 -11 10 -20 -10 -6 -36 -8 -58 -4 -37 6 -39 8 -22
21 22 16 34 17 70 3z m373 -39 c0 -5 -4 -10 -10 -10 -5 0 -10 5 -10 10 0 6 5
10 10 10 6 0 10 -4 10 -10z m-1137 -88 l14 -29 -29 14 c-29 15 -38 43 -14 43
8 0 21 -13 29 -28z m607 -7 c10 -12 10 -15 -4 -15 -9 0 -16 7 -16 15 0 8 2 15
4 15 2 0 9 -7 16 -15z m-590 -160 c0 -8 -4 -15 -10 -15 -5 0 -10 7 -10 15 0 8
5 15 10 15 6 0 10 -7 10 -15z m917 -17 c-3 -8 -6 -5 -6 6 -1 11 2 17 5 13 3
-3 4 -12 1 -19z m-537 -461 c8 -7 21 -20 29 -29 12 -16 11 -18 -7 -18 -24 0
-52 25 -52 46 0 17 10 17 30 1z m-165 -177 c3 -5 1 -10 -4 -10 -6 0 -11 5 -11
10 0 6 2 10 4 10 3 0 8 -4 11 -10z m154 -124 c12 -18 21 -45 21 -60 0 -15 7
-42 14 -61 14 -32 14 -36 -4 -45 -20 -11 -63 -12 -113 -3 -22 4 -27 9 -21 21
6 16 9 35 13 86 1 12 6 16 17 12 11 -4 14 -1 9 13 -3 12 3 28 17 45 13 14 24
26 25 26 1 0 11 -15 22 -34z m-299 -41 c0 -8 -2 -15 -4 -15 -2 0 -6 7 -10 15
-3 8 -1 15 4 15 6 0 10 -7 10 -15z m565 -25 c-13 -25 -48 -50 -70 -50 -7 0 70
80 78 80 4 0 0 -14 -8 -30z m-145 -80 c-20 -13 -50 -13 -50 0 0 6 15 10 33 10
24 0 28 -3 17 -10z m-265 -250 c3 -5 1 -10 -4 -10 -6 0 -11 5 -11 10 0 6 2 10
4 10 3 0 8 -4 11 -10z m-10 -750 c3 -5 1 -10 -6 -10 -6 0 -18 -8 -25 -17 -12
-17 -13 -17 -14 3 0 11 3 24 7 27 10 10 31 8 38 -3z m2 -76 c-3 -3 -12 -4 -19
-1 -8 3 -5 6 6 6 11 1 17 -2 13 -5z m-777 -74 c0 -5 -5 -10 -11 -10 -5 0 -7 5
-4 10 3 6 8 10 11 10 2 0 4 -4 4 -10z m28 -31 c-3 -8 -7 -3 -11 10 -4 17 -3
21 5 13 5 -5 8 -16 6 -23z m2127 -2781 c28 -15 60 -28 72 -28 30 0 26 -21 -15
-88 -30 -50 -34 -52 -75 -52 -24 0 -86 -3 -138 -6 -79 -4 -91 -3 -78 8 9 7 14
19 12 25 -4 10 20 11 104 6 93 -5 110 -3 122 11 12 14 9 16 -38 16 -55 0 -171
34 -183 53 -15 24 -7 26 35 10 23 -8 58 -19 77 -23 19 -4 43 -11 53 -15 9 -4
17 -3 17 3 0 5 -15 15 -32 22 -18 8 -39 18 -47 24 -7 5 -20 11 -28 12 -20 3
-66 35 -59 41 8 8 62 -16 132 -58 33 -20 71 -40 85 -44 23 -7 24 -7 4 9 -11 9
-40 25 -64 36 -35 16 -42 23 -32 33 8 8 14 8 19 1 7 -10 73 -44 86 -44 3 0 6
5 6 10 0 5 -3 10 -7 9 -14 -2 -53 13 -53 21 0 4 -19 17 -42 29 -24 12 -56 34
-73 48 -26 22 -22 21 30 -8 33 -18 83 -46 110 -61z m-91 6 c8 -20 -8 -17 -28
5 -17 19 -17 19 2 14 12 -3 23 -11 26 -19z m-144 -34 c0 -5 -7 -7 -15 -4 -8 4
-15 8 -15 10 0 2 7 4 15 4 8 0 15 -4 15 -10z m275 -174 c-35 -70 -49 -86 -65
-76 -13 8 -12 12 5 25 19 15 18 16 -25 10 -24 -3 -47 -11 -51 -16 -3 -6 -35
-13 -70 -16 -64 -5 -95 -13 -157 -40 -41 -18 -47 -13 -33 28 19 55 39 62 185
64 138 2 189 13 207 46 21 40 25 17 4 -25z m65 -92 c0 -14 -4 -23 -9 -20 -5 3
-7 15 -4 26 7 28 13 25 13 -6z m-1710 -58 c0 -3 -4 -8 -10 -11 -5 -3 -10 -1
-10 4 0 6 5 11 10 11 6 0 10 -2 10 -4z m1560 1 c0 -8 -38 -47 -45 -47 -5 0 2
11 15 25 22 24 30 29 30 22z m-65 -97 c-9 -18 -18 -30 -21 -28 -2 3 3 19 12
37 9 18 18 30 21 28 2 -3 -3 -19 -12 -37z m-42 -27 c9 -15 -13 -53 -35 -64
-13 -5 -34 -16 -48 -24 -14 -8 -34 -14 -45 -13 -17 1 -17 1 2 5 20 4 21 7 12
24 -6 12 -16 19 -22 16 -7 -2 -21 -1 -32 3 l-20 8 20 8 c11 4 23 12 27 18 4 6
15 3 28 -9 21 -19 22 -19 35 -2 10 14 14 15 19 5 4 -9 10 -7 22 10 17 23 29
28 37 15z m-203 -63 c0 -5 -12 -10 -27 -9 -25 0 -26 1 -8 9 27 12 35 12 35 0z
m-124 -246 c-3 -9 -6 -18 -6 -20 0 -2 -10 -4 -22 -3 -22 0 -22 1 -3 9 11 5 16
9 12 9 -12 1 2 21 15 21 5 0 7 -7 4 -16z"/>
<path d="M1542 1727 c-18 -18 -32 -36 -32 -39 0 -3 16 10 35 29 20 20 34 37
32 39 -2 2 -18 -11 -35 -29z"/>
<path d="M3930 1214 c0 -21 5 -46 11 -54 7 -11 8 -1 3 35 -8 62 -14 70 -14 19z"/>
<path d="M2070 1081 c0 -5 3 -11 8 -13 4 -1 25 -25 47 -53 22 -27 44 -52 48
-54 5 -2 26 -21 49 -43 34 -33 44 -38 69 -33 20 5 29 3 29 -6 0 -7 2 -10 5 -7
12 12 -8 58 -25 58 -20 0 -42 23 -39 42 3 27 -1 38 -16 38 -9 0 -25 8 -36 18
-10 11 -32 25 -47 32 -15 7 -35 16 -44 21 -23 12 -48 11 -48 0z"/>
<path d="M3922 1019 c-11 -25 -22 -37 -26 -30 -5 8 -17 4 -39 -13 -18 -13 -44
-26 -59 -30 -16 -3 -28 -10 -28 -16 0 -26 106 -20 128 8 6 9 12 12 12 8 0 -4
15 1 34 12 l35 21 3 -22 c2 -12 6 -17 9 -12 11 19 -12 95 -31 105 -17 9 -22 5
-38 -31z m41 1 c3 -11 1 -18 -4 -14 -5 3 -9 12 -9 20 0 20 7 17 13 -6z"/>
<path d="M2490 1020 c0 -8 28 -40 35 -40 2 0 1 9 -2 19 -5 20 -33 38 -33 21z"/>
<path d="M2447 998 c-4 -13 0 -29 9 -40 9 -9 13 -22 9 -27 -3 -6 -2 -11 2 -11
5 0 17 -15 28 -32 23 -39 40 -58 53 -58 6 0 13 -6 15 -12 4 -8 6 -7 6 3 1 9
-6 22 -14 29 -8 7 -15 17 -15 22 0 6 -9 23 -21 39 -14 21 -16 27 -5 23 11 -4
13 0 9 15 -3 12 -9 21 -14 21 -5 0 -14 11 -19 25 -12 31 -36 33 -43 3z"/>
<path d="M3910 925 c-25 -13 -37 -24 -28 -24 22 -1 88 30 88 41 0 12 -9 9 -60
-17z"/>
<path d="M3765 880 c-44 -10 -73 -18 -64 -19 24 -2 132 20 149 30 19 11 12 10
-85 -11z"/>
<path d="M3915 880 c3 -5 8 -10 11 -10 2 0 4 5 4 10 0 6 -5 10 -11 10 -5 0 -7
-4 -4 -10z"/>
<path d="M3575 850 l-30 -8 30 0 c17 0 39 3 50 8 l20 9 -20 -1 c-11 0 -33 -4
-50 -8z"/>
<path d="M3932 835 c0 -16 2 -22 5 -12 2 9 2 23 0 30 -3 6 -5 -1 -5 -18z"/>
<path d="M3400 819 c-21 -6 -20 -7 13 -8 20 -1 37 -5 37 -11 0 -5 6 -10 13
-10 8 0 14 7 14 15 0 8 -4 12 -9 9 -4 -3 -8 -1 -8 5 0 11 -21 11 -60 0z"/>
<path d="M3490 820 c0 -5 4 -10 9 -10 6 0 13 5 16 10 3 6 -1 10 -9 10 -9 0
-16 -4 -16 -10z"/>
<path d="M2255 810 c-4 -6 -13 -9 -21 -6 -24 9 -26 -13 -6 -67 11 -28 29 -94
42 -145 12 -51 24 -91 26 -89 3 2 -5 44 -17 93 -11 49 -23 96 -24 104 -2 8 -8
30 -14 48 -13 42 6 44 22 2 6 -16 16 -30 21 -30 6 0 26 -15 46 -34 47 -46 134
-92 190 -100 45 -7 80 -29 80 -51 0 -12 89 -156 102 -166 5 -3 6 -24 2 -46 -5
-32 -3 -41 10 -46 12 -5 16 0 16 18 0 13 5 27 11 30 18 12 4 -121 -15 -140
-20 -21 -21 -39 -1 -31 8 3 15 1 15 -5 0 -6 -7 -17 -15 -25 -8 -9 -15 -20 -15
-25 0 -5 7 -9 15 -9 8 0 15 -9 15 -20 0 -11 -4 -20 -10 -20 -5 0 -10 -7 -10
-16 0 -8 5 -12 10 -9 6 3 10 -1 10 -9 0 -9 5 -16 10 -16 6 0 10 16 10 35 0 19
5 35 11 35 8 0 10 14 6 40 -3 27 -1 40 6 40 9 0 12 36 12 123 0 67 5 149 13
182 7 33 13 67 12 75 0 89 -2 98 -25 120 -20 19 -27 21 -39 10 -13 -10 -22 -7
-53 19 -21 17 -43 31 -49 31 -7 0 -14 4 -16 8 -4 9 -97 41 -153 52 -22 5 -65
16 -95 25 -76 24 -126 29 -135 15z m498 -423 c-3 -20 -9 -34 -14 -32 -4 3 -10
-3 -12 -12 -4 -14 -5 -13 -6 5 0 12 4 22 9 22 6 0 10 11 10 23 0 22 9 41 16
34 2 -2 1 -20 -3 -40z"/>
<path d="M2063 793 c9 -2 23 -2 30 0 6 3 -1 5 -18 5 -16 0 -22 -2 -12 -5z"/>
<path d="M3218 783 c7 -3 16 -2 19 1 4 3 -2 6 -13 5 -11 0 -14 -3 -6 -6z"/>
<path d="M2195 730 c-3 -5 -1 -10 4 -10 6 0 11 5 11 10 0 6 -2 10 -4 10 -3 0
-8 -4 -11 -10z"/>
<path d="M2205 700 c-3 -5 -1 -10 4 -10 6 0 11 5 11 10 0 6 -2 10 -4 10 -3 0
-8 -4 -11 -10z"/>
<path d="M2980 700 c0 -5 7 -10 15 -10 8 0 15 -4 15 -10 0 -5 6 -10 14 -10 8
0 16 -4 18 -9 4 -14 56 -22 63 -10 4 5 18 9 33 9 23 1 25 2 9 11 -9 5 -21 8
-26 4 -5 -3 -12 -1 -16 5 -4 6 -11 8 -16 4 -14 -8 -70 6 -63 17 3 5 -6 9 -20
9 -14 0 -26 -4 -26 -10z"/>
<path d="M4060 665 c0 -38 3 -46 16 -43 9 2 23 13 31 24 13 20 12 24 -16 44
l-31 21 0 -46z"/>
<path d="M2840 650 c0 -19 11 -42 31 -65 28 -32 37 -36 73 -33 54 4 61 30 14
54 -18 9 -49 30 -68 45 -43 36 -50 36 -50 -1z"/>
<path d="M4042 635 c0 -16 2 -22 5 -12 2 9 2 23 0 30 -3 6 -5 -1 -5 -18z"/>
<path d="M4039 573 c0 -16 -2 -110 -4 -210 -4 -157 -2 -183 10 -183 8 0 15 7
15 15 0 8 -5 15 -11 15 -11 0 -10 21 8 200 5 54 6 80 3 153 -1 42 -20 51 -21
10z"/>
<path d="M2864 530 c2 -14 8 -42 11 -62 4 -21 11 -35 16 -32 5 3 9 1 9 -4 0
-6 7 -12 15 -16 24 -9 18 14 -21 79 -21 36 -33 50 -30 35z"/>
<path d="M2302 475 c0 -11 4 -31 8 -45 l8 -25 0 25 c0 14 -3 34 -8 45 l-9 20
1 -20z"/>
<path d="M2350 326 c0 -15 29 -74 40 -81 6 -4 2 13 -10 36 -24 47 -30 56 -30
45z"/>
<path d="M2465 149 c5 -7 23 -27 42 -43 28 -24 32 -33 29 -67 -4 -33 -1 -39
15 -39 20 0 27 34 10 44 -4 3 -12 20 -16 38 -4 18 -9 36 -10 41 -1 4 -3 14 -4
22 0 8 -8 15 -16 15 -18 0 -19 -11 -2 -30 6 -7 -3 -3 -22 10 -19 13 -31 17
-26 9z"/>
<path d="M2485 79 c-4 -6 -5 -12 -2 -15 2 -3 7 2 10 11 7 17 1 20 -8 4z"/>
<path d="M2771 14 c0 -11 3 -14 6 -6 3 7 2 16 -1 19 -3 4 -6 -2 -5 -13z"/>
</g>
</svg>
