<?xml version="1.0" standalone="no"?>
<!DOCTYPE svg PUBLIC "-//W3C//DTD SVG 20010904//EN"
 "http://www.w3.org/TR/2001/REC-SVG-20010904/DTD/svg10.dtd">
<svg version="1.0" xmlns="http://www.w3.org/2000/svg"
 width="563.000000pt" height="845.000000pt" viewBox="0 0 563.000000 845.000000"
 preserveAspectRatio="xMidYMid meet">

<g transform="translate(0.000000,845.000000) scale(0.100000,-0.100000)"
fill="#000000" stroke="none">
<path d="M3625 8395 c-16 -9 -34 -21 -40 -27 -7 -8 -6 -9 2 -4 9 5 11 2 7 -8
-3 -9 -10 -16 -16 -16 -5 0 -6 4 -3 10 3 5 -6 16 -21 22 -22 10 -28 10 -32 0
-2 -8 -10 -4 -23 10 l-18 23 -1 -23 c0 -13 -4 -21 -9 -17 -5 3 -12 1 -16 -4
-3 -6 -12 -8 -20 -5 -8 3 -26 -4 -41 -15 -15 -12 -34 -21 -44 -21 -18 0 -50
-30 -50 -46 0 -34 -98 -91 -180 -105 -25 -4 -58 -13 -75 -20 -16 -7 -61 -13
-100 -14 -55 0 -70 -3 -70 -15 -1 -8 -7 -25 -15 -36 -12 -20 -14 -20 -41 -5
-16 9 -29 22 -29 29 0 7 -12 17 -26 22 -31 12 -74 13 -74 2 0 -5 -10 -14 -22
-20 -22 -10 -22 -11 7 -13 20 -1 12 -4 -24 -9 -39 -6 -61 -16 -80 -35 l-26
-27 27 17 28 17 -9 -28 c-17 -52 -19 -144 -4 -144 7 0 13 -4 13 -10 0 -5 -5
-10 -11 -10 -15 0 -39 -26 -39 -42 -1 -14 -43 -49 -65 -52 -20 -3 -31 -16 -14
-16 11 -1 11 -3 -2 -13 -9 -7 -17 -16 -19 -22 -1 -5 -5 -16 -8 -24 -3 -8 0
-17 6 -19 22 -7 13 -20 -33 -46 -25 -15 -45 -29 -45 -31 0 -2 16 -1 37 2 24 4
34 3 29 -5 -3 -5 0 -13 6 -15 8 -4 7 -6 -4 -6 -19 -1 -92 -85 -102 -118 -4
-12 -2 -24 4 -28 7 -4 7 -12 0 -25 -10 -19 -3 -216 8 -235 3 -5 7 -58 8 -116
1 -58 6 -121 12 -140 6 -19 16 -95 22 -170 11 -149 42 -313 63 -338 8 -9 17
-24 21 -35 6 -18 8 -18 25 -2 17 15 20 15 34 1 9 -8 19 -25 23 -38 l8 -22 7
25 c4 14 8 59 9 100 l2 75 29 -60 c24 -51 70 -105 90 -105 16 0 30 62 35 160
l6 110 -30 -11 c-20 -7 -34 -21 -41 -41 -15 -43 -37 -57 -78 -48 -58 14 -128
106 -151 200 -19 76 -18 249 1 294 43 98 120 111 211 36 26 -22 53 -40 60 -40
6 0 4 4 -4 10 -8 5 -11 12 -7 16 16 17 27 -12 15 -39 -14 -29 -28 -36 -28 -12
0 8 -4 15 -10 15 -16 0 -12 -10 17 -48 26 -34 26 -36 9 -65 -21 -37 -13 -48
14 -19 12 12 27 22 35 22 8 0 15 5 15 10 0 6 7 10 15 10 10 0 14 -11 14 -37
-2 -45 3 -76 13 -83 4 -3 9 -17 11 -30 13 -68 35 -88 65 -58 9 9 12 9 12 -3 1
-10 4 -9 11 4 6 10 8 24 6 31 -5 13 3 57 24 139 7 27 15 37 30 37 27 0 228
-100 286 -142 75 -55 121 -101 127 -130 4 -19 3 -27 -6 -24 -7 1 -10 1 -5 -1
11 -7 9 -43 -3 -43 -5 0 -10 -5 -10 -11 0 -5 4 -7 10 -4 5 3 15 -6 22 -20 8
-18 17 -25 30 -22 11 3 18 0 18 -9 0 -8 7 -17 15 -20 8 -4 15 -16 15 -28 1
-20 2 -20 14 -3 16 21 22 21 30 1 3 -8 2 -13 -3 -10 -5 3 -11 -3 -14 -13 -3
-13 2 -21 15 -25 14 -3 19 -10 14 -21 -4 -11 -2 -14 6 -9 8 5 9 2 5 -10 -4
-10 -7 -20 -7 -22 0 -3 -5 -2 -12 2 -8 5 -9 2 -5 -10 4 -10 7 -22 7 -27 0 -5
16 -2 36 6 50 21 69 19 120 -11 24 -14 49 -24 56 -21 7 2 25 -2 41 -10 25 -13
27 -12 27 7 0 11 7 20 15 20 20 0 19 -28 -2 -65 -9 -16 -19 -48 -22 -69 l-6
-40 -75 -13 c-43 -8 -102 -11 -138 -8 -67 6 -132 -14 -132 -41 0 -8 -4 -14
-10 -14 -5 0 -10 -4 -10 -9 0 -17 37 -22 63 -10 21 10 38 8 94 -9 37 -12 77
-23 88 -24 29 -5 25 -33 -5 -34 -32 -2 -60 -13 -84 -36 -11 -10 -26 -18 -33
-18 -7 0 -13 -8 -14 -17 0 -10 -2 -27 -4 -39 -3 -14 6 -31 25 -49 35 -33 38
-54 10 -81 -36 -36 -49 -44 -55 -34 -3 5 -19 1 -37 -10 -28 -17 -34 -17 -59
-4 -15 8 -35 14 -43 14 -9 0 -31 15 -49 33 -46 43 -89 79 -117 97 -41 27 -94
71 -126 103 -55 57 -108 101 -122 103 -8 2 -24 12 -36 23 -26 25 -56 27 -56 5
0 -33 43 -107 91 -156 54 -56 76 -88 59 -88 -20 0 -10 -29 12 -32 15 -2 24
-13 30 -34 4 -17 19 -43 32 -57 21 -23 22 -27 8 -27 -13 0 -14 -2 -4 -9 18
-11 4 -62 -19 -68 -10 -3 -21 -14 -24 -24 -4 -10 -17 -27 -31 -38 -21 -16 -26
-31 -30 -78 -2 -37 -11 -68 -24 -85 -11 -15 -20 -34 -20 -43 0 -8 -12 -20 -26
-25 -17 -7 -24 -15 -20 -25 3 -9 0 -15 -10 -15 -9 0 -12 -5 -8 -11 3 -6 1 -15
-6 -19 -6 -4 -13 -19 -13 -33 -2 -23 -8 -27 -42 -33 -45 -6 -208 10 -268 27
-22 6 -55 25 -74 43 -32 29 -36 39 -40 92 -2 32 -8 120 -14 195 -11 136 -11
136 20 254 17 65 30 120 28 122 -9 8 -97 -70 -134 -118 -57 -75 -118 -134
-188 -181 -33 -23 -77 -56 -97 -76 -27 -25 -66 -45 -145 -72 -59 -21 -164 -60
-233 -88 -69 -28 -163 -65 -210 -82 -47 -18 -130 -50 -185 -72 -131 -52 -282
-107 -322 -117 -47 -13 -87 -45 -121 -98 -39 -61 -59 -139 -72 -278 -13 -139
-18 -178 -36 -240 -7 -27 -16 -99 -19 -160 -3 -60 -10 -128 -15 -150 -5 -22
-10 -64 -10 -94 0 -45 -5 -59 -29 -87 -30 -34 -51 -88 -51 -133 0 -14 -9 -34
-19 -45 -11 -12 -43 -61 -71 -111 -106 -184 -180 -284 -236 -320 -79 -51 -196
-167 -229 -227 -28 -49 -30 -62 -33 -178 -2 -69 -6 -177 -8 -241 -5 -98 -2
-137 19 -245 14 -71 29 -149 32 -174 9 -58 38 -133 67 -176 22 -34 165 -138
221 -162 15 -7 43 -12 60 -12 127 0 525 169 666 283 l74 59 -7 -73 c-17 -186
-26 -392 -26 -603 0 -264 -10 -337 -56 -421 -18 -33 -55 -112 -83 -176 l-50
-117 9 -118 c6 -69 21 -162 37 -219 30 -114 32 -218 7 -409 -8 -61 -14 -120
-14 -133 l0 -23 2045 0 2045 0 0 23 c0 12 6 31 14 42 30 45 67 159 96 302 l31
152 -56 123 c-30 68 -70 148 -89 178 -19 30 -39 73 -45 95 -17 62 -42 305 -47
455 -11 348 -24 1053 -20 1058 7 6 87 -75 165 -167 62 -72 230 -210 299 -245
41 -21 205 -76 225 -76 4 0 7 424 7 943 l0 942 -25 49 c-14 27 -25 57 -25 65
0 9 -18 63 -40 121 -22 57 -40 116 -40 130 0 35 -15 87 -62 215 -44 121 -89
231 -117 285 -10 19 -24 73 -30 120 -27 188 -43 274 -56 300 -19 37 -64 71
-89 69 -12 -1 -38 6 -58 15 -21 9 -41 16 -46 16 -4 0 -64 16 -133 36 -166 48
-520 144 -589 159 -160 36 -312 96 -367 145 -26 23 -61 49 -77 57 -16 8 -47
28 -69 44 -22 16 -44 26 -48 23 -22 -13 7 87 42 148 22 36 39 75 39 85 0 10 5
25 11 33 8 12 9 9 4 -10 -6 -24 -6 -25 10 -5 29 35 57 96 51 111 -4 10 -2 12
6 8 8 -5 9 0 4 17 -13 43 -19 166 -7 149 6 -8 11 -10 11 -5 0 6 7 1 15 -9 8
-11 15 -14 15 -8 0 7 0 14 0 17 0 2 12 17 25 31 26 29 33 50 13 38 -7 -4 6 10
30 30 44 39 50 64 33 126 -7 24 -7 24 -14 -7 -7 -36 -71 -103 -99 -103 -9 0
-27 10 -38 22 -18 20 -30 22 -91 20 -61 -1 -70 1 -65 14 3 9 6 20 6 24 0 5 13
25 30 43 16 19 39 54 50 78 35 75 114 201 133 213 15 9 22 7 38 -13 10 -13 19
-36 19 -52 0 -54 58 -283 60 -236 0 4 17 -1 38 -12 52 -27 123 -36 166 -21 24
8 59 38 108 93 62 70 77 95 102 164 15 46 26 89 23 96 -3 8 -40 31 -82 52 -60
30 -97 40 -169 49 -78 9 -84 11 -43 14 26 2 47 7 47 11 0 5 -9 28 -20 52 -11
24 -19 62 -19 84 1 30 3 34 7 17 4 -13 11 -23 17 -22 5 1 13 -7 17 -17 9 -18
8 -12 -8 50 -3 12 6 2 19 -22 l24 -45 17 93 c16 84 47 161 66 161 4 0 5 -12 2
-27 -3 -19 -1 -25 6 -18 5 6 13 41 16 79 3 38 8 72 11 75 3 3 17 -8 30 -24 16
-19 23 -23 18 -11 -5 15 -3 18 10 13 26 -10 22 43 -6 84 -92 133 -137 203
-137 214 0 13 22 2 70 -36 28 -22 53 -39 56 -37 2 2 -20 22 -48 44 -44 33 -49
39 -30 42 11 2 30 -1 41 -7 14 -8 20 -8 23 1 3 7 19 11 40 10 22 -2 40 3 48
13 9 11 9 15 1 15 -8 0 -10 8 -6 21 5 15 2 22 -14 26 -12 3 -21 9 -21 13 0 5
-10 12 -22 16 -13 4 -40 18 -60 31 -21 13 -38 21 -38 18 0 -13 -52 51 -100
124 -38 56 -67 86 -106 111 -30 19 -69 47 -86 62 -18 14 -35 25 -38 23 -3 -2
-19 6 -35 19 -19 15 -26 27 -20 36 6 10 10 8 16 -8 7 -17 16 -22 41 -21 24 1
27 3 10 6 -12 2 -20 9 -16 14 3 6 -3 13 -15 16 -12 3 -21 10 -21 16 0 6 -6 3
-13 -6 -11 -16 -14 -16 -32 -3 -12 9 -15 15 -7 16 19 0 4 20 -16 20 -51 0 -87
20 -103 58 -12 28 -28 44 -60 60 -24 12 -39 22 -34 22 6 0 3 5 -5 11 -13 9
-13 10 0 8 8 -1 24 -1 35 0 18 1 18 2 2 18 -24 24 -123 29 -162 8z m49 -70
c-4 -9 -15 -20 -26 -26 -20 -11 -20 -11 -2 15 21 28 37 34 28 11z m-174 -25
c-6 -11 -13 -20 -16 -20 -2 0 0 9 6 20 6 11 13 20 16 20 2 0 0 -9 -6 -20z
m-64 -15 c-8 -8 -18 -15 -22 -15 -3 0 -1 7 6 15 7 8 17 15 22 15 5 0 3 -7 -6
-15z m374 -10 c11 -13 10 -14 -4 -9 -9 3 -16 10 -16 15 0 13 6 11 20 -6z
m-400 -125 c0 -5 -8 -10 -17 -10 -15 0 -16 2 -3 10 19 12 20 12 20 0z m282
-14 c98 -27 119 -35 164 -61 43 -25 65 -57 24 -35 -10 6 -23 10 -27 9 -14 -3
-73 23 -73 31 0 5 -15 11 -32 15 -18 3 -54 11 -80 17 -38 9 -50 9 -64 -3 -10
-8 -15 -9 -11 -3 4 7 -5 11 -28 10 -46 -1 -45 18 2 25 62 10 70 10 125 -5z
m-1050 -91 c3 -14 1 -25 -3 -25 -5 0 -9 11 -9 25 0 14 2 25 4 25 2 0 6 -11 8
-25z m43 -25 c3 -5 1 -10 -4 -10 -6 0 -11 5 -11 10 0 6 2 10 4 10 3 0 8 -4 11
-10z m1405 -5 c16 -19 1 -19 -24 0 -16 12 -17 15 -4 15 8 0 21 -7 28 -15z
m-1350 -11 c0 -2 -7 -4 -15 -4 -8 0 -15 4 -15 10 0 5 7 7 15 4 8 -4 15 -8 15
-10z m1265 -44 c3 -6 -1 -7 -9 -4 -18 7 -21 14 -7 14 6 0 13 -4 16 -10z m35
-20 c0 -5 -2 -10 -4 -10 -3 0 -8 5 -11 10 -3 6 -1 10 4 10 6 0 11 -4 11 -10z
m-20 -35 c0 -8 -2 -15 -4 -15 -2 0 -6 7 -10 15 -3 8 -1 15 4 15 6 0 10 -7 10
-15z m173 -2 c-7 -2 -19 -2 -25 0 -7 3 -2 5 12 5 14 0 19 -2 13 -5z m-786 -43
c-14 -11 -29 -20 -34 -20 -11 1 37 40 49 40 6 0 -1 -9 -15 -20z m83 -9 c-17
-32 -118 -117 -153 -128 -17 -6 -49 -18 -70 -27 -64 -28 -30 4 37 35 33 15 89
53 124 83 68 61 78 66 62 37z m835 -30 c5 -11 3 -12 -10 -1 -9 7 -18 10 -21 7
-8 -7 -33 16 -28 25 6 9 53 -15 59 -31z m-25 -31 c0 -5 -2 -10 -4 -10 -3 0 -8
5 -11 10 -3 6 -1 10 4 10 6 0 11 -4 11 -10z m106 -46 c18 -14 18 -15 -6 -8
-31 8 -50 24 -29 24 8 0 24 -7 35 -16z m-548 -162 c10 -13 12 -13 12 -1 0 8 8
-1 16 -18 9 -18 23 -33 31 -33 9 0 12 -6 8 -19 -3 -12 0 -21 10 -25 8 -3 15
-16 15 -30 0 -14 4 -27 10 -31 5 -3 7 -12 3 -20 -3 -10 1 -15 14 -15 17 0 19
-7 18 -64 0 -36 -4 -68 -8 -72 -10 -11 -9 -54 2 -54 5 0 12 6 14 13 2 6 3 -1
1 -18 -3 -16 -9 -32 -15 -36 -7 -4 -8 -12 -5 -18 4 -6 -3 -20 -16 -31 -13 -11
-19 -19 -13 -20 5 0 -1 -7 -14 -16 -18 -13 -25 -14 -31 -4 -4 7 -15 10 -25 7
-9 -4 -14 -11 -11 -16 4 -5 3 -16 0 -25 -5 -12 -10 -13 -26 -5 -15 8 -19 8
-14 0 9 -15 4 -14 -30 4 -24 12 -25 15 -9 15 13 0 21 7 22 18 1 11 -5 18 -17
18 -10 0 -16 -5 -13 -10 4 -5 -1 -7 -10 -3 -8 3 -18 0 -20 -8 -5 -11 -14 -10
-54 2 -91 29 -108 31 -203 32 -99 1 -337 33 -404 55 l-38 13 51 31 c28 18 51
36 51 40 0 5 8 17 18 28 10 10 21 26 24 35 5 13 2 16 -15 11 -21 -5 -21 -4 -4
15 21 24 22 34 3 27 -7 -3 -16 2 -19 10 -4 9 -18 16 -34 16 -22 0 -25 2 -13
10 8 5 11 10 7 10 -12 0 44 54 70 68 11 7 52 12 90 13 37 1 76 6 86 11 9 5 54
10 99 12 51 2 83 7 86 14 6 18 20 14 25 -5 3 -16 5 -16 12 2 5 11 14 25 20 31
16 16 55 27 55 16 0 -6 14 -8 33 -5 17 3 39 6 47 7 8 0 25 11 37 23 24 24 48
22 71 -5z m-1144 -2 c-7 -7 -19 -7 -35 -1 -23 9 -22 10 11 10 23 1 31 -2 24
-9z m396 -220 c0 -5 -12 -10 -27 -10 -22 0 -25 2 -13 10 20 13 40 13 40 0z
m-755 -20 c3 -5 1 -10 -4 -10 -6 0 -11 5 -11 10 0 6 2 10 4 10 3 0 8 -4 11
-10z m1942 -242 c-3 -7 -5 -2 -5 12 0 14 2 19 5 13 2 -7 2 -19 0 -25z m-552
-56 c73 -28 58 -30 -31 -5 -49 13 -91 27 -94 30 -9 9 84 -9 125 -25z m575 -13
c0 -7 -6 -4 -15 7 -19 25 -19 40 0 20 8 -8 15 -20 15 -27z m-400 11 c0 -5 -4
-10 -10 -10 -5 0 -10 5 -10 10 0 6 5 10 10 10 6 0 10 -4 10 -10z m-493 -506
c-3 -3 -12 -4 -19 -1 -8 3 -5 6 6 6 11 1 17 -2 13 -5z m477 -230 c23 -9 20
-23 -4 -17 -11 3 -20 9 -20 14 0 11 3 11 24 3z m-24 -179 c0 -16 -27 -32 -37
-21 -7 7 16 36 28 36 5 0 9 -7 9 -15z m-576 -760 c-4 -8 -12 -15 -20 -15 -8 0
-14 -5 -14 -11 0 -5 5 -7 11 -4 12 8 -7 -29 -31 -59 -9 -12 -10 -16 -2 -12 6
4 12 3 12 -2 0 -15 -91 -50 -171 -67 -82 -17 -102 -14 -34 6 25 7 45 17 45 22
0 5 6 7 13 4 14 -5 18 7 18 55 0 21 7 32 29 43 37 19 51 19 43 -1 -4 -12 0
-15 18 -12 15 2 25 12 29 27 3 13 14 28 25 32 30 11 35 10 29 -6z m893 -220
c16 -14 22 -24 14 -25 -12 0 -51 -36 -51 -47 0 -3 7 -11 15 -20 12 -12 13 -18
4 -29 -7 -9 -8 -14 -1 -14 6 0 25 -30 44 -66 25 -51 50 -80 108 -130 87 -73
91 -80 114 -159 36 -121 146 -308 216 -364 67 -54 73 -68 55 -136 -17 -65 -38
-95 -69 -96 -12 0 -15 -3 -8 -6 13 -5 17 -25 4 -20 -5 1 -21 -13 -36 -30 -15
-18 -34 -33 -42 -33 -8 0 -14 -7 -14 -15 0 -8 -4 -23 -9 -33 -5 -9 -24 -52
-42 -94 -39 -88 -58 -97 -111 -53 -16 14 -40 25 -52 25 -12 0 -33 11 -45 24
-13 13 -34 27 -47 30 -24 6 -88 45 -114 70 -8 7 -31 17 -50 21 -19 4 -44 13
-55 20 -11 7 -58 18 -105 24 -47 7 -119 23 -161 36 -42 14 -86 25 -98 25 -12
0 -38 7 -59 16 -20 9 -68 17 -107 18 -69 2 -165 30 -165 48 0 5 -4 7 -9 3 -11
-6 -31 26 -31 50 0 9 13 30 29 46 28 28 34 29 115 29 65 0 86 3 86 13 0 19
-71 56 -77 40 -3 -8 -28 0 -79 25 -70 34 -74 38 -74 70 0 44 14 68 49 87 28
14 59 12 169 -11 18 -3 32 -2 32 3 0 12 -22 33 -35 33 -5 0 -3 -5 5 -11 24
-17 -69 0 -119 22 -24 10 -47 16 -52 13 -14 -9 -32 42 -25 72 4 14 21 40 37
57 l30 30 106 -6 c99 -5 163 4 163 23 0 8 -40 22 -72 25 -9 1 -25 5 -35 9 -10
5 -44 12 -76 16 -72 11 -87 22 -87 69 0 57 35 92 97 98 105 11 367 -44 475
-98 100 -50 111 -51 88 -1 -10 20 -21 64 -25 97 -6 56 -4 66 27 125 32 61 82
110 114 110 7 0 26 -11 41 -25z m-2509 -103 c13 -8 30 -28 38 -45 21 -40 44
-116 39 -130 -3 -7 -9 -56 -14 -109 -8 -80 -14 -104 -35 -131 -33 -43 -35 -69
-3 -39 31 29 34 28 41 -13 8 -42 19 -43 102 -14 165 58 428 107 505 94 53 -9
72 -36 53 -74 -12 -25 -21 -29 -74 -34 -34 -4 -69 -11 -80 -17 -22 -12 -80
-14 -80 -2 0 4 -22 8 -49 9 -45 2 -53 -1 -75 -28 -15 -17 -26 -36 -26 -43 0
-7 -11 -26 -25 -42 -13 -15 -22 -30 -20 -32 2 -3 33 3 69 13 62 17 67 17 115
-1 45 -16 58 -16 109 -6 85 18 187 16 206 -4 9 -8 16 -18 16 -21 0 -4 -3 -4
-6 0 -4 3 -27 -5 -53 -18 -25 -13 -71 -26 -101 -30 -95 -11 -125 -23 -150 -57
-13 -18 -43 -50 -67 -71 -63 -57 -52 -85 23 -57 20 8 37 7 68 -5 40 -15 106
-17 106 -3 0 4 9 10 20 13 11 3 27 14 36 22 17 18 124 32 124 17 0 -20 -73
-58 -118 -62 -26 -2 -51 -7 -57 -11 -5 -5 -22 -11 -38 -15 -36 -8 -149 -121
-145 -144 2 -13 14 -17 43 -17 22 0 46 -4 54 -9 24 -15 6 -69 -38 -114 -32
-32 -51 -42 -88 -48 -27 -4 -64 -15 -83 -25 -19 -11 -44 -19 -56 -19 -12 0
-57 -11 -100 -25 -44 -14 -110 -35 -149 -47 -75 -24 -124 -50 -168 -92 -15
-14 -40 -33 -55 -40 -15 -8 -40 -27 -57 -41 -16 -15 -47 -36 -68 -47 -37 -19
-39 -19 -53 -1 -9 12 -12 33 -8 63 4 31 1 54 -10 75 -9 17 -16 36 -16 44 0 7
-18 29 -39 48 -45 39 -77 119 -87 218 -6 60 -6 60 41 120 94 120 178 296 210
438 12 55 30 97 66 154 27 43 56 101 64 128 39 141 46 211 24 263 -16 37 -7
59 32 79 26 13 50 9 87 -15z m318 -3579 c-11 -11 -26 10 -26 35 l1 27 15 -28
c9 -16 13 -31 10 -34z m1039 -1273 c3 -5 2 -10 -4 -10 -5 0 -13 5 -16 10 -3 6
-2 10 4 10 5 0 13 -4 16 -10z m148 -27 c-7 -2 -19 -2 -25 0 -7 3 -2 5 12 5 14
0 19 -2 13 -5z m-250 -80 c-13 -2 -33 -2 -45 0 -13 2 -3 4 22 4 25 0 35 -2 23
-4z"/>
<path d="M4095 8110 c3 -5 8 -10 11 -10 2 0 4 5 4 10 0 6 -5 10 -11 10 -5 0
-7 -4 -4 -10z"/>
<path d="M2522 7029 c-24 -12 -47 -31 -51 -41 -4 -11 -11 -19 -16 -19 -13 1
-8 -175 5 -197 7 -13 9 -5 10 31 0 53 20 105 51 133 14 13 34 16 84 15 67 -2
74 3 53 32 -14 17 -78 67 -87 67 -3 0 -26 -10 -49 -21z"/>
<path d="M2640 6913 c-8 -3 -34 -14 -57 -24 -23 -11 -47 -19 -52 -19 -6 0 -17
-10 -26 -23 -16 -26 -9 -70 20 -113 16 -25 40 -33 32 -11 -9 24 28 68 75 89
47 21 48 23 48 65 0 43 -6 48 -40 36z"/>
<path d="M2667 6770 c-42 -49 -32 -104 10 -57 26 28 32 47 24 71 -6 17 -10 15
-34 -14z"/>
<path d="M3921 6160 c1 -14 5 -38 9 -55 7 -29 8 -29 9 10 0 22 -4 47 -9 55 -8
12 -9 10 -9 -10z"/>
<path d="M2670 5950 c0 -11 5 -20 10 -20 6 0 10 9 10 20 0 11 -4 20 -10 20 -5
0 -10 -9 -10 -20z"/>
</g>
</svg>
